<svg width="360" height="216" xmlns="http://www.w3.org/2000/svg" xmlns:xlink="http://www.w3.org/1999/xlink" style="background:#fff"><defs><rect id="a" x="1" y="31" width="296" height="56" rx="2"/></defs><g fill="none" fill-rule="evenodd"><g stroke-width=".25"><path d="M352.13 208.13h7.75v7.75h-7.75zm-8 0h7.75v7.75h-7.75zm8-8h7.75v7.75h-7.75zm-8 0h7.75v7.75h-7.75zm8-8h7.75v7.75h-7.75zm-8 0h7.75v7.75h-7.75z" stroke="#F6EEFF"/><path stroke="#DAA1DD" d="M344.13 192.13h47.75v47.75h-47.75z"/><path d="M336.13 208.13h7.75v7.75h-7.75zm-8 0h7.75v7.75h-7.75zm-8 0h7.75v7.75h-7.75zm-8 0h7.75v7.75h-7.75zm-8 0h7.75v7.75h-7.75zm-8 0h7.75v7.75h-7.75zm40-8h7.75v7.75h-7.75zm-8 0h7.75v7.75h-7.75zm-8 0h7.75v7.75h-7.75zm-8 0h7.75v7.75h-7.75zm-8 0h7.75v7.75h-7.75zm-8 0h7.75v7.75h-7.75zm40-8h7.75v7.75h-7.75zm-8 0h7.75v7.75h-7.75zm-8 0h7.75v7.75h-7.75zm-8 0h7.75v7.75h-7.75zm-8 0h7.75v7.75h-7.75zm-8 0h7.75v7.75h-7.75z" stroke="#F6EEFF"/><path stroke="#DAA1DD" d="M296.13 192.13h47.75v47.75h-47.75z"/><path d="M288.13 208.13h7.75v7.75h-7.75zm-8 0h7.75v7.75h-7.75zm-8 0h7.75v7.75h-7.75zm-8 0h7.75v7.75h-7.75zm-8 0h7.75v7.75h-7.75zm-8 0h7.75v7.75h-7.75zm40-8h7.75v7.75h-7.75zm-8 0h7.75v7.75h-7.75zm-8 0h7.75v7.75h-7.75zm-8 0h7.75v7.75h-7.75zm-8 0h7.75v7.75h-7.75zm-8 0h7.75v7.75h-7.75zm40-8h7.75v7.75h-7.75zm-8 0h7.75v7.75h-7.75zm-8 0h7.75v7.75h-7.75zm-8 0h7.75v7.75h-7.75zm-8 0h7.75v7.75h-7.75zm-8 0h7.75v7.75h-7.75z" stroke="#F6EEFF"/><path stroke="#DAA1DD" d="M248.13 192.13h47.75v47.75h-47.75z"/><path d="M240.13 208.13h7.75v7.75h-7.75zm-8 0h7.75v7.75h-7.75zm-8 0h7.75v7.75h-7.75zm-8 0h7.75v7.75h-7.75zm-8 0h7.75v7.75h-7.75zm-8 0h7.75v7.75h-7.75zm40-8h7.75v7.75h-7.75zm-8 0h7.75v7.75h-7.75zm-8 0h7.75v7.75h-7.75zm-8 0h7.75v7.75h-7.75zm-8 0h7.75v7.75h-7.75zm-8 0h7.75v7.75h-7.75zm40-8h7.75v7.75h-7.75zm-8 0h7.75v7.75h-7.75zm-8 0h7.75v7.75h-7.75zm-8 0h7.75v7.75h-7.75zm-8 0h7.75v7.75h-7.75zm-8 0h7.75v7.75h-7.75z" stroke="#F6EEFF"/><path stroke="#DAA1DD" d="M200.13 192.13h47.75v47.75h-47.75z"/><path d="M192.13 208.13h7.75v7.75h-7.75zm-8 0h7.75v7.75h-7.75zm-8 0h7.75v7.75h-7.75zm-8 0h7.75v7.75h-7.75zm-8 0h7.75v7.75h-7.75zm-8 0h7.75v7.75h-7.75zm40-8h7.75v7.75h-7.75zm-8 0h7.75v7.75h-7.75zm-8 0h7.75v7.75h-7.75zm-8 0h7.75v7.75h-7.75zm-8 0h7.75v7.75h-7.75zm-8 0h7.75v7.75h-7.75zm40-8h7.75v7.75h-7.75zm-8 0h7.75v7.75h-7.75zm-8 0h7.75v7.75h-7.75zm-8 0h7.75v7.75h-7.75zm-8 0h7.75v7.75h-7.75zm-8 0h7.75v7.75h-7.75z" stroke="#F6EEFF"/><path stroke="#DAA1DD" d="M152.13 192.13h47.75v47.75h-47.75z"/><path d="M144.13 208.13h7.75v7.75h-7.75zm-8 0h7.75v7.75h-7.75zm-8 0h7.75v7.75h-7.75zm-8 0h7.75v7.75h-7.75zm-8 0h7.75v7.75h-7.75zm-8 0h7.75v7.75h-7.75zm40-8h7.75v7.75h-7.75zm-8 0h7.75v7.75h-7.75zm-8 0h7.75v7.75h-7.75zm-8 0h7.75v7.75h-7.75zm-8 0h7.75v7.75h-7.75zm-8 0h7.75v7.75h-7.75zm40-8h7.75v7.75h-7.75zm-8 0h7.75v7.75h-7.75zm-8 0h7.75v7.75h-7.75zm-8 0h7.75v7.75h-7.75zm-8 0h7.75v7.75h-7.75zm-8 0h7.75v7.75h-7.75z" stroke="#F6EEFF"/><path stroke="#DAA1DD" d="M104.13 192.13h47.75v47.75h-47.75z"/><path d="M96.13 208.13h7.75v7.75h-7.75zm-8 0h7.75v7.75h-7.75zm-8 0h7.75v7.75h-7.75zm-8 0h7.75v7.75h-7.75zm-8 0h7.75v7.75h-7.75zm-8 0h7.75v7.75h-7.75zm40-8h7.75v7.75h-7.75zm-8 0h7.75v7.75h-7.75zm-8 0h7.75v7.75h-7.75zm-8 0h7.75v7.75h-7.75zm-8 0h7.75v7.75h-7.75zm-8 0h7.75v7.75h-7.75zm40-8h7.75v7.75h-7.75zm-8 0h7.75v7.75h-7.75zm-8 0h7.75v7.75h-7.75zm-8 0h7.75v7.75h-7.75zm-8 0h7.75v7.75h-7.75zm-8 0h7.75v7.75h-7.75z" stroke="#F6EEFF"/><path stroke="#DAA1DD" d="M56.13 192.13h47.75v47.75H56.13z"/><path d="M352.13 184.13h7.75v7.75h-7.75zm-8 0h7.75v7.75h-7.75zm8-8h7.75v7.75h-7.75zm-8 0h7.75v7.75h-7.75zm8-8h7.75v7.75h-7.75zm-8 0h7.75v7.75h-7.75zm8-8h7.75v7.75h-7.75zm-8 0h7.75v7.75h-7.75zm8-8h7.75v7.75h-7.75zm-8 0h7.75v7.75h-7.75zm8-8h7.75v7.75h-7.75zm-8 0h7.75v7.75h-7.75z" stroke="#F6EEFF"/><path stroke="#DAA1DD" d="M344.13 144.13h47.75v47.75h-47.75z"/><path d="M336.13 184.13h7.75v7.75h-7.75zm-8 0h7.75v7.75h-7.75zm-8 0h7.75v7.75h-7.75zm-8 0h7.75v7.75h-7.75zm-8 0h7.75v7.75h-7.75zm-8 0h7.75v7.75h-7.75zm40-8h7.75v7.75h-7.75zm-8 0h7.75v7.75h-7.75zm-8 0h7.75v7.75h-7.75zm-8 0h7.75v7.75h-7.75zm-8 0h7.75v7.75h-7.75zm-8 0h7.75v7.75h-7.75zm40-8h7.75v7.75h-7.75zm-8 0h7.75v7.75h-7.75zm-8 0h7.75v7.75h-7.75zm-8 0h7.75v7.75h-7.75zm-8 0h7.75v7.75h-7.75zm-8 0h7.75v7.75h-7.75zm40-8h7.75v7.75h-7.75zm-8 0h7.75v7.75h-7.75zm-8 0h7.75v7.75h-7.75zm-8 0h7.75v7.75h-7.75zm-8 0h7.75v7.75h-7.75zm-8 0h7.75v7.75h-7.75zm40-8h7.75v7.75h-7.75zm-8 0h7.75v7.75h-7.75zm-8 0h7.75v7.75h-7.75zm-8 0h7.75v7.75h-7.75zm-8 0h7.75v7.75h-7.75zm-8 0h7.75v7.75h-7.75zm40-8h7.75v7.75h-7.75zm-8 0h7.75v7.75h-7.75zm-8 0h7.75v7.75h-7.75zm-8 0h7.75v7.75h-7.75zm-8 0h7.75v7.75h-7.75zm-8 0h7.75v7.75h-7.75z" stroke="#F6EEFF"/><path stroke="#DAA1DD" d="M296.13 144.13h47.75v47.75h-47.75z"/><path d="M288.13 184.13h7.75v7.75h-7.75zm-8 0h7.75v7.75h-7.75zm-8 0h7.75v7.75h-7.75zm-8 0h7.75v7.75h-7.75zm-8 0h7.75v7.75h-7.75zm-8 0h7.75v7.75h-7.75zm40-8h7.75v7.75h-7.75zm-8 0h7.75v7.75h-7.75zm-8 0h7.75v7.75h-7.75zm-8 0h7.75v7.75h-7.75zm-8 0h7.75v7.75h-7.75zm-8 0h7.75v7.75h-7.75zm40-8h7.75v7.75h-7.75zm-8 0h7.75v7.75h-7.75zm-8 0h7.75v7.75h-7.75zm-8 0h7.75v7.75h-7.75zm-8 0h7.75v7.75h-7.75zm-8 0h7.75v7.75h-7.75zm40-8h7.75v7.75h-7.75zm-8 0h7.75v7.75h-7.75zm-8 0h7.75v7.75h-7.75zm-8 0h7.75v7.75h-7.75zm-8 0h7.75v7.75h-7.75zm-8 0h7.75v7.75h-7.75zm40-8h7.75v7.75h-7.75zm-8 0h7.75v7.75h-7.75zm-8 0h7.75v7.75h-7.75zm-8 0h7.75v7.75h-7.75zm-8 0h7.75v7.75h-7.75zm-8 0h7.75v7.75h-7.75zm40-8h7.75v7.75h-7.75zm-8 0h7.75v7.75h-7.75zm-8 0h7.75v7.75h-7.75zm-8 0h7.75v7.75h-7.75zm-8 0h7.75v7.75h-7.75zm-8 0h7.75v7.75h-7.75z" stroke="#F6EEFF"/><path stroke="#DAA1DD" d="M248.13 144.13h47.75v47.75h-47.75z"/><path d="M240.13 184.13h7.75v7.75h-7.75zm-8 0h7.75v7.75h-7.75zm-8 0h7.75v7.75h-7.75zm-8 0h7.75v7.75h-7.75zm-8 0h7.75v7.75h-7.75zm-8 0h7.75v7.75h-7.75zm40-8h7.75v7.75h-7.75zm-8 0h7.75v7.75h-7.75zm-8 0h7.75v7.75h-7.75zm-8 0h7.75v7.75h-7.75zm-8 0h7.75v7.75h-7.75zm-8 0h7.75v7.75h-7.75zm40-8h7.75v7.75h-7.75zm-8 0h7.75v7.75h-7.75zm-8 0h7.75v7.75h-7.75zm-8 0h7.75v7.75h-7.75zm-8 0h7.75v7.75h-7.75zm-8 0h7.75v7.75h-7.75zm40-8h7.75v7.75h-7.75zm-8 0h7.75v7.75h-7.75zm-8 0h7.75v7.75h-7.75zm-8 0h7.75v7.75h-7.75zm-8 0h7.75v7.75h-7.75zm-8 0h7.75v7.75h-7.75zm40-8h7.75v7.75h-7.75zm-8 0h7.75v7.75h-7.75zm-8 0h7.75v7.75h-7.75zm-8 0h7.75v7.75h-7.75zm-8 0h7.75v7.75h-7.75zm-8 0h7.75v7.75h-7.75zm40-8h7.75v7.75h-7.75zm-8 0h7.75v7.75h-7.75zm-8 0h7.75v7.75h-7.75zm-8 0h7.75v7.75h-7.75zm-8 0h7.75v7.75h-7.75zm-8 0h7.75v7.75h-7.75z" stroke="#F6EEFF"/><path stroke="#DAA1DD" d="M200.13 144.13h47.75v47.75h-47.75z"/><path d="M192.13 184.13h7.75v7.75h-7.75zm-8 0h7.75v7.75h-7.75zm-8 0h7.75v7.75h-7.75zm-8 0h7.75v7.75h-7.75zm-8 0h7.75v7.75h-7.75zm-8 0h7.75v7.75h-7.75zm40-8h7.75v7.75h-7.75zm-8 0h7.75v7.75h-7.75zm-8 0h7.75v7.75h-7.75zm-8 0h7.75v7.75h-7.75zm-8 0h7.75v7.75h-7.75zm-8 0h7.75v7.75h-7.75zm40-8h7.75v7.75h-7.75zm-8 0h7.75v7.75h-7.75zm-8 0h7.75v7.75h-7.75zm-8 0h7.75v7.75h-7.75zm-8 0h7.75v7.75h-7.75zm-8 0h7.75v7.75h-7.75zm40-8h7.75v7.75h-7.75zm-8 0h7.75v7.75h-7.75zm-8 0h7.75v7.75h-7.75zm-8 0h7.75v7.75h-7.75zm-8 0h7.75v7.75h-7.75zm-8 0h7.75v7.75h-7.75zm40-8h7.75v7.75h-7.75zm-8 0h7.75v7.75h-7.75zm-8 0h7.75v7.75h-7.75zm-8 0h7.75v7.75h-7.75zm-8 0h7.75v7.75h-7.75zm-8 0h7.75v7.75h-7.75zm40-8h7.75v7.75h-7.75zm-8 0h7.75v7.75h-7.75zm-8 0h7.75v7.75h-7.75zm-8 0h7.75v7.75h-7.75zm-8 0h7.75v7.75h-7.75zm-8 0h7.75v7.75h-7.75z" stroke="#F6EEFF"/><path stroke="#DAA1DD" d="M152.13 144.13h47.75v47.75h-47.75z"/><path d="M144.13 184.13h7.75v7.75h-7.75zm-8 0h7.75v7.75h-7.75zm-8 0h7.75v7.75h-7.75zm-8 0h7.75v7.75h-7.75zm-8 0h7.75v7.75h-7.75zm-8 0h7.75v7.75h-7.75zm40-8h7.75v7.75h-7.75zm-8 0h7.75v7.75h-7.75zm-8 0h7.75v7.75h-7.75zm-8 0h7.75v7.75h-7.75zm-8 0h7.75v7.75h-7.75zm-8 0h7.75v7.75h-7.75zm40-8h7.75v7.75h-7.75zm-8 0h7.75v7.75h-7.75zm-8 0h7.75v7.75h-7.75zm-8 0h7.75v7.75h-7.75zm-8 0h7.75v7.75h-7.75zm-8 0h7.75v7.75h-7.75zm40-8h7.75v7.75h-7.75zm-8 0h7.75v7.75h-7.75zm-8 0h7.75v7.75h-7.75zm-8 0h7.75v7.75h-7.75zm-8 0h7.75v7.75h-7.75zm-8 0h7.75v7.75h-7.75zm40-8h7.75v7.75h-7.75zm-8 0h7.75v7.75h-7.75zm-8 0h7.75v7.75h-7.75zm-8 0h7.75v7.75h-7.75zm-8 0h7.75v7.75h-7.75zm-8 0h7.75v7.75h-7.75zm40-8h7.75v7.75h-7.75zm-8 0h7.75v7.75h-7.75zm-8 0h7.75v7.75h-7.75zm-8 0h7.75v7.75h-7.75zm-8 0h7.75v7.75h-7.75zm-8 0h7.75v7.75h-7.75z" stroke="#F6EEFF"/><path stroke="#DAA1DD" d="M104.13 144.13h47.75v47.75h-47.75z"/><path d="M96.13 184.13h7.75v7.75h-7.75zm-8 0h7.75v7.75h-7.75zm-8 0h7.75v7.75h-7.75zm-8 0h7.75v7.75h-7.75zm-8 0h7.75v7.75h-7.75zm-8 0h7.75v7.75h-7.75zm40-8h7.75v7.75h-7.75zm-8 0h7.75v7.75h-7.75zm-8 0h7.75v7.75h-7.75zm-8 0h7.75v7.75h-7.75zm-8 0h7.75v7.75h-7.75zm-8 0h7.75v7.75h-7.75zm40-8h7.75v7.75h-7.75zm-8 0h7.75v7.75h-7.75zm-8 0h7.75v7.75h-7.75zm-8 0h7.75v7.75h-7.75zm-8 0h7.75v7.75h-7.75zm-8 0h7.75v7.75h-7.75zm40-8h7.75v7.75h-7.75zm-8 0h7.75v7.75h-7.75zm-8 0h7.75v7.75h-7.75zm-8 0h7.75v7.75h-7.75zm-8 0h7.75v7.75h-7.75zm-8 0h7.75v7.75h-7.75zm40-8h7.75v7.75h-7.75zm-8 0h7.75v7.75h-7.75zm-8 0h7.75v7.75h-7.75zm-8 0h7.75v7.75h-7.75zm-8 0h7.75v7.75h-7.75zm-8 0h7.75v7.75h-7.75zm40-8h7.75v7.75h-7.75zm-8 0h7.75v7.75h-7.75zm-8 0h7.75v7.75h-7.75zm-8 0h7.75v7.75h-7.75zm-8 0h7.75v7.75h-7.75zm-8 0h7.75v7.75h-7.75z" stroke="#F6EEFF"/><path stroke="#DAA1DD" d="M56.13 144.13h47.75v47.75H56.13z"/><path d="M352.13 136.13h7.75v7.75h-7.75zm-8 0h7.75v7.75h-7.75zm8-8h7.75v7.75h-7.75zm-8 0h7.75v7.75h-7.75zm8-8h7.75v7.75h-7.75zm-8 0h7.75v7.75h-7.75zm8-8h7.75v7.75h-7.75zm-8 0h7.75v7.75h-7.75zm8-8h7.75v7.75h-7.75zm-8 0h7.75v7.75h-7.75zm8-8h7.75v7.75h-7.75zm-8 0h7.75v7.75h-7.75z" stroke="#F6EEFF"/><path stroke="#DAA1DD" d="M344.13 96.13h47.75v47.75h-47.75z"/><path d="M336.13 136.13h7.75v7.75h-7.75zm-8 0h7.75v7.75h-7.75zm-8 0h7.75v7.75h-7.75zm-8 0h7.75v7.75h-7.75zm-8 0h7.75v7.75h-7.75zm-8 0h7.75v7.75h-7.75zm40-8h7.75v7.75h-7.75zm-8 0h7.75v7.75h-7.75zm-8 0h7.75v7.75h-7.75zm-8 0h7.75v7.75h-7.75zm-8 0h7.75v7.75h-7.75zm-8 0h7.75v7.75h-7.75zm40-8h7.75v7.75h-7.75zm-8 0h7.75v7.75h-7.75zm-8 0h7.75v7.75h-7.75zm-8 0h7.75v7.75h-7.75zm-8 0h7.75v7.75h-7.75zm-8 0h7.75v7.75h-7.75zm40-8h7.75v7.75h-7.75zm-8 0h7.75v7.75h-7.75zm-8 0h7.75v7.75h-7.75zm-8 0h7.75v7.75h-7.75zm-8 0h7.75v7.75h-7.75zm-8 0h7.75v7.75h-7.75zm40-8h7.75v7.75h-7.75zm-8 0h7.75v7.75h-7.75zm-8 0h7.75v7.75h-7.75zm-8 0h7.75v7.75h-7.75zm-8 0h7.75v7.75h-7.75zm-8 0h7.75v7.75h-7.75zm40-8h7.75v7.75h-7.75zm-8 0h7.75v7.75h-7.75zm-8 0h7.75v7.75h-7.75zm-8 0h7.75v7.75h-7.75zm-8 0h7.75v7.75h-7.75zm-8 0h7.75v7.75h-7.75z" stroke="#F6EEFF"/><path stroke="#DAA1DD" d="M296.13 96.13h47.75v47.75h-47.75z"/><path d="M288.13 136.13h7.75v7.75h-7.75zm-8 0h7.75v7.75h-7.75zm-8 0h7.75v7.75h-7.75zm-8 0h7.75v7.75h-7.75zm-8 0h7.75v7.75h-7.75zm-8 0h7.75v7.75h-7.75zm40-8h7.75v7.75h-7.75zm-8 0h7.75v7.75h-7.75zm-8 0h7.75v7.75h-7.75zm-8 0h7.75v7.75h-7.75zm-8 0h7.75v7.75h-7.75zm-8 0h7.75v7.75h-7.75zm40-8h7.75v7.75h-7.75zm-8 0h7.75v7.75h-7.75zm-8 0h7.75v7.75h-7.75zm-8 0h7.75v7.75h-7.75zm-8 0h7.75v7.75h-7.75zm-8 0h7.75v7.75h-7.75zm40-8h7.75v7.75h-7.75zm-8 0h7.75v7.75h-7.75zm-8 0h7.75v7.75h-7.75zm-8 0h7.75v7.75h-7.75zm-8 0h7.75v7.75h-7.75zm-8 0h7.75v7.75h-7.75zm40-8h7.75v7.75h-7.75zm-8 0h7.75v7.75h-7.75zm-8 0h7.75v7.75h-7.75zm-8 0h7.75v7.75h-7.75zm-8 0h7.75v7.75h-7.75zm-8 0h7.75v7.75h-7.75zm40-8h7.75v7.75h-7.75zm-8 0h7.75v7.75h-7.75zm-8 0h7.75v7.75h-7.75zm-8 0h7.75v7.75h-7.75zm-8 0h7.75v7.75h-7.75zm-8 0h7.75v7.75h-7.75z" stroke="#F6EEFF"/><path stroke="#DAA1DD" d="M248.13 96.13h47.75v47.75h-47.75z"/><path d="M240.13 136.13h7.75v7.75h-7.75zm-8 0h7.75v7.75h-7.75zm-8 0h7.75v7.75h-7.75zm-8 0h7.75v7.75h-7.75zm-8 0h7.75v7.75h-7.75zm-8 0h7.75v7.75h-7.75zm40-8h7.75v7.75h-7.75zm-8 0h7.75v7.75h-7.75zm-8 0h7.75v7.75h-7.75zm-8 0h7.75v7.75h-7.75zm-8 0h7.75v7.75h-7.75zm-8 0h7.75v7.75h-7.75zm40-8h7.75v7.75h-7.75zm-8 0h7.75v7.75h-7.75zm-8 0h7.75v7.75h-7.75zm-8 0h7.75v7.75h-7.75zm-8 0h7.75v7.75h-7.75zm-8 0h7.75v7.75h-7.75zm40-8h7.75v7.75h-7.75zm-8 0h7.75v7.75h-7.75zm-8 0h7.75v7.75h-7.75zm-8 0h7.75v7.75h-7.75zm-8 0h7.75v7.75h-7.75zm-8 0h7.75v7.75h-7.75zm40-8h7.75v7.75h-7.75zm-8 0h7.75v7.75h-7.75zm-8 0h7.75v7.75h-7.75zm-8 0h7.75v7.75h-7.75zm-8 0h7.75v7.75h-7.75zm-8 0h7.75v7.75h-7.75zm40-8h7.75v7.75h-7.75zm-8 0h7.75v7.75h-7.75zm-8 0h7.75v7.75h-7.75zm-8 0h7.75v7.75h-7.75zm-8 0h7.75v7.75h-7.75zm-8 0h7.75v7.75h-7.75z" stroke="#F6EEFF"/><path stroke="#DAA1DD" d="M200.13 96.13h47.75v47.75h-47.75z"/><path d="M192.13 136.13h7.75v7.75h-7.75zm-8 0h7.75v7.75h-7.75zm-8 0h7.75v7.75h-7.75zm-8 0h7.75v7.75h-7.75zm-8 0h7.75v7.75h-7.75zm-8 0h7.75v7.75h-7.75zm40-8h7.75v7.75h-7.75zm-8 0h7.75v7.75h-7.75zm-8 0h7.75v7.75h-7.75zm-8 0h7.75v7.75h-7.75zm-8 0h7.75v7.75h-7.75zm-8 0h7.75v7.75h-7.75zm40-8h7.75v7.75h-7.75zm-8 0h7.75v7.75h-7.75zm-8 0h7.75v7.75h-7.75zm-8 0h7.75v7.75h-7.75zm-8 0h7.75v7.75h-7.75zm-8 0h7.75v7.75h-7.75zm40-8h7.75v7.75h-7.75zm-8 0h7.75v7.75h-7.75zm-8 0h7.75v7.75h-7.75zm-8 0h7.75v7.75h-7.75zm-8 0h7.75v7.75h-7.75zm-8 0h7.75v7.75h-7.75zm40-8h7.75v7.75h-7.75zm-8 0h7.75v7.75h-7.75zm-8 0h7.75v7.75h-7.75zm-8 0h7.75v7.75h-7.75zm-8 0h7.75v7.75h-7.75zm-8 0h7.75v7.75h-7.75zm40-8h7.75v7.75h-7.75zm-8 0h7.75v7.75h-7.75zm-8 0h7.75v7.75h-7.75zm-8 0h7.75v7.75h-7.75zm-8 0h7.75v7.75h-7.75zm-8 0h7.75v7.75h-7.75z" stroke="#F6EEFF"/><path stroke="#DAA1DD" d="M152.13 96.13h47.75v47.75h-47.75z"/><path d="M144.13 136.13h7.75v7.75h-7.75zm-8 0h7.75v7.75h-7.75zm-8 0h7.75v7.75h-7.75zm-8 0h7.75v7.75h-7.75zm-8 0h7.75v7.75h-7.75zm-8 0h7.75v7.75h-7.75zm40-8h7.75v7.75h-7.75zm-8 0h7.75v7.75h-7.75zm-8 0h7.75v7.75h-7.75zm-8 0h7.75v7.75h-7.75zm-8 0h7.75v7.75h-7.75zm-8 0h7.75v7.75h-7.75zm40-8h7.75v7.75h-7.75zm-8 0h7.75v7.75h-7.75zm-8 0h7.75v7.75h-7.75zm-8 0h7.75v7.75h-7.75zm-8 0h7.75v7.75h-7.75zm-8 0h7.75v7.75h-7.75zm40-8h7.75v7.75h-7.75zm-8 0h7.75v7.75h-7.75zm-8 0h7.75v7.75h-7.75zm-8 0h7.75v7.75h-7.75zm-8 0h7.75v7.75h-7.75zm-8 0h7.75v7.75h-7.75zm40-8h7.75v7.75h-7.75zm-8 0h7.75v7.75h-7.75zm-8 0h7.75v7.75h-7.75zm-8 0h7.75v7.75h-7.75zm-8 0h7.75v7.75h-7.75zm-8 0h7.75v7.75h-7.75zm40-8h7.75v7.75h-7.75zm-8 0h7.75v7.75h-7.75zm-8 0h7.75v7.75h-7.75zm-8 0h7.75v7.75h-7.75zm-8 0h7.75v7.75h-7.75zm-8 0h7.75v7.75h-7.75z" stroke="#F6EEFF"/><path stroke="#DAA1DD" d="M104.13 96.13h47.75v47.75h-47.75z"/><path d="M96.13 136.13h7.75v7.75h-7.75zm-8 0h7.75v7.75h-7.75zm-8 0h7.75v7.75h-7.75zm-8 0h7.75v7.75h-7.75zm-8 0h7.75v7.75h-7.75zm-8 0h7.75v7.75h-7.75zm40-8h7.75v7.75h-7.75zm-8 0h7.75v7.75h-7.75zm-8 0h7.75v7.75h-7.75zm-8 0h7.75v7.75h-7.75zm-8 0h7.75v7.75h-7.75zm-8 0h7.75v7.75h-7.75zm40-8h7.75v7.75h-7.75zm-8 0h7.75v7.75h-7.75zm-8 0h7.75v7.75h-7.75zm-8 0h7.75v7.75h-7.75zm-8 0h7.75v7.75h-7.75zm-8 0h7.75v7.75h-7.75zm40-8h7.75v7.75h-7.75zm-8 0h7.75v7.75h-7.75zm-8 0h7.75v7.75h-7.75zm-8 0h7.75v7.75h-7.75zm-8 0h7.75v7.75h-7.75zm-8 0h7.75v7.75h-7.75zm40-8h7.75v7.75h-7.75zm-8 0h7.75v7.75h-7.75zm-8 0h7.75v7.75h-7.75zm-8 0h7.75v7.75h-7.75zm-8 0h7.75v7.75h-7.75zm-8 0h7.75v7.75h-7.75zm40-8h7.75v7.75h-7.75zm-8 0h7.75v7.75h-7.75zm-8 0h7.75v7.75h-7.75zm-8 0h7.75v7.75h-7.75zm-8 0h7.75v7.75h-7.75zm-8 0h7.75v7.75h-7.75z" stroke="#F6EEFF"/><path stroke="#DAA1DD" d="M56.13 96.13h47.75v47.75H56.13z"/><path d="M352.13 88.13h7.75v7.75h-7.75zm-8 0h7.75v7.75h-7.75zm8-8h7.75v7.75h-7.75zm-8 0h7.75v7.75h-7.75zm8-8h7.75v7.75h-7.75zm-8 0h7.75v7.75h-7.75zm8-8h7.75v7.75h-7.75zm-8 0h7.75v7.75h-7.75zm8-8h7.75v7.75h-7.75zm-8 0h7.75v7.75h-7.75zm8-8h7.75v7.75h-7.75zm-8 0h7.75v7.75h-7.75z" stroke="#F6EEFF"/><path stroke="#DAA1DD" d="M344.13 48.13h47.75v47.75h-47.75z"/><path d="M336.13 88.13h7.75v7.75h-7.75zm-8 0h7.75v7.75h-7.75zm-8 0h7.75v7.75h-7.75zm-8 0h7.75v7.75h-7.75zm-8 0h7.75v7.75h-7.75zm-8 0h7.75v7.75h-7.75zm40-8h7.75v7.75h-7.75zm-8 0h7.75v7.75h-7.75zm-8 0h7.75v7.75h-7.75zm-8 0h7.75v7.75h-7.75zm-8 0h7.75v7.75h-7.75zm-8 0h7.75v7.75h-7.75zm40-8h7.75v7.75h-7.75zm-8 0h7.75v7.75h-7.75zm-8 0h7.75v7.75h-7.75zm-8 0h7.75v7.75h-7.75zm-8 0h7.75v7.75h-7.75zm-8 0h7.75v7.75h-7.75zm40-8h7.75v7.75h-7.75zm-8 0h7.75v7.75h-7.75zm-8 0h7.75v7.75h-7.75zm-8 0h7.75v7.75h-7.75zm-8 0h7.75v7.75h-7.75zm-8 0h7.75v7.75h-7.75zm40-8h7.75v7.75h-7.75zm-8 0h7.75v7.75h-7.75zm-8 0h7.75v7.75h-7.75zm-8 0h7.75v7.75h-7.75zm-8 0h7.75v7.75h-7.75zm-8 0h7.75v7.75h-7.75zm40-8h7.75v7.75h-7.75zm-8 0h7.75v7.75h-7.75zm-8 0h7.75v7.75h-7.75zm-8 0h7.75v7.75h-7.75zm-8 0h7.75v7.75h-7.75zm-8 0h7.75v7.75h-7.75z" stroke="#F6EEFF"/><path stroke="#DAA1DD" d="M296.13 48.13h47.75v47.75h-47.75z"/><path d="M288.13 88.13h7.75v7.75h-7.75zm-8 0h7.75v7.75h-7.75zm-8 0h7.75v7.75h-7.75zm-8 0h7.75v7.75h-7.75zm-8 0h7.75v7.75h-7.75zm-8 0h7.75v7.75h-7.75zm40-8h7.75v7.75h-7.75zm-8 0h7.75v7.75h-7.75zm-8 0h7.75v7.75h-7.75zm-8 0h7.75v7.75h-7.75zm-8 0h7.75v7.75h-7.75zm-8 0h7.75v7.75h-7.75zm40-8h7.75v7.75h-7.75zm-8 0h7.75v7.75h-7.75zm-8 0h7.75v7.75h-7.75zm-8 0h7.75v7.75h-7.75zm-8 0h7.75v7.75h-7.75zm-8 0h7.75v7.75h-7.75zm40-8h7.75v7.75h-7.75zm-8 0h7.75v7.75h-7.75zm-8 0h7.75v7.75h-7.75zm-8 0h7.75v7.75h-7.75zm-8 0h7.75v7.75h-7.75zm-8 0h7.75v7.75h-7.75zm40-8h7.75v7.75h-7.75zm-8 0h7.75v7.75h-7.75zm-8 0h7.75v7.75h-7.75zm-8 0h7.75v7.75h-7.75zm-8 0h7.75v7.75h-7.75zm-8 0h7.75v7.75h-7.75zm40-8h7.75v7.75h-7.75zm-8 0h7.75v7.75h-7.75zm-8 0h7.75v7.75h-7.75zm-8 0h7.75v7.75h-7.75zm-8 0h7.75v7.75h-7.75zm-8 0h7.75v7.75h-7.75z" stroke="#F6EEFF"/><path stroke="#DAA1DD" d="M248.13 48.13h47.75v47.75h-47.75z"/><path d="M240.13 88.13h7.75v7.75h-7.75zm-8 0h7.75v7.75h-7.75zm-8 0h7.75v7.75h-7.75zm-8 0h7.75v7.75h-7.75zm-8 0h7.75v7.75h-7.75zm-8 0h7.75v7.75h-7.75zm40-8h7.75v7.75h-7.75zm-8 0h7.75v7.75h-7.75zm-8 0h7.75v7.75h-7.75zm-8 0h7.75v7.75h-7.75zm-8 0h7.75v7.75h-7.75zm-8 0h7.75v7.75h-7.75zm40-8h7.75v7.75h-7.75zm-8 0h7.75v7.75h-7.75zm-8 0h7.75v7.75h-7.75zm-8 0h7.75v7.75h-7.75zm-8 0h7.75v7.75h-7.75zm-8 0h7.75v7.75h-7.75zm40-8h7.75v7.75h-7.75zm-8 0h7.75v7.75h-7.75zm-8 0h7.75v7.75h-7.75zm-8 0h7.75v7.75h-7.75zm-8 0h7.75v7.75h-7.75zm-8 0h7.75v7.75h-7.75zm40-8h7.75v7.75h-7.75zm-8 0h7.75v7.75h-7.75zm-8 0h7.75v7.75h-7.75zm-8 0h7.75v7.75h-7.75zm-8 0h7.75v7.75h-7.75zm-8 0h7.75v7.75h-7.75zm40-8h7.75v7.75h-7.75zm-8 0h7.75v7.75h-7.75zm-8 0h7.75v7.75h-7.75zm-8 0h7.75v7.75h-7.75zm-8 0h7.75v7.75h-7.75zm-8 0h7.75v7.75h-7.75z" stroke="#F6EEFF"/><path stroke="#DAA1DD" d="M200.13 48.13h47.75v47.75h-47.75z"/><path d="M192.13 88.13h7.75v7.75h-7.75zm-8 0h7.75v7.75h-7.75zm-8 0h7.75v7.75h-7.75zm-8 0h7.75v7.75h-7.75zm-8 0h7.75v7.75h-7.75zm-8 0h7.75v7.75h-7.75zm40-8h7.75v7.75h-7.75zm-8 0h7.75v7.75h-7.75zm-8 0h7.75v7.75h-7.75zm-8 0h7.75v7.75h-7.75zm-8 0h7.75v7.75h-7.75zm-8 0h7.75v7.75h-7.75zm40-8h7.75v7.75h-7.75zm-8 0h7.75v7.75h-7.75zm-8 0h7.75v7.75h-7.75zm-8 0h7.75v7.75h-7.75zm-8 0h7.75v7.75h-7.75zm-8 0h7.75v7.75h-7.75zm40-8h7.75v7.75h-7.75zm-8 0h7.75v7.75h-7.75zm-8 0h7.75v7.75h-7.75zm-8 0h7.75v7.75h-7.75zm-8 0h7.75v7.75h-7.75zm-8 0h7.75v7.75h-7.75zm40-8h7.75v7.75h-7.75zm-8 0h7.75v7.75h-7.75zm-8 0h7.75v7.75h-7.75zm-8 0h7.75v7.75h-7.75zm-8 0h7.75v7.75h-7.75zm-8 0h7.75v7.75h-7.75zm40-8h7.75v7.75h-7.75zm-8 0h7.75v7.75h-7.75zm-8 0h7.75v7.75h-7.75zm-8 0h7.75v7.75h-7.75zm-8 0h7.75v7.75h-7.75zm-8 0h7.75v7.75h-7.75z" stroke="#F6EEFF"/><path stroke="#DAA1DD" d="M152.13 48.13h47.75v47.75h-47.75z"/><path d="M144.13 88.13h7.75v7.75h-7.75zm-8 0h7.75v7.75h-7.75zm-8 0h7.75v7.75h-7.75zm-8 0h7.75v7.75h-7.75zm-8 0h7.75v7.75h-7.75zm-8 0h7.75v7.75h-7.75zm40-8h7.75v7.75h-7.75zm-8 0h7.75v7.75h-7.75zm-8 0h7.75v7.75h-7.75zm-8 0h7.75v7.75h-7.75zm-8 0h7.75v7.75h-7.75zm-8 0h7.75v7.75h-7.75zm40-8h7.75v7.75h-7.75zm-8 0h7.75v7.75h-7.75zm-8 0h7.75v7.75h-7.75zm-8 0h7.75v7.75h-7.75zm-8 0h7.75v7.75h-7.75zm-8 0h7.75v7.75h-7.75zm40-8h7.75v7.75h-7.75zm-8 0h7.75v7.75h-7.75zm-8 0h7.75v7.75h-7.75zm-8 0h7.75v7.75h-7.75zm-8 0h7.75v7.75h-7.75zm-8 0h7.75v7.75h-7.75zm40-8h7.75v7.75h-7.75zm-8 0h7.75v7.75h-7.75zm-8 0h7.75v7.75h-7.75zm-8 0h7.75v7.75h-7.75zm-8 0h7.75v7.75h-7.75zm-8 0h7.75v7.75h-7.75zm40-8h7.75v7.75h-7.75zm-8 0h7.75v7.75h-7.75zm-8 0h7.75v7.75h-7.75zm-8 0h7.75v7.75h-7.75zm-8 0h7.75v7.75h-7.75zm-8 0h7.75v7.75h-7.75z" stroke="#F6EEFF"/><path stroke="#DAA1DD" d="M104.13 48.13h47.75v47.75h-47.75z"/><path d="M96.13 88.13h7.75v7.75h-7.75zm-8 0h7.75v7.75h-7.75zm-8 0h7.75v7.75h-7.75zm-8 0h7.75v7.75h-7.75zm-8 0h7.75v7.75h-7.75zm-8 0h7.75v7.75h-7.75zm40-8h7.75v7.75h-7.75zm-8 0h7.75v7.75h-7.75zm-8 0h7.75v7.75h-7.75zm-8 0h7.75v7.75h-7.75zm-8 0h7.75v7.75h-7.75zm-8 0h7.75v7.75h-7.75zm40-8h7.75v7.75h-7.75zm-8 0h7.75v7.75h-7.75zm-8 0h7.75v7.75h-7.75zm-8 0h7.75v7.75h-7.75zm-8 0h7.75v7.75h-7.75zm-8 0h7.75v7.75h-7.75zm40-8h7.75v7.75h-7.75zm-8 0h7.75v7.75h-7.75zm-8 0h7.75v7.75h-7.75zm-8 0h7.75v7.75h-7.75zm-8 0h7.75v7.75h-7.75zm-8 0h7.75v7.75h-7.75zm40-8h7.75v7.75h-7.75zm-8 0h7.75v7.75h-7.75zm-8 0h7.75v7.75h-7.75zm-8 0h7.75v7.75h-7.75zm-8 0h7.75v7.75h-7.75zm-8 0h7.75v7.75h-7.75zm40-8h7.75v7.75h-7.75zm-8 0h7.75v7.75h-7.75zm-8 0h7.75v7.75h-7.75zm-8 0h7.75v7.75h-7.75zm-8 0h7.75v7.75h-7.75zm-8 0h7.75v7.75h-7.75z" stroke="#F6EEFF"/><path stroke="#DAA1DD" d="M56.13 48.13h47.75v47.75H56.13z"/><path d="M352.13 40.13h7.75v7.75h-7.75zm-8 0h7.75v7.75h-7.75zm8-8h7.75v7.75h-7.75zm-8 0h7.75v7.75h-7.75zm8-8h7.75v7.75h-7.75zm-8 0h7.75v7.75h-7.75zm8-8h7.75v7.75h-7.75zm-8 0h7.75v7.75h-7.75zm8-8h7.75v7.75h-7.75zm-8 0h7.75v7.75h-7.75zm8-8h7.75v7.75h-7.75zm-8 0h7.75v7.75h-7.75z" stroke="#F6EEFF"/><path stroke="#DAA1DD" d="M344.13.13h47.75v47.75h-47.75z"/><path d="M336.13 40.13h7.75v7.75h-7.75zm-8 0h7.75v7.75h-7.75zm-8 0h7.75v7.75h-7.75zm-8 0h7.75v7.75h-7.75zm-8 0h7.75v7.75h-7.75zm-8 0h7.75v7.75h-7.75zm40-8h7.75v7.75h-7.75zm-8 0h7.75v7.75h-7.75zm-8 0h7.75v7.75h-7.75zm-8 0h7.75v7.75h-7.75zm-8 0h7.75v7.75h-7.75zm-8 0h7.75v7.75h-7.75zm40-8h7.75v7.75h-7.75zm-8 0h7.75v7.75h-7.75zm-8 0h7.75v7.75h-7.75zm-8 0h7.75v7.75h-7.75zm-8 0h7.75v7.75h-7.75zm-8 0h7.75v7.75h-7.75zm40-8h7.75v7.75h-7.75zm-8 0h7.75v7.75h-7.75zm-8 0h7.75v7.75h-7.75zm-8 0h7.75v7.75h-7.75zm-8 0h7.75v7.75h-7.75zm-8 0h7.75v7.75h-7.75zm40-8h7.75v7.75h-7.75zm-8 0h7.75v7.75h-7.75zm-8 0h7.75v7.75h-7.75zm-8 0h7.75v7.75h-7.75zm-8 0h7.75v7.75h-7.75zm-8 0h7.75v7.75h-7.75zm40-8h7.75v7.75h-7.75zm-8 0h7.75v7.75h-7.75zm-8 0h7.75v7.75h-7.75zm-8 0h7.75v7.75h-7.75zm-8 0h7.75v7.75h-7.75zm-8 0h7.75v7.75h-7.75z" stroke="#F6EEFF"/><path stroke="#DAA1DD" d="M296.13.13h47.75v47.75h-47.75z"/><path d="M288.13 40.13h7.75v7.75h-7.75zm-8 0h7.75v7.75h-7.75zm-8 0h7.75v7.75h-7.75zm-8 0h7.75v7.75h-7.75zm-8 0h7.75v7.75h-7.75zm-8 0h7.75v7.75h-7.75zm40-8h7.75v7.75h-7.75zm-8 0h7.75v7.75h-7.75zm-8 0h7.75v7.75h-7.75zm-8 0h7.75v7.75h-7.75zm-8 0h7.75v7.75h-7.75zm-8 0h7.75v7.75h-7.75zm40-8h7.75v7.75h-7.75zm-8 0h7.75v7.75h-7.75zm-8 0h7.75v7.75h-7.75zm-8 0h7.75v7.75h-7.75zm-8 0h7.75v7.75h-7.75zm-8 0h7.75v7.75h-7.75zm40-8h7.75v7.75h-7.75zm-8 0h7.75v7.75h-7.75zm-8 0h7.75v7.75h-7.75zm-8 0h7.75v7.75h-7.75zm-8 0h7.75v7.75h-7.75zm-8 0h7.75v7.75h-7.75zm40-8h7.75v7.75h-7.75zm-8 0h7.75v7.75h-7.75zm-8 0h7.75v7.75h-7.75zm-8 0h7.75v7.75h-7.75zm-8 0h7.75v7.75h-7.75zm-8 0h7.75v7.75h-7.75zm40-8h7.75v7.75h-7.75zm-8 0h7.75v7.75h-7.75zm-8 0h7.75v7.75h-7.75zm-8 0h7.75v7.75h-7.75zm-8 0h7.75v7.75h-7.75zm-8 0h7.75v7.75h-7.75z" stroke="#F6EEFF"/><path stroke="#DAA1DD" d="M248.13.13h47.75v47.75h-47.75z"/><path d="M240.13 40.13h7.75v7.75h-7.75zm-8 0h7.75v7.75h-7.75zm-8 0h7.75v7.75h-7.75zm-8 0h7.75v7.75h-7.75zm-8 0h7.75v7.75h-7.75zm-8 0h7.75v7.75h-7.75zm40-8h7.75v7.75h-7.75zm-8 0h7.75v7.75h-7.75zm-8 0h7.75v7.75h-7.75zm-8 0h7.75v7.75h-7.75zm-8 0h7.75v7.75h-7.75zm-8 0h7.75v7.75h-7.75zm40-8h7.75v7.75h-7.75zm-8 0h7.75v7.75h-7.75zm-8 0h7.75v7.75h-7.75zm-8 0h7.75v7.75h-7.75zm-8 0h7.75v7.75h-7.75zm-8 0h7.75v7.75h-7.75zm40-8h7.75v7.75h-7.75zm-8 0h7.75v7.75h-7.75zm-8 0h7.75v7.75h-7.75zm-8 0h7.75v7.75h-7.75zm-8 0h7.75v7.75h-7.75zm-8 0h7.75v7.75h-7.75zm40-8h7.75v7.75h-7.75zm-8 0h7.75v7.75h-7.75zm-8 0h7.75v7.75h-7.75zm-8 0h7.75v7.75h-7.75zm-8 0h7.75v7.75h-7.75zm-8 0h7.75v7.75h-7.75zm40-8h7.75v7.75h-7.75zm-8 0h7.75v7.75h-7.75zm-8 0h7.75v7.75h-7.75zm-8 0h7.75v7.75h-7.75zm-8 0h7.75v7.75h-7.75zm-8 0h7.75v7.75h-7.75z" stroke="#F6EEFF"/><path stroke="#DAA1DD" d="M200.13.13h47.75v47.75h-47.75z"/><path d="M192.13 40.13h7.75v7.75h-7.75zm-8 0h7.75v7.75h-7.75zm-8 0h7.75v7.75h-7.75zm-8 0h7.75v7.75h-7.75zm-8 0h7.75v7.75h-7.75zm-8 0h7.75v7.75h-7.75zm40-8h7.75v7.75h-7.75zm-8 0h7.75v7.75h-7.75zm-8 0h7.75v7.75h-7.75zm-8 0h7.75v7.75h-7.75zm-8 0h7.75v7.75h-7.75zm-8 0h7.75v7.75h-7.75zm40-8h7.75v7.75h-7.75zm-8 0h7.75v7.75h-7.75zm-8 0h7.75v7.75h-7.75zm-8 0h7.75v7.75h-7.75zm-8 0h7.75v7.75h-7.75zm-8 0h7.75v7.75h-7.75zm40-8h7.75v7.75h-7.75zm-8 0h7.75v7.75h-7.75zm-8 0h7.75v7.75h-7.75zm-8 0h7.75v7.75h-7.75zm-8 0h7.75v7.75h-7.75zm-8 0h7.75v7.75h-7.75zm40-8h7.75v7.75h-7.75zm-8 0h7.75v7.75h-7.75zm-8 0h7.75v7.75h-7.75zm-8 0h7.75v7.75h-7.75zm-8 0h7.75v7.75h-7.75zm-8 0h7.75v7.75h-7.75zm40-8h7.75v7.75h-7.75zm-8 0h7.75v7.75h-7.75zm-8 0h7.75v7.75h-7.75zm-8 0h7.75v7.75h-7.75zm-8 0h7.75v7.75h-7.75zm-8 0h7.75v7.75h-7.75z" stroke="#F6EEFF"/><path stroke="#DAA1DD" d="M152.13.13h47.75v47.75h-47.75z"/><path d="M144.13 40.13h7.75v7.75h-7.75zm-8 0h7.75v7.75h-7.75zm-8 0h7.75v7.75h-7.75zm-8 0h7.75v7.75h-7.75zm-8 0h7.75v7.75h-7.75zm-8 0h7.75v7.75h-7.75zm40-8h7.75v7.75h-7.75zm-8 0h7.75v7.75h-7.75zm-8 0h7.75v7.75h-7.75zm-8 0h7.75v7.75h-7.75zm-8 0h7.75v7.75h-7.75zm-8 0h7.75v7.75h-7.75zm40-8h7.75v7.75h-7.75zm-8 0h7.75v7.75h-7.75zm-8 0h7.75v7.75h-7.75zm-8 0h7.75v7.75h-7.75zm-8 0h7.75v7.75h-7.75zm-8 0h7.75v7.75h-7.75zm40-8h7.75v7.75h-7.75zm-8 0h7.75v7.75h-7.75zm-8 0h7.75v7.75h-7.75zm-8 0h7.75v7.75h-7.75zm-8 0h7.75v7.75h-7.75zm-8 0h7.75v7.75h-7.75zm40-8h7.75v7.75h-7.75zm-8 0h7.75v7.75h-7.75zm-8 0h7.75v7.75h-7.75zm-8 0h7.75v7.75h-7.75zm-8 0h7.75v7.75h-7.75zm-8 0h7.75v7.75h-7.75zm40-8h7.75v7.75h-7.75zm-8 0h7.75v7.75h-7.75zm-8 0h7.75v7.75h-7.75zm-8 0h7.75v7.75h-7.75zm-8 0h7.75v7.75h-7.75zm-8 0h7.75v7.75h-7.75z" stroke="#F6EEFF"/><path stroke="#DAA1DD" d="M104.13.13h47.75v47.75h-47.75z"/><path d="M96.13 40.13h7.75v7.75h-7.75zm-8 0h7.75v7.75h-7.75zm-8 0h7.75v7.75h-7.75zm-8 0h7.75v7.75h-7.75zm-8 0h7.75v7.75h-7.75zm-8 0h7.75v7.75h-7.75zm40-8h7.75v7.75h-7.75zm-8 0h7.75v7.75h-7.75zm-8 0h7.75v7.75h-7.75zm-8 0h7.75v7.75h-7.75zm-8 0h7.75v7.75h-7.75zm-8 0h7.75v7.75h-7.75zm40-8h7.75v7.75h-7.75zm-8 0h7.75v7.75h-7.75zm-8 0h7.75v7.75h-7.75zm-8 0h7.75v7.75h-7.75zm-8 0h7.75v7.75h-7.75zm-8 0h7.75v7.75h-7.75zm40-8h7.75v7.75h-7.75zm-8 0h7.75v7.75h-7.75zm-8 0h7.75v7.75h-7.75zm-8 0h7.75v7.75h-7.75zm-8 0h7.75v7.75h-7.75zm-8 0h7.75v7.75h-7.75zm40-8h7.75v7.75h-7.75zm-8 0h7.75v7.75h-7.75zm-8 0h7.75v7.75h-7.75zm-8 0h7.75v7.75h-7.75zm-8 0h7.75v7.75h-7.75zm-8 0h7.75v7.75h-7.75zm40-8h7.75v7.75h-7.75zm-8 0h7.75v7.75h-7.75zm-8 0h7.75v7.75h-7.75zm-8 0h7.75v7.75h-7.75zm-8 0h7.75v7.75h-7.75zm-8 0h7.75v7.75h-7.75z" stroke="#F6EEFF"/><path stroke="#DAA1DD" d="M56.13.13h47.75v47.75H56.13z"/></g><path fill-opacity=".4" fill="#F92B2B" d="M48 160h8v32h-8z"/><path fill-opacity=".4" fill="#00A4B6" d="M48 88h8v16h-8z"/><path fill-opacity=".4" fill="#FEEA24" d="M48 104h8v56h-8z"/><path d="M9.58 136.2a4.34 4.34 0 0 1-3.76-1.71l.82-.89c.35.45.77.8 1.24 1.04a3.67 3.67 0 0 0 2.7.2 2.2 2.2 0 0 0 1.46-2.11 2.2 2.2 0 0 0-.69-1.68c-.2-.21-.46-.37-.76-.47a3.52 3.52 0 0 0-2.31.08c-.4.16-.78.41-1.14.76l-.98-.33v-5.76h6.53v1.18h-5.2v3.71a3.57 3.57 0 0 1 2.5-.96c.44 0 .87.08 1.27.23a3.13 3.13 0 0 1 1.83 1.73c.2.42.29.9.29 1.45a3.45 3.45 0 0 1-1.1 2.59c-.33.3-.74.53-1.2.7-.46.15-.96.23-1.5.23zm9.56 0c-.75 0-1.39-.16-1.9-.46a3.7 3.7 0 0 1-1.28-1.22c-.33-.5-.56-1.1-.71-1.75a9.42 9.42 0 0 1 .03-4.17 5.3 5.3 0 0 1 .8-1.76c.35-.5.8-.91 1.34-1.22a3.9 3.9 0 0 1 1.94-.45 3.81 3.81 0 0 1 2.96 1.28l-.67.99a3.78 3.78 0 0 0-.93-.78c-.34-.2-.8-.3-1.36-.3-.51 0-.96.11-1.34.35-.37.24-.69.56-.94.95-.25.4-.43.85-.55 1.35-.12.5-.18 1.01-.18 1.53v.21c0 .07 0 .14.02.21a3.54 3.54 0 0 1 1.17-1.1 3.85 3.85 0 0 1 1.85-.56c.48 0 .93.07 1.35.21.43.15.8.36 1.12.64.32.28.57.64.75 1.07a3.78 3.78 0 0 1-.72 3.93c-.32.32-.71.58-1.18.76a4.2 4.2 0 0 1-1.57.28zm-.05-1.2a2.35 2.35 0 0 0 1.84-.74 2.23 2.23 0 0 0 .6-1.5c0-.4-.06-.74-.19-1.03a2 2 0 0 0-1.3-1.15 3.4 3.4 0 0 0-.97-.13c-.53 0-1.04.14-1.51.44s-.86.68-1.16 1.16a4.35 4.35 0 0 0 .7 1.98c.2.29.47.52.8.7.32.19.72.28 1.19.28zm9.58 1.2a3.12 3.12 0 0 1-2.6-1.37v4.11h-1.2v-10.67h1.2v1.15a3.2 3.2 0 0 1 2.6-1.34c.51 0 .98.1 1.4.28.42.19.79.45 1.09.8.3.35.54.77.7 1.27.17.5.25 1.07.25 1.7 0 .63-.08 1.2-.25 1.7-.16.5-.4.92-.7 1.27-.3.36-.67.63-1.09.81-.42.19-.89.28-1.4.28zm-.3-1.08a2.24 2.24 0 0 0 1.82-.85c.22-.26.38-.58.49-.95a4.08 4.08 0 0 0 0-2.38 2.83 2.83 0 0 0-.49-.94 2.24 2.24 0 0 0-1.82-.85c-.48 0-.93.12-1.35.36-.43.24-.74.53-.96.87v3.5c.22.33.53.63.96.87.42.25.87.37 1.35.37zm10.06.88l-2.32-3.17L33.8 136h-1.37l2.96-3.97-2.8-3.76h1.39l2.14 2.95 2.15-2.95h1.39l-2.8 3.76 2.97 3.97h-1.39z" fill="#666"/><path d="M72.9 31.8h-3.39v-8.44H59.45v8.44h-3.4V12.46h3.4v7.91h10.06v-7.91h3.4V31.8zm10.5.35c-4.2 0-7.33-2.93-7.33-7.37 0-4.06 2.96-7.34 7.1-7.34 4.2 0 6.9 3.22 6.9 7.63v.73h-10.8c.23 2.11 1.83 3.85 4.46 3.85 1.37 0 3-.55 3.98-1.53l1.39 2a8.16 8.16 0 0 1-5.68 2.03zm3.72-8.5a3.75 3.75 0 0 0-3.95-3.71c-2.6 0-3.8 2-3.94 3.71h7.89zm17.57 8.15h-3.04v-1.5a5.91 5.91 0 0 1-4.53 1.85c-2.29 0-4.87-1.54-4.87-4.64 0-3.22 2.58-4.56 4.87-4.56 1.89 0 3.51.61 4.53 1.8v-2.09c0-1.62-1.34-2.6-3.28-2.6-1.57 0-2.93.57-4.15 1.76l-1.24-2.11a8.33 8.33 0 0 1 5.88-2.27c3.1 0 5.83 1.31 5.83 5.08v9.28zm-6.38-1.74c1.34 0 2.64-.5 3.34-1.45v-2.12c-.7-.95-2-1.45-3.34-1.45-1.7 0-2.98.99-2.98 2.53 0 1.5 1.27 2.49 2.98 2.49zm23.23 1.74h-3.04v-1.91a5.67 5.67 0 0 1-4.5 2.26c-3.6 0-6.23-2.73-6.23-7.34 0-4.52 2.6-7.37 6.23-7.37 1.74 0 3.36.82 4.5 2.3v-7.28h3.04V31.8zm-6.67-2.35c1.45 0 2.93-.81 3.63-1.86v-5.56a4.6 4.6 0 0 0-3.63-1.89c-2.4 0-3.94 1.94-3.94 4.67 0 2.7 1.53 4.64 3.94 4.64zM127 16.08a1.9 1.9 0 0 1-1.88-1.88 1.88 1.88 0 1 1 1.88 1.88zm1.54 15.72h-3.05v-14h3.05v14zm16.44 0h-3.04v-8.76c0-2.17-1.1-2.9-2.81-2.9-1.57 0-2.9.93-3.6 1.89v9.77h-3.05v-14h3.05v1.9a6.63 6.63 0 0 1 4.93-2.26c3.02 0 4.52 1.63 4.52 4.5v9.86zm9.63 5.68c-2.38 0-4.15-.52-5.86-2.08l1.42-2.2c1.13 1.3 2.59 1.79 4.44 1.79 2 0 4.15-.93 4.15-3.8v-1.68a5.69 5.69 0 0 1-4.5 2.32c-3.56 0-6.2-2.58-6.2-7.2 0-4.52 2.6-7.19 6.2-7.19a5.6 5.6 0 0 1 4.5 2.3v-1.95h3.04v13.28c0 5.05-3.74 6.41-7.19 6.41zm.55-8.35c1.42 0 2.93-.84 3.6-1.88v-5.22a4.55 4.55 0 0 0-3.6-1.89c-2.4 0-3.94 1.8-3.94 4.5s1.53 4.5 3.94 4.5zm27.15 3.02c-5.8 0-9.9-4.24-9.9-10 0-5.78 4.1-10.01 9.9-10.01 5.8 0 9.88 4.23 9.88 10s-4.08 10-9.88 10zm0-3.02c3.88 0 6.4-3.01 6.4-6.99 0-4-2.52-6.99-6.4-6.99-3.92 0-6.41 3-6.41 7 0 3.97 2.5 6.98 6.4 6.98zm25.57 2.67h-3.04v-8.76c0-2.17-1.1-2.9-2.81-2.9-1.57 0-2.9.93-3.6 1.89v9.77h-3.04v-14h3.04v1.9a6.63 6.63 0 0 1 4.93-2.26c3.02 0 4.52 1.63 4.52 4.5v9.86zm10.41.35c-4.2 0-7.33-2.93-7.33-7.37 0-4.06 2.96-7.34 7.1-7.34 4.2 0 6.9 3.22 6.9 7.63v.73h-10.81c.23 2.11 1.83 3.85 4.46 3.85 1.37 0 3-.55 3.98-1.53l1.39 2a8.16 8.16 0 0 1-5.69 2.03zm3.72-8.5a3.75 3.75 0 0 0-3.95-3.71c-2.6 0-3.8 2-3.94 3.71H222z" fill="#1D1D1B"/><path fill-opacity=".4" fill="#FDA92B" d="M48 32h8v40h-8z"/><path d="M11.53 56v-2.7H6.46v-1.1l4.57-6.87h1.83v6.8h1.5v1.17h-1.5V56h-1.33zm0-9.44l-3.75 5.57h3.75v-5.57zm8.24 9.63c-.74 0-1.36-.16-1.87-.5a4.1 4.1 0 0 1-1.27-1.28 5.7 5.7 0 0 1-.72-1.78 8.8 8.8 0 0 1 0-3.92 5.6 5.6 0 0 1 .72-1.77c.33-.52.75-.95 1.27-1.28.5-.33 1.13-.5 1.87-.5.72 0 1.34.17 1.86.5.52.33.94.76 1.27 1.28.32.53.56 1.12.72 1.77a8.52 8.52 0 0 1 0 3.92c-.16.66-.4 1.25-.72 1.78a4 4 0 0 1-1.27 1.29 3.4 3.4 0 0 1-1.86.5zm0-1.18c.51 0 .94-.13 1.29-.38.34-.25.62-.58.84-.99.2-.41.36-.87.45-1.4a9.11 9.11 0 0 0 0-3.14 4.7 4.7 0 0 0-.45-1.39 2.8 2.8 0 0 0-.84-.98 2.14 2.14 0 0 0-1.3-.38c-.5 0-.93.13-1.28.38a2.8 2.8 0 0 0-.84.98c-.21.4-.37.87-.46 1.39a9.11 9.11 0 0 0 0 3.15c.1.52.25.98.46 1.39.21.41.5.74.84 1 .35.24.78.37 1.29.37zm9.9 1.18a3.12 3.12 0 0 1-2.6-1.36v4.11h-1.2V48.27h1.2v1.15a3.2 3.2 0 0 1 2.6-1.34c.51 0 .98.1 1.4.28.42.19.79.45 1.09.8.3.35.54.77.7 1.27.17.5.25 1.07.25 1.7 0 .63-.08 1.2-.25 1.7-.16.5-.4.92-.7 1.27-.3.36-.67.63-1.09.81-.42.19-.89.28-1.4.28zm-.3-1.07a2.24 2.24 0 0 0 1.82-.85c.22-.26.38-.58.49-.95a4.08 4.08 0 0 0 0-2.38 2.83 2.83 0 0 0-.49-.94 2.24 2.24 0 0 0-1.82-.85c-.48 0-.93.12-1.35.36-.43.24-.74.53-.96.87v3.5c.22.33.53.63.96.87.42.25.87.37 1.35.37zm10.06.88l-2.32-3.17L34.8 56h-1.37l2.96-3.97-2.8-3.76h1.39l2.14 2.95 2.15-2.95h1.39l-2.8 3.76L40.82 56h-1.39zm-27.8 45v-8.91l-1.71 1.8-.8-.81 2.67-2.75h1.17V101h-1.33zm7.5.2c-.74 0-1.38-.16-1.9-.46a3.7 3.7 0 0 1-1.27-1.22c-.33-.5-.56-1.1-.71-1.75a9.42 9.42 0 0 1 .03-4.17 5.3 5.3 0 0 1 .8-1.76c.35-.5.8-.91 1.34-1.22a3.9 3.9 0 0 1 1.94-.45 3.81 3.81 0 0 1 2.96 1.28l-.67.99a3.78 3.78 0 0 0-.93-.78c-.34-.2-.8-.3-1.36-.3-.51 0-.96.11-1.34.35-.37.24-.69.56-.94.95-.25.4-.43.85-.55 1.35-.12.5-.18 1.01-.18 1.53v.21c0 .07 0 .14.02.21a3.54 3.54 0 0 1 1.17-1.1 3.85 3.85 0 0 1 1.85-.56c.48 0 .93.07 1.35.21.43.15.8.36 1.12.64.32.28.57.64.75 1.07a3.78 3.78 0 0 1-.72 3.93c-.32.32-.71.58-1.18.76a4.2 4.2 0 0 1-1.57.28zm-.04-1.2a2.35 2.35 0 0 0 1.84-.74 2.23 2.23 0 0 0 .6-1.5c0-.4-.06-.74-.19-1.03a2 2 0 0 0-1.3-1.15 3.4 3.4 0 0 0-.97-.13c-.53 0-1.04.14-1.51.44s-.86.68-1.16 1.16a4.35 4.35 0 0 0 .7 1.98c.2.29.47.52.8.7.32.19.72.28 1.19.28zm9.58 1.2a3.12 3.12 0 0 1-2.6-1.37v4.11h-1.2V93.27h1.2v1.15a3.2 3.2 0 0 1 2.6-1.34c.51 0 .98.1 1.4.28.42.19.79.45 1.09.8.3.35.54.77.7 1.27.17.5.25 1.07.25 1.7 0 .63-.08 1.2-.25 1.7-.16.5-.4.92-.7 1.27-.3.36-.67.63-1.09.81-.42.19-.89.28-1.4.28zm-.3-1.08a2.24 2.24 0 0 0 1.82-.85c.22-.26.38-.58.49-.95a4.08 4.08 0 0 0 0-2.38 2.83 2.83 0 0 0-.49-.94 2.24 2.24 0 0 0-1.82-.85c-.48 0-.93.12-1.35.36-.43.24-.74.53-.96.87v3.5c.22.33.53.63.96.87.42.25.87.37 1.35.37zm10.06.88l-2.32-3.17L33.8 101h-1.37l2.96-3.97-2.8-3.76h1.39l2.14 2.95 2.15-2.95h1.39l-2.8 3.76 2.97 3.97h-1.39zM9.6 181.2c-.9 0-1.68-.18-2.33-.53a4.06 4.06 0 0 1-1.46-1.24l.78-.83c.31.42.72.75 1.24 1.02.52.26 1.1.39 1.74.39.78 0 1.39-.18 1.83-.54.44-.36.66-.84.66-1.46 0-.33-.06-.62-.19-.86s-.3-.43-.54-.58a2.66 2.66 0 0 0-.84-.34 4.83 4.83 0 0 0-1.08-.11h-.66c-.21 0-.36 0-.45.02v-1.22l.46.02h.65c.33 0 .65-.04.95-.1.3-.08.57-.18.8-.33a1.5 1.5 0 0 0 .74-1.34c-.01-.3-.08-.55-.2-.78a1.8 1.8 0 0 0-.52-.57 2.32 2.32 0 0 0-.76-.35c-.29-.08-.6-.12-.92-.12-.58 0-1.1.11-1.55.33a4.3 4.3 0 0 0-1.26.97l-.74-.83a4.65 4.65 0 0 1 3.65-1.65c.51 0 .99.06 1.43.19.44.13.83.31 1.15.55a2.57 2.57 0 0 1 1.04 2.1 2.23 2.23 0 0 1-.77 1.75 3.22 3.22 0 0 1-1.54.74 2.86 2.86 0 0 1 1.6.7 2.4 2.4 0 0 1 .86 1.92 2.73 2.73 0 0 1-1 2.2c-.32.27-.72.49-1.19.64-.47.15-1 .23-1.58.23zm5.52-.2v-1.06c.96-.75 1.8-1.44 2.54-2.05.74-.62 1.36-1.19 1.86-1.71.5-.53.88-1.03 1.14-1.5.25-.46.38-.92.38-1.38a1.81 1.81 0 0 0-.7-1.49 2.3 2.3 0 0 0-.7-.35 3.74 3.74 0 0 0-2.51.26c-.5.25-.9.57-1.21.98l-.82-.85c.4-.55.94-.96 1.6-1.25a5.21 5.21 0 0 1 3.43-.24c.42.13.8.32 1.14.58a2.92 2.92 0 0 1 1.13 2.36c0 .55-.13 1.08-.4 1.61a7.39 7.39 0 0 1-1.08 1.59 17.5 17.5 0 0 1-1.64 1.61 50.7 50.7 0 0 1-2.06 1.7h5.23V181h-7.33zm13.55.2a3.12 3.12 0 0 1-2.6-1.37v4.11h-1.2v-10.67h1.2v1.15a3.2 3.2 0 0 1 2.6-1.34c.51 0 .98.1 1.4.28.42.19.79.45 1.09.8.3.35.54.77.7 1.27.17.5.25 1.07.25 1.7 0 .63-.08 1.2-.25 1.7-.16.5-.4.92-.7 1.27-.3.36-.67.63-1.09.81-.42.19-.89.28-1.4.28zm-.3-1.08a2.24 2.24 0 0 0 1.82-.85c.22-.26.38-.58.49-.95a4.08 4.08 0 0 0 0-2.38 2.83 2.83 0 0 0-.49-.94 2.24 2.24 0 0 0-1.82-.85c-.48 0-.93.12-1.35.36-.43.24-.74.53-.96.87v3.5c.22.33.53.63.96.87.42.25.87.37 1.35.37zm10.06.88l-2.32-3.17L33.8 181h-1.37l2.96-3.97-2.8-3.76h1.39l2.14 2.95 2.15-2.95h1.39l-2.8 3.76 2.97 3.97h-1.39z" fill="#666"/><g transform="translate(55 73)"><use fill="#FFF" xlink:href="#a"/><rect stroke="#1D1D1B" x="1.5" y="31.5" width="295" height="55" rx="2"/></g><path d="M56.25 88V77.33h1.33v9.49h4.96V88h-6.3zm12.72 0v-.88a3.3 3.3 0 0 1-2.56 1.07 3 3 0 0 1-.98-.16 2.57 2.57 0 0 1-1.49-1.3 2.44 2.44 0 0 1-.24-1.1 2.47 2.47 0 0 1 .87-1.92c.25-.21.54-.37.86-.47a3.91 3.91 0 0 1 2.42.1c.44.17.8.44 1.12.8v-1.39c0-.52-.19-.92-.55-1.2a2.23 2.23 0 0 0-1.4-.43c-.91 0-1.7.36-2.37 1.07l-.56-.83a4.1 4.1 0 0 1 3.09-1.28c.4 0 .79.05 1.15.14.36.1.68.25.95.46.27.2.49.48.65.8.16.34.24.74.24 1.2V88h-1.2zm-2.13-.67a3 3 0 0 0 1.2-.24c.39-.16.7-.4.93-.72V84.9a2.16 2.16 0 0 0-.92-.72 3.07 3.07 0 0 0-1.21-.24c-.57 0-1.02.16-1.38.47-.35.32-.52.73-.52 1.23 0 .49.17.9.52 1.2.36.32.81.48 1.38.48zm6.93-1.43c.21.35.53.63.95.87a2.74 2.74 0 0 0 2.4.13c.32-.15.58-.36.8-.63.2-.26.37-.58.48-.94a4.08 4.08 0 0 0 0-2.38 2.82 2.82 0 0 0-.49-.95 2.24 2.24 0 0 0-1.84-.85c-.48 0-.93.12-1.35.37-.42.25-.74.54-.95.88v3.5zm-1.2 2.1V77.33h1.2v4.11c.3-.43.69-.76 1.13-1a3.3 3.3 0 0 1 2.86-.07c.42.19.78.46 1.09.81.3.36.54.78.71 1.28.17.5.26 1.07.26 1.68 0 .63-.09 1.2-.26 1.7s-.4.93-.71 1.27c-.3.35-.67.62-1.09.8a3.38 3.38 0 0 1-2.88-.1 3.38 3.38 0 0 1-1.11-.96V88h-1.2zm12.69.2c-.58 0-1.1-.1-1.59-.3a3.63 3.63 0 0 1-2.05-2.12 4.44 4.44 0 0 1-.01-3.23 3.76 3.76 0 0 1 5.09-2.15 3.69 3.69 0 0 1 1.89 2.2c.17.5.25 1.05.25 1.62v.3h-6.26c.03.37.1.71.24 1.04a2.66 2.66 0 0 0 2.55 1.64 3.38 3.38 0 0 0 2.38-.98l.58.79c-.39.38-.83.68-1.35.88-.5.2-1.08.3-1.72.3zm2.4-4.55a2.8 2.8 0 0 0-.62-1.72 2.42 2.42 0 0 0-1.93-.86 2.34 2.34 0 0 0-1.86.85 2.9 2.9 0 0 0-.66 1.73h5.07zM90.78 88V77.33h1.2V88h-1.2zM56.25 208v-10.67h1.33v9.49h4.96V208h-6.3zm12.72 0v-.88a3.3 3.3 0 0 1-2.56 1.07 3 3 0 0 1-.98-.16 2.57 2.57 0 0 1-1.49-1.3 2.44 2.44 0 0 1-.24-1.1 2.47 2.47 0 0 1 .87-1.92c.25-.21.54-.37.86-.47a3.91 3.91 0 0 1 2.42.1c.44.17.8.44 1.12.8v-1.39c0-.52-.19-.92-.55-1.2a2.23 2.23 0 0 0-1.4-.43c-.91 0-1.7.36-2.37 1.07l-.56-.83a4.1 4.1 0 0 1 3.09-1.28c.4 0 .79.05 1.15.14.36.1.68.25.95.46.27.2.49.48.65.8.16.34.24.74.24 1.2V208h-1.2zm-2.13-.67a3 3 0 0 0 1.2-.24c.39-.16.7-.4.93-.72v-1.46a2.16 2.16 0 0 0-.92-.72 3.07 3.07 0 0 0-1.21-.24c-.57 0-1.02.16-1.38.47-.35.32-.52.73-.52 1.23 0 .49.17.9.52 1.2.36.32.81.48 1.38.48zm6.93-1.43c.21.35.53.63.95.87a2.74 2.74 0 0 0 2.4.13c.32-.15.58-.36.8-.63.2-.26.37-.58.48-.94a4.08 4.08 0 0 0 0-2.38 2.82 2.82 0 0 0-.49-.95 2.24 2.24 0 0 0-1.84-.85c-.48 0-.93.12-1.35.37-.42.25-.74.54-.95.88v3.5zm-1.2 2.1v-10.67h1.2v4.11c.3-.43.69-.76 1.13-1a3.3 3.3 0 0 1 2.86-.07c.42.19.78.46 1.09.81.3.36.54.78.71 1.28.17.5.26 1.07.26 1.68 0 .63-.09 1.2-.26 1.7s-.4.93-.71 1.27c-.3.35-.67.62-1.09.8a3.38 3.38 0 0 1-2.88-.1 3.38 3.38 0 0 1-1.11-.96V208h-1.2zm12.69.2c-.58 0-1.1-.1-1.59-.3a3.63 3.63 0 0 1-2.05-2.12 4.44 4.44 0 0 1-.01-3.23 3.76 3.76 0 0 1 5.09-2.15 3.69 3.69 0 0 1 1.89 2.2c.17.5.25 1.05.25 1.62v.3h-6.26c.03.37.1.71.24 1.04a2.66 2.66 0 0 0 2.55 1.64 3.38 3.38 0 0 0 2.38-.98l.58.79c-.39.38-.83.68-1.35.88-.5.2-1.08.3-1.72.3zm2.4-4.55a2.8 2.8 0 0 0-.62-1.72 2.42 2.42 0 0 0-1.93-.86 2.34 2.34 0 0 0-1.86.85 2.9 2.9 0 0 0-.66 1.73h5.07zm3.12 4.35v-10.67h1.2V208h-1.2z" fill="#1D1D1B"/></g></svg>
