<svg width="360" height="216" xmlns="http://www.w3.org/2000/svg" xmlns:xlink="http://www.w3.org/1999/xlink"><defs><rect id="a" x="1" y="31" width="296" height="56" rx="2"/></defs><g fill="none" fill-rule="evenodd"><g stroke="#F6EEFF" stroke-width=".25"><path d="M352.125 208.125h7.75v7.75h-7.75zM344.125 208.125h7.75v7.75h-7.75zM352.125 200.125h7.75v7.75h-7.75zM344.125 200.125h7.75v7.75h-7.75zM352.125 192.125h7.75v7.75h-7.75zM344.125 192.125h7.75v7.75h-7.75zM336.125 208.125h7.75v7.75h-7.75zM328.125 208.125h7.75v7.75h-7.75zM320.125 208.125h7.75v7.75h-7.75zM312.125 208.125h7.75v7.75h-7.75zM304.125 208.125h7.75v7.75h-7.75zM296.125 208.125h7.75v7.75h-7.75zM336.125 200.125h7.75v7.75h-7.75zM328.125 200.125h7.75v7.75h-7.75zM320.125 200.125h7.75v7.75h-7.75zM312.125 200.125h7.75v7.75h-7.75zM304.125 200.125h7.75v7.75h-7.75zM296.125 200.125h7.75v7.75h-7.75zM336.125 192.125h7.75v7.75h-7.75zM328.125 192.125h7.75v7.75h-7.75zM320.125 192.125h7.75v7.75h-7.75zM312.125 192.125h7.75v7.75h-7.75zM304.125 192.125h7.75v7.75h-7.75zM296.125 192.125h7.75v7.75h-7.75zM288.125 208.125h7.75v7.75h-7.75zM280.125 208.125h7.75v7.75h-7.75zM272.125 208.125h7.75v7.75h-7.75zM264.125 208.125h7.75v7.75h-7.75zM256.125 208.125h7.75v7.75h-7.75zM248.125 208.125h7.75v7.75h-7.75zM288.125 200.125h7.75v7.75h-7.75zM280.125 200.125h7.75v7.75h-7.75zM272.125 200.125h7.75v7.75h-7.75zM264.125 200.125h7.75v7.75h-7.75zM256.125 200.125h7.75v7.75h-7.75zM248.125 200.125h7.75v7.75h-7.75zM288.125 192.125h7.75v7.75h-7.75zM280.125 192.125h7.75v7.75h-7.75zM272.125 192.125h7.75v7.75h-7.75zM264.125 192.125h7.75v7.75h-7.75zM256.125 192.125h7.75v7.75h-7.75zM248.125 192.125h7.75v7.75h-7.75z"/><g><path d="M240.125 208.125h7.75v7.75h-7.75zM232.125 208.125h7.75v7.75h-7.75zM224.125 208.125h7.75v7.75h-7.75zM216.125 208.125h7.75v7.75h-7.75zM208.125 208.125h7.75v7.75h-7.75zM200.125 208.125h7.75v7.75h-7.75zM240.125 200.125h7.75v7.75h-7.75zM232.125 200.125h7.75v7.75h-7.75zM224.125 200.125h7.75v7.75h-7.75zM216.125 200.125h7.75v7.75h-7.75zM208.125 200.125h7.75v7.75h-7.75zM200.125 200.125h7.75v7.75h-7.75zM240.125 192.125h7.75v7.75h-7.75zM232.125 192.125h7.75v7.75h-7.75zM224.125 192.125h7.75v7.75h-7.75zM216.125 192.125h7.75v7.75h-7.75zM208.125 192.125h7.75v7.75h-7.75zM200.125 192.125h7.75v7.75h-7.75z"/></g><g><path d="M192.125 208.125h7.75v7.75h-7.75zM184.125 208.125h7.75v7.75h-7.75zM176.125 208.125h7.75v7.75h-7.75zM168.125 208.125h7.75v7.75h-7.75zM160.125 208.125h7.75v7.75h-7.75zM152.125 208.125h7.75v7.75h-7.75zM192.125 200.125h7.75v7.75h-7.75zM184.125 200.125h7.75v7.75h-7.75zM176.125 200.125h7.75v7.75h-7.75zM168.125 200.125h7.75v7.75h-7.75zM160.125 200.125h7.75v7.75h-7.75zM152.125 200.125h7.75v7.75h-7.75zM192.125 192.125h7.75v7.75h-7.75zM184.125 192.125h7.75v7.75h-7.75zM176.125 192.125h7.75v7.75h-7.75zM168.125 192.125h7.75v7.75h-7.75zM160.125 192.125h7.75v7.75h-7.75zM152.125 192.125h7.75v7.75h-7.75z"/></g><g><path d="M144.125 208.125h7.75v7.75h-7.75zM136.125 208.125h7.75v7.75h-7.75zM128.125 208.125h7.75v7.75h-7.75zM120.125 208.125h7.75v7.75h-7.75zM112.125 208.125h7.75v7.75h-7.75zM104.125 208.125h7.75v7.75h-7.75zM144.125 200.125h7.75v7.75h-7.75zM136.125 200.125h7.75v7.75h-7.75zM128.125 200.125h7.75v7.75h-7.75zM120.125 200.125h7.75v7.75h-7.75zM112.125 200.125h7.75v7.75h-7.75zM104.125 200.125h7.75v7.75h-7.75zM144.125 192.125h7.75v7.75h-7.75zM136.125 192.125h7.75v7.75h-7.75zM128.125 192.125h7.75v7.75h-7.75zM120.125 192.125h7.75v7.75h-7.75zM112.125 192.125h7.75v7.75h-7.75zM104.125 192.125h7.75v7.75h-7.75z"/></g><g><path d="M96.125 208.125h7.75v7.75h-7.75zM88.125 208.125h7.75v7.75h-7.75zM80.125 208.125h7.75v7.75h-7.75zM72.125 208.125h7.75v7.75h-7.75zM64.125 208.125h7.75v7.75h-7.75zM56.125 208.125h7.75v7.75h-7.75zM96.125 200.125h7.75v7.75h-7.75zM88.125 200.125h7.75v7.75h-7.75zM80.125 200.125h7.75v7.75h-7.75zM72.125 200.125h7.75v7.75h-7.75zM64.125 200.125h7.75v7.75h-7.75zM56.125 200.125h7.75v7.75h-7.75zM96.125 192.125h7.75v7.75h-7.75zM88.125 192.125h7.75v7.75h-7.75zM80.125 192.125h7.75v7.75h-7.75zM72.125 192.125h7.75v7.75h-7.75zM64.125 192.125h7.75v7.75h-7.75zM56.125 192.125h7.75v7.75h-7.75z"/></g><g><path d="M352.125 184.125h7.75v7.75h-7.75zM344.125 184.125h7.75v7.75h-7.75zM352.125 176.125h7.75v7.75h-7.75zM344.125 176.125h7.75v7.75h-7.75zM352.125 168.125h7.75v7.75h-7.75zM344.125 168.125h7.75v7.75h-7.75zM352.125 160.125h7.75v7.75h-7.75zM344.125 160.125h7.75v7.75h-7.75zM352.125 152.125h7.75v7.75h-7.75zM344.125 152.125h7.75v7.75h-7.75zM352.125 144.125h7.75v7.75h-7.75zM344.125 144.125h7.75v7.75h-7.75z"/></g><g><path d="M336.125 184.125h7.75v7.75h-7.75zM328.125 184.125h7.75v7.75h-7.75zM320.125 184.125h7.75v7.75h-7.75zM312.125 184.125h7.75v7.75h-7.75zM304.125 184.125h7.75v7.75h-7.75zM296.125 184.125h7.75v7.75h-7.75zM336.125 176.125h7.75v7.75h-7.75zM328.125 176.125h7.75v7.75h-7.75zM320.125 176.125h7.75v7.75h-7.75zM312.125 176.125h7.75v7.75h-7.75zM304.125 176.125h7.75v7.75h-7.75zM296.125 176.125h7.75v7.75h-7.75zM336.125 168.125h7.75v7.75h-7.75zM328.125 168.125h7.75v7.75h-7.75zM320.125 168.125h7.75v7.75h-7.75zM312.125 168.125h7.75v7.75h-7.75zM304.125 168.125h7.75v7.75h-7.75zM296.125 168.125h7.75v7.75h-7.75zM336.125 160.125h7.75v7.75h-7.75zM328.125 160.125h7.75v7.75h-7.75zM320.125 160.125h7.75v7.75h-7.75zM312.125 160.125h7.75v7.75h-7.75zM304.125 160.125h7.75v7.75h-7.75zM296.125 160.125h7.75v7.75h-7.75zM336.125 152.125h7.75v7.75h-7.75zM328.125 152.125h7.75v7.75h-7.75zM320.125 152.125h7.75v7.75h-7.75zM312.125 152.125h7.75v7.75h-7.75zM304.125 152.125h7.75v7.75h-7.75zM296.125 152.125h7.75v7.75h-7.75zM336.125 144.125h7.75v7.75h-7.75zM328.125 144.125h7.75v7.75h-7.75zM320.125 144.125h7.75v7.75h-7.75zM312.125 144.125h7.75v7.75h-7.75zM304.125 144.125h7.75v7.75h-7.75zM296.125 144.125h7.75v7.75h-7.75z"/></g><g><path d="M288.125 184.125h7.75v7.75h-7.75zM280.125 184.125h7.75v7.75h-7.75zM272.125 184.125h7.75v7.75h-7.75zM264.125 184.125h7.75v7.75h-7.75zM256.125 184.125h7.75v7.75h-7.75zM248.125 184.125h7.75v7.75h-7.75zM288.125 176.125h7.75v7.75h-7.75zM280.125 176.125h7.75v7.75h-7.75zM272.125 176.125h7.75v7.75h-7.75zM264.125 176.125h7.75v7.75h-7.75zM256.125 176.125h7.75v7.75h-7.75zM248.125 176.125h7.75v7.75h-7.75zM288.125 168.125h7.75v7.75h-7.75zM280.125 168.125h7.75v7.75h-7.75zM272.125 168.125h7.75v7.75h-7.75zM264.125 168.125h7.75v7.75h-7.75zM256.125 168.125h7.75v7.75h-7.75zM248.125 168.125h7.75v7.75h-7.75zM288.125 160.125h7.75v7.75h-7.75zM280.125 160.125h7.75v7.75h-7.75zM272.125 160.125h7.75v7.75h-7.75zM264.125 160.125h7.75v7.75h-7.75zM256.125 160.125h7.75v7.75h-7.75zM248.125 160.125h7.75v7.75h-7.75zM288.125 152.125h7.75v7.75h-7.75zM280.125 152.125h7.75v7.75h-7.75zM272.125 152.125h7.75v7.75h-7.75zM264.125 152.125h7.75v7.75h-7.75zM256.125 152.125h7.75v7.75h-7.75zM248.125 152.125h7.75v7.75h-7.75zM288.125 144.125h7.75v7.75h-7.75zM280.125 144.125h7.75v7.75h-7.75zM272.125 144.125h7.75v7.75h-7.75zM264.125 144.125h7.75v7.75h-7.75zM256.125 144.125h7.75v7.75h-7.75zM248.125 144.125h7.75v7.75h-7.75z"/></g><g><path d="M240.125 184.125h7.75v7.75h-7.75zM232.125 184.125h7.75v7.75h-7.75zM224.125 184.125h7.75v7.75h-7.75zM216.125 184.125h7.75v7.75h-7.75zM208.125 184.125h7.75v7.75h-7.75zM200.125 184.125h7.75v7.75h-7.75zM240.125 176.125h7.75v7.75h-7.75zM232.125 176.125h7.75v7.75h-7.75zM224.125 176.125h7.75v7.75h-7.75zM216.125 176.125h7.75v7.75h-7.75zM208.125 176.125h7.75v7.75h-7.75zM200.125 176.125h7.75v7.75h-7.75zM240.125 168.125h7.75v7.75h-7.75zM232.125 168.125h7.75v7.75h-7.75zM224.125 168.125h7.75v7.75h-7.75zM216.125 168.125h7.75v7.75h-7.75zM208.125 168.125h7.75v7.75h-7.75zM200.125 168.125h7.75v7.75h-7.75zM240.125 160.125h7.75v7.75h-7.75zM232.125 160.125h7.75v7.75h-7.75zM224.125 160.125h7.75v7.75h-7.75zM216.125 160.125h7.75v7.75h-7.75zM208.125 160.125h7.75v7.75h-7.75zM200.125 160.125h7.75v7.75h-7.75zM240.125 152.125h7.75v7.75h-7.75zM232.125 152.125h7.75v7.75h-7.75zM224.125 152.125h7.75v7.75h-7.75zM216.125 152.125h7.75v7.75h-7.75zM208.125 152.125h7.75v7.75h-7.75zM200.125 152.125h7.75v7.75h-7.75zM240.125 144.125h7.75v7.75h-7.75zM232.125 144.125h7.75v7.75h-7.75zM224.125 144.125h7.75v7.75h-7.75zM216.125 144.125h7.75v7.75h-7.75zM208.125 144.125h7.75v7.75h-7.75zM200.125 144.125h7.75v7.75h-7.75z"/></g><g><path d="M192.125 184.125h7.75v7.75h-7.75zM184.125 184.125h7.75v7.75h-7.75zM176.125 184.125h7.75v7.75h-7.75zM168.125 184.125h7.75v7.75h-7.75zM160.125 184.125h7.75v7.75h-7.75zM152.125 184.125h7.75v7.75h-7.75zM192.125 176.125h7.75v7.75h-7.75zM184.125 176.125h7.75v7.75h-7.75zM176.125 176.125h7.75v7.75h-7.75zM168.125 176.125h7.75v7.75h-7.75zM160.125 176.125h7.75v7.75h-7.75zM152.125 176.125h7.75v7.75h-7.75zM192.125 168.125h7.75v7.75h-7.75zM184.125 168.125h7.75v7.75h-7.75zM176.125 168.125h7.75v7.75h-7.75zM168.125 168.125h7.75v7.75h-7.75zM160.125 168.125h7.75v7.75h-7.75zM152.125 168.125h7.75v7.75h-7.75zM192.125 160.125h7.75v7.75h-7.75zM184.125 160.125h7.75v7.75h-7.75zM176.125 160.125h7.75v7.75h-7.75zM168.125 160.125h7.75v7.75h-7.75zM160.125 160.125h7.75v7.75h-7.75zM152.125 160.125h7.75v7.75h-7.75zM192.125 152.125h7.75v7.75h-7.75zM184.125 152.125h7.75v7.75h-7.75zM176.125 152.125h7.75v7.75h-7.75zM168.125 152.125h7.75v7.75h-7.75zM160.125 152.125h7.75v7.75h-7.75zM152.125 152.125h7.75v7.75h-7.75zM192.125 144.125h7.75v7.75h-7.75zM184.125 144.125h7.75v7.75h-7.75zM176.125 144.125h7.75v7.75h-7.75zM168.125 144.125h7.75v7.75h-7.75zM160.125 144.125h7.75v7.75h-7.75zM152.125 144.125h7.75v7.75h-7.75z"/></g><g><path d="M144.125 184.125h7.75v7.75h-7.75zM136.125 184.125h7.75v7.75h-7.75zM128.125 184.125h7.75v7.75h-7.75zM120.125 184.125h7.75v7.75h-7.75zM112.125 184.125h7.75v7.75h-7.75zM104.125 184.125h7.75v7.75h-7.75zM144.125 176.125h7.75v7.75h-7.75zM136.125 176.125h7.75v7.75h-7.75zM128.125 176.125h7.75v7.75h-7.75zM120.125 176.125h7.75v7.75h-7.75zM112.125 176.125h7.75v7.75h-7.75zM104.125 176.125h7.75v7.75h-7.75zM144.125 168.125h7.75v7.75h-7.75zM136.125 168.125h7.75v7.75h-7.75zM128.125 168.125h7.75v7.75h-7.75zM120.125 168.125h7.75v7.75h-7.75zM112.125 168.125h7.75v7.75h-7.75zM104.125 168.125h7.75v7.75h-7.75zM144.125 160.125h7.75v7.75h-7.75zM136.125 160.125h7.75v7.75h-7.75zM128.125 160.125h7.75v7.75h-7.75zM120.125 160.125h7.75v7.75h-7.75zM112.125 160.125h7.75v7.75h-7.75zM104.125 160.125h7.75v7.75h-7.75zM144.125 152.125h7.75v7.75h-7.75zM136.125 152.125h7.75v7.75h-7.75zM128.125 152.125h7.75v7.75h-7.75zM120.125 152.125h7.75v7.75h-7.75zM112.125 152.125h7.75v7.75h-7.75zM104.125 152.125h7.75v7.75h-7.75zM144.125 144.125h7.75v7.75h-7.75zM136.125 144.125h7.75v7.75h-7.75zM128.125 144.125h7.75v7.75h-7.75zM120.125 144.125h7.75v7.75h-7.75zM112.125 144.125h7.75v7.75h-7.75zM104.125 144.125h7.75v7.75h-7.75z"/></g><g><path d="M96.125 184.125h7.75v7.75h-7.75zM88.125 184.125h7.75v7.75h-7.75zM80.125 184.125h7.75v7.75h-7.75zM72.125 184.125h7.75v7.75h-7.75zM64.125 184.125h7.75v7.75h-7.75zM56.125 184.125h7.75v7.75h-7.75zM96.125 176.125h7.75v7.75h-7.75zM88.125 176.125h7.75v7.75h-7.75zM80.125 176.125h7.75v7.75h-7.75zM72.125 176.125h7.75v7.75h-7.75zM64.125 176.125h7.75v7.75h-7.75zM56.125 176.125h7.75v7.75h-7.75zM96.125 168.125h7.75v7.75h-7.75zM88.125 168.125h7.75v7.75h-7.75zM80.125 168.125h7.75v7.75h-7.75zM72.125 168.125h7.75v7.75h-7.75zM64.125 168.125h7.75v7.75h-7.75zM56.125 168.125h7.75v7.75h-7.75zM96.125 160.125h7.75v7.75h-7.75zM88.125 160.125h7.75v7.75h-7.75zM80.125 160.125h7.75v7.75h-7.75zM72.125 160.125h7.75v7.75h-7.75zM64.125 160.125h7.75v7.75h-7.75zM56.125 160.125h7.75v7.75h-7.75zM96.125 152.125h7.75v7.75h-7.75zM88.125 152.125h7.75v7.75h-7.75zM80.125 152.125h7.75v7.75h-7.75zM72.125 152.125h7.75v7.75h-7.75zM64.125 152.125h7.75v7.75h-7.75zM56.125 152.125h7.75v7.75h-7.75zM96.125 144.125h7.75v7.75h-7.75zM88.125 144.125h7.75v7.75h-7.75zM80.125 144.125h7.75v7.75h-7.75zM72.125 144.125h7.75v7.75h-7.75zM64.125 144.125h7.75v7.75h-7.75zM56.125 144.125h7.75v7.75h-7.75z"/></g><g><path d="M352.125 136.125h7.75v7.75h-7.75zM344.125 136.125h7.75v7.75h-7.75zM352.125 128.125h7.75v7.75h-7.75zM344.125 128.125h7.75v7.75h-7.75zM352.125 120.125h7.75v7.75h-7.75zM344.125 120.125h7.75v7.75h-7.75zM352.125 112.125h7.75v7.75h-7.75zM344.125 112.125h7.75v7.75h-7.75zM352.125 104.125h7.75v7.75h-7.75zM344.125 104.125h7.75v7.75h-7.75zM352.125 96.125h7.75v7.75h-7.75zM344.125 96.125h7.75v7.75h-7.75z"/></g><g><path d="M336.125 136.125h7.75v7.75h-7.75zM328.125 136.125h7.75v7.75h-7.75zM320.125 136.125h7.75v7.75h-7.75zM312.125 136.125h7.75v7.75h-7.75zM304.125 136.125h7.75v7.75h-7.75zM296.125 136.125h7.75v7.75h-7.75zM336.125 128.125h7.75v7.75h-7.75zM328.125 128.125h7.75v7.75h-7.75zM320.125 128.125h7.75v7.75h-7.75zM312.125 128.125h7.75v7.75h-7.75zM304.125 128.125h7.75v7.75h-7.75zM296.125 128.125h7.75v7.75h-7.75zM336.125 120.125h7.75v7.75h-7.75zM328.125 120.125h7.75v7.75h-7.75zM320.125 120.125h7.75v7.75h-7.75zM312.125 120.125h7.75v7.75h-7.75zM304.125 120.125h7.75v7.75h-7.75zM296.125 120.125h7.75v7.75h-7.75zM336.125 112.125h7.75v7.75h-7.75zM328.125 112.125h7.75v7.75h-7.75zM320.125 112.125h7.75v7.75h-7.75zM312.125 112.125h7.75v7.75h-7.75zM304.125 112.125h7.75v7.75h-7.75zM296.125 112.125h7.75v7.75h-7.75zM336.125 104.125h7.75v7.75h-7.75zM328.125 104.125h7.75v7.75h-7.75zM320.125 104.125h7.75v7.75h-7.75zM312.125 104.125h7.75v7.75h-7.75zM304.125 104.125h7.75v7.75h-7.75zM296.125 104.125h7.75v7.75h-7.75zM336.125 96.125h7.75v7.75h-7.75zM328.125 96.125h7.75v7.75h-7.75zM320.125 96.125h7.75v7.75h-7.75zM312.125 96.125h7.75v7.75h-7.75zM304.125 96.125h7.75v7.75h-7.75zM296.125 96.125h7.75v7.75h-7.75z"/></g><g><path d="M288.125 136.125h7.75v7.75h-7.75zM280.125 136.125h7.75v7.75h-7.75zM272.125 136.125h7.75v7.75h-7.75zM264.125 136.125h7.75v7.75h-7.75zM256.125 136.125h7.75v7.75h-7.75zM248.125 136.125h7.75v7.75h-7.75zM288.125 128.125h7.75v7.75h-7.75zM280.125 128.125h7.75v7.75h-7.75zM272.125 128.125h7.75v7.75h-7.75zM264.125 128.125h7.75v7.75h-7.75zM256.125 128.125h7.75v7.75h-7.75zM248.125 128.125h7.75v7.75h-7.75zM288.125 120.125h7.75v7.75h-7.75zM280.125 120.125h7.75v7.75h-7.75zM272.125 120.125h7.75v7.75h-7.75zM264.125 120.125h7.75v7.75h-7.75zM256.125 120.125h7.75v7.75h-7.75zM248.125 120.125h7.75v7.75h-7.75zM288.125 112.125h7.75v7.75h-7.75zM280.125 112.125h7.75v7.75h-7.75zM272.125 112.125h7.75v7.75h-7.75zM264.125 112.125h7.75v7.75h-7.75zM256.125 112.125h7.75v7.75h-7.75zM248.125 112.125h7.75v7.75h-7.75zM288.125 104.125h7.75v7.75h-7.75zM280.125 104.125h7.75v7.75h-7.75zM272.125 104.125h7.75v7.75h-7.75zM264.125 104.125h7.75v7.75h-7.75zM256.125 104.125h7.75v7.75h-7.75zM248.125 104.125h7.75v7.75h-7.75zM288.125 96.125h7.75v7.75h-7.75zM280.125 96.125h7.75v7.75h-7.75zM272.125 96.125h7.75v7.75h-7.75zM264.125 96.125h7.75v7.75h-7.75zM256.125 96.125h7.75v7.75h-7.75zM248.125 96.125h7.75v7.75h-7.75z"/></g><g><path d="M240.125 136.125h7.75v7.75h-7.75zM232.125 136.125h7.75v7.75h-7.75zM224.125 136.125h7.75v7.75h-7.75zM216.125 136.125h7.75v7.75h-7.75zM208.125 136.125h7.75v7.75h-7.75zM200.125 136.125h7.75v7.75h-7.75zM240.125 128.125h7.75v7.75h-7.75zM232.125 128.125h7.75v7.75h-7.75zM224.125 128.125h7.75v7.75h-7.75zM216.125 128.125h7.75v7.75h-7.75zM208.125 128.125h7.75v7.75h-7.75zM200.125 128.125h7.75v7.75h-7.75zM240.125 120.125h7.75v7.75h-7.75zM232.125 120.125h7.75v7.75h-7.75zM224.125 120.125h7.75v7.75h-7.75zM216.125 120.125h7.75v7.75h-7.75zM208.125 120.125h7.75v7.75h-7.75zM200.125 120.125h7.75v7.75h-7.75zM240.125 112.125h7.75v7.75h-7.75zM232.125 112.125h7.75v7.75h-7.75zM224.125 112.125h7.75v7.75h-7.75zM216.125 112.125h7.75v7.75h-7.75zM208.125 112.125h7.75v7.75h-7.75zM200.125 112.125h7.75v7.75h-7.75zM240.125 104.125h7.75v7.75h-7.75zM232.125 104.125h7.75v7.75h-7.75zM224.125 104.125h7.75v7.75h-7.75zM216.125 104.125h7.75v7.75h-7.75zM208.125 104.125h7.75v7.75h-7.75zM200.125 104.125h7.75v7.75h-7.75zM240.125 96.125h7.75v7.75h-7.75zM232.125 96.125h7.75v7.75h-7.75zM224.125 96.125h7.75v7.75h-7.75zM216.125 96.125h7.75v7.75h-7.75zM208.125 96.125h7.75v7.75h-7.75zM200.125 96.125h7.75v7.75h-7.75z"/></g><g><path d="M192.125 136.125h7.75v7.75h-7.75zM184.125 136.125h7.75v7.75h-7.75zM176.125 136.125h7.75v7.75h-7.75zM168.125 136.125h7.75v7.75h-7.75zM160.125 136.125h7.75v7.75h-7.75zM152.125 136.125h7.75v7.75h-7.75zM192.125 128.125h7.75v7.75h-7.75zM184.125 128.125h7.75v7.75h-7.75zM176.125 128.125h7.75v7.75h-7.75zM168.125 128.125h7.75v7.75h-7.75zM160.125 128.125h7.75v7.75h-7.75zM152.125 128.125h7.75v7.75h-7.75zM192.125 120.125h7.75v7.75h-7.75zM184.125 120.125h7.75v7.75h-7.75zM176.125 120.125h7.75v7.75h-7.75zM168.125 120.125h7.75v7.75h-7.75zM160.125 120.125h7.75v7.75h-7.75zM152.125 120.125h7.75v7.75h-7.75zM192.125 112.125h7.75v7.75h-7.75zM184.125 112.125h7.75v7.75h-7.75zM176.125 112.125h7.75v7.75h-7.75zM168.125 112.125h7.75v7.75h-7.75zM160.125 112.125h7.75v7.75h-7.75zM152.125 112.125h7.75v7.75h-7.75zM192.125 104.125h7.75v7.75h-7.75zM184.125 104.125h7.75v7.75h-7.75zM176.125 104.125h7.75v7.75h-7.75zM168.125 104.125h7.75v7.75h-7.75zM160.125 104.125h7.75v7.75h-7.75zM152.125 104.125h7.75v7.75h-7.75zM192.125 96.125h7.75v7.75h-7.75zM184.125 96.125h7.75v7.75h-7.75zM176.125 96.125h7.75v7.75h-7.75zM168.125 96.125h7.75v7.75h-7.75zM160.125 96.125h7.75v7.75h-7.75zM152.125 96.125h7.75v7.75h-7.75z"/></g><g><path d="M144.125 136.125h7.75v7.75h-7.75zM136.125 136.125h7.75v7.75h-7.75zM128.125 136.125h7.75v7.75h-7.75zM120.125 136.125h7.75v7.75h-7.75zM112.125 136.125h7.75v7.75h-7.75zM104.125 136.125h7.75v7.75h-7.75zM144.125 128.125h7.75v7.75h-7.75zM136.125 128.125h7.75v7.75h-7.75zM128.125 128.125h7.75v7.75h-7.75zM120.125 128.125h7.75v7.75h-7.75zM112.125 128.125h7.75v7.75h-7.75zM104.125 128.125h7.75v7.75h-7.75zM144.125 120.125h7.75v7.75h-7.75zM136.125 120.125h7.75v7.75h-7.75zM128.125 120.125h7.75v7.75h-7.75zM120.125 120.125h7.75v7.75h-7.75zM112.125 120.125h7.75v7.75h-7.75zM104.125 120.125h7.75v7.75h-7.75zM144.125 112.125h7.75v7.75h-7.75zM136.125 112.125h7.75v7.75h-7.75zM128.125 112.125h7.75v7.75h-7.75zM120.125 112.125h7.75v7.75h-7.75zM112.125 112.125h7.75v7.75h-7.75zM104.125 112.125h7.75v7.75h-7.75zM144.125 104.125h7.75v7.75h-7.75zM136.125 104.125h7.75v7.75h-7.75zM128.125 104.125h7.75v7.75h-7.75zM120.125 104.125h7.75v7.75h-7.75zM112.125 104.125h7.75v7.75h-7.75zM104.125 104.125h7.75v7.75h-7.75zM144.125 96.125h7.75v7.75h-7.75zM136.125 96.125h7.75v7.75h-7.75zM128.125 96.125h7.75v7.75h-7.75zM120.125 96.125h7.75v7.75h-7.75zM112.125 96.125h7.75v7.75h-7.75zM104.125 96.125h7.75v7.75h-7.75z"/></g><g><path d="M96.125 136.125h7.75v7.75h-7.75zM88.125 136.125h7.75v7.75h-7.75zM80.125 136.125h7.75v7.75h-7.75zM72.125 136.125h7.75v7.75h-7.75zM64.125 136.125h7.75v7.75h-7.75zM56.125 136.125h7.75v7.75h-7.75zM96.125 128.125h7.75v7.75h-7.75zM88.125 128.125h7.75v7.75h-7.75zM80.125 128.125h7.75v7.75h-7.75zM72.125 128.125h7.75v7.75h-7.75zM64.125 128.125h7.75v7.75h-7.75zM56.125 128.125h7.75v7.75h-7.75zM96.125 120.125h7.75v7.75h-7.75zM88.125 120.125h7.75v7.75h-7.75zM80.125 120.125h7.75v7.75h-7.75zM72.125 120.125h7.75v7.75h-7.75zM64.125 120.125h7.75v7.75h-7.75zM56.125 120.125h7.75v7.75h-7.75zM96.125 112.125h7.75v7.75h-7.75zM88.125 112.125h7.75v7.75h-7.75zM80.125 112.125h7.75v7.75h-7.75zM72.125 112.125h7.75v7.75h-7.75zM64.125 112.125h7.75v7.75h-7.75zM56.125 112.125h7.75v7.75h-7.75zM96.125 104.125h7.75v7.75h-7.75zM88.125 104.125h7.75v7.75h-7.75zM80.125 104.125h7.75v7.75h-7.75zM72.125 104.125h7.75v7.75h-7.75zM64.125 104.125h7.75v7.75h-7.75zM56.125 104.125h7.75v7.75h-7.75zM96.125 96.125h7.75v7.75h-7.75zM88.125 96.125h7.75v7.75h-7.75zM80.125 96.125h7.75v7.75h-7.75zM72.125 96.125h7.75v7.75h-7.75zM64.125 96.125h7.75v7.75h-7.75zM56.125 96.125h7.75v7.75h-7.75z"/></g><g><path d="M352.125 88.125h7.75v7.75h-7.75zM344.125 88.125h7.75v7.75h-7.75zM352.125 80.125h7.75v7.75h-7.75zM344.125 80.125h7.75v7.75h-7.75zM352.125 72.125h7.75v7.75h-7.75zM344.125 72.125h7.75v7.75h-7.75zM352.125 64.125h7.75v7.75h-7.75zM344.125 64.125h7.75v7.75h-7.75zM352.125 56.125h7.75v7.75h-7.75zM344.125 56.125h7.75v7.75h-7.75zM352.125 48.125h7.75v7.75h-7.75zM344.125 48.125h7.75v7.75h-7.75z"/></g><g><path d="M336.125 88.125h7.75v7.75h-7.75zM328.125 88.125h7.75v7.75h-7.75zM320.125 88.125h7.75v7.75h-7.75zM312.125 88.125h7.75v7.75h-7.75zM304.125 88.125h7.75v7.75h-7.75zM296.125 88.125h7.75v7.75h-7.75zM336.125 80.125h7.75v7.75h-7.75zM328.125 80.125h7.75v7.75h-7.75zM320.125 80.125h7.75v7.75h-7.75zM312.125 80.125h7.75v7.75h-7.75zM304.125 80.125h7.75v7.75h-7.75zM296.125 80.125h7.75v7.75h-7.75zM336.125 72.125h7.75v7.75h-7.75zM328.125 72.125h7.75v7.75h-7.75zM320.125 72.125h7.75v7.75h-7.75zM312.125 72.125h7.75v7.75h-7.75zM304.125 72.125h7.75v7.75h-7.75zM296.125 72.125h7.75v7.75h-7.75zM336.125 64.125h7.75v7.75h-7.75zM328.125 64.125h7.75v7.75h-7.75zM320.125 64.125h7.75v7.75h-7.75zM312.125 64.125h7.75v7.75h-7.75zM304.125 64.125h7.75v7.75h-7.75zM296.125 64.125h7.75v7.75h-7.75zM336.125 56.125h7.75v7.75h-7.75zM328.125 56.125h7.75v7.75h-7.75zM320.125 56.125h7.75v7.75h-7.75zM312.125 56.125h7.75v7.75h-7.75zM304.125 56.125h7.75v7.75h-7.75zM296.125 56.125h7.75v7.75h-7.75zM336.125 48.125h7.75v7.75h-7.75zM328.125 48.125h7.75v7.75h-7.75zM320.125 48.125h7.75v7.75h-7.75zM312.125 48.125h7.75v7.75h-7.75zM304.125 48.125h7.75v7.75h-7.75zM296.125 48.125h7.75v7.75h-7.75z"/></g><g><path d="M288.125 88.125h7.75v7.75h-7.75zM280.125 88.125h7.75v7.75h-7.75zM272.125 88.125h7.75v7.75h-7.75zM264.125 88.125h7.75v7.75h-7.75zM256.125 88.125h7.75v7.75h-7.75zM248.125 88.125h7.75v7.75h-7.75zM288.125 80.125h7.75v7.75h-7.75zM280.125 80.125h7.75v7.75h-7.75zM272.125 80.125h7.75v7.75h-7.75zM264.125 80.125h7.75v7.75h-7.75zM256.125 80.125h7.75v7.75h-7.75zM248.125 80.125h7.75v7.75h-7.75zM288.125 72.125h7.75v7.75h-7.75zM280.125 72.125h7.75v7.75h-7.75zM272.125 72.125h7.75v7.75h-7.75zM264.125 72.125h7.75v7.75h-7.75zM256.125 72.125h7.75v7.75h-7.75zM248.125 72.125h7.75v7.75h-7.75zM288.125 64.125h7.75v7.75h-7.75zM280.125 64.125h7.75v7.75h-7.75zM272.125 64.125h7.75v7.75h-7.75zM264.125 64.125h7.75v7.75h-7.75zM256.125 64.125h7.75v7.75h-7.75zM248.125 64.125h7.75v7.75h-7.75zM288.125 56.125h7.75v7.75h-7.75zM280.125 56.125h7.75v7.75h-7.75zM272.125 56.125h7.75v7.75h-7.75zM264.125 56.125h7.75v7.75h-7.75zM256.125 56.125h7.75v7.75h-7.75zM248.125 56.125h7.75v7.75h-7.75zM288.125 48.125h7.75v7.75h-7.75zM280.125 48.125h7.75v7.75h-7.75zM272.125 48.125h7.75v7.75h-7.75zM264.125 48.125h7.75v7.75h-7.75zM256.125 48.125h7.75v7.75h-7.75zM248.125 48.125h7.75v7.75h-7.75z"/></g><g><path d="M240.125 88.125h7.75v7.75h-7.75zM232.125 88.125h7.75v7.75h-7.75zM224.125 88.125h7.75v7.75h-7.75zM216.125 88.125h7.75v7.75h-7.75zM208.125 88.125h7.75v7.75h-7.75zM200.125 88.125h7.75v7.75h-7.75zM240.125 80.125h7.75v7.75h-7.75zM232.125 80.125h7.75v7.75h-7.75zM224.125 80.125h7.75v7.75h-7.75zM216.125 80.125h7.75v7.75h-7.75zM208.125 80.125h7.75v7.75h-7.75zM200.125 80.125h7.75v7.75h-7.75zM240.125 72.125h7.75v7.75h-7.75zM232.125 72.125h7.75v7.75h-7.75zM224.125 72.125h7.75v7.75h-7.75zM216.125 72.125h7.75v7.75h-7.75zM208.125 72.125h7.75v7.75h-7.75zM200.125 72.125h7.75v7.75h-7.75zM240.125 64.125h7.75v7.75h-7.75zM232.125 64.125h7.75v7.75h-7.75zM224.125 64.125h7.75v7.75h-7.75zM216.125 64.125h7.75v7.75h-7.75zM208.125 64.125h7.75v7.75h-7.75zM200.125 64.125h7.75v7.75h-7.75zM240.125 56.125h7.75v7.75h-7.75zM232.125 56.125h7.75v7.75h-7.75zM224.125 56.125h7.75v7.75h-7.75zM216.125 56.125h7.75v7.75h-7.75zM208.125 56.125h7.75v7.75h-7.75zM200.125 56.125h7.75v7.75h-7.75zM240.125 48.125h7.75v7.75h-7.75zM232.125 48.125h7.75v7.75h-7.75zM224.125 48.125h7.75v7.75h-7.75zM216.125 48.125h7.75v7.75h-7.75zM208.125 48.125h7.75v7.75h-7.75zM200.125 48.125h7.75v7.75h-7.75z"/></g><g><path d="M192.125 88.125h7.75v7.75h-7.75zM184.125 88.125h7.75v7.75h-7.75zM176.125 88.125h7.75v7.75h-7.75zM168.125 88.125h7.75v7.75h-7.75zM160.125 88.125h7.75v7.75h-7.75zM152.125 88.125h7.75v7.75h-7.75zM192.125 80.125h7.75v7.75h-7.75zM184.125 80.125h7.75v7.75h-7.75zM176.125 80.125h7.75v7.75h-7.75zM168.125 80.125h7.75v7.75h-7.75zM160.125 80.125h7.75v7.75h-7.75zM152.125 80.125h7.75v7.75h-7.75zM192.125 72.125h7.75v7.75h-7.75zM184.125 72.125h7.75v7.75h-7.75zM176.125 72.125h7.75v7.75h-7.75zM168.125 72.125h7.75v7.75h-7.75zM160.125 72.125h7.75v7.75h-7.75zM152.125 72.125h7.75v7.75h-7.75zM192.125 64.125h7.75v7.75h-7.75zM184.125 64.125h7.75v7.75h-7.75zM176.125 64.125h7.75v7.75h-7.75zM168.125 64.125h7.75v7.75h-7.75zM160.125 64.125h7.75v7.75h-7.75zM152.125 64.125h7.75v7.75h-7.75zM192.125 56.125h7.75v7.75h-7.75zM184.125 56.125h7.75v7.75h-7.75zM176.125 56.125h7.75v7.75h-7.75zM168.125 56.125h7.75v7.75h-7.75zM160.125 56.125h7.75v7.75h-7.75zM152.125 56.125h7.75v7.75h-7.75zM192.125 48.125h7.75v7.75h-7.75zM184.125 48.125h7.75v7.75h-7.75zM176.125 48.125h7.75v7.75h-7.75zM168.125 48.125h7.75v7.75h-7.75zM160.125 48.125h7.75v7.75h-7.75zM152.125 48.125h7.75v7.75h-7.75z"/></g><g><path d="M144.125 88.125h7.75v7.75h-7.75zM136.125 88.125h7.75v7.75h-7.75zM128.125 88.125h7.75v7.75h-7.75zM120.125 88.125h7.75v7.75h-7.75zM112.125 88.125h7.75v7.75h-7.75zM104.125 88.125h7.75v7.75h-7.75zM144.125 80.125h7.75v7.75h-7.75zM136.125 80.125h7.75v7.75h-7.75zM128.125 80.125h7.75v7.75h-7.75zM120.125 80.125h7.75v7.75h-7.75zM112.125 80.125h7.75v7.75h-7.75zM104.125 80.125h7.75v7.75h-7.75zM144.125 72.125h7.75v7.75h-7.75zM136.125 72.125h7.75v7.75h-7.75zM128.125 72.125h7.75v7.75h-7.75zM120.125 72.125h7.75v7.75h-7.75zM112.125 72.125h7.75v7.75h-7.75zM104.125 72.125h7.75v7.75h-7.75zM144.125 64.125h7.75v7.75h-7.75zM136.125 64.125h7.75v7.75h-7.75zM128.125 64.125h7.75v7.75h-7.75zM120.125 64.125h7.75v7.75h-7.75zM112.125 64.125h7.75v7.75h-7.75zM104.125 64.125h7.75v7.75h-7.75zM144.125 56.125h7.75v7.75h-7.75zM136.125 56.125h7.75v7.75h-7.75zM128.125 56.125h7.75v7.75h-7.75zM120.125 56.125h7.75v7.75h-7.75zM112.125 56.125h7.75v7.75h-7.75zM104.125 56.125h7.75v7.75h-7.75zM144.125 48.125h7.75v7.75h-7.75zM136.125 48.125h7.75v7.75h-7.75zM128.125 48.125h7.75v7.75h-7.75zM120.125 48.125h7.75v7.75h-7.75zM112.125 48.125h7.75v7.75h-7.75zM104.125 48.125h7.75v7.75h-7.75z"/></g><g><path d="M96.125 88.125h7.75v7.75h-7.75zM88.125 88.125h7.75v7.75h-7.75zM80.125 88.125h7.75v7.75h-7.75zM72.125 88.125h7.75v7.75h-7.75zM64.125 88.125h7.75v7.75h-7.75zM56.125 88.125h7.75v7.75h-7.75zM96.125 80.125h7.75v7.75h-7.75zM88.125 80.125h7.75v7.75h-7.75zM80.125 80.125h7.75v7.75h-7.75zM72.125 80.125h7.75v7.75h-7.75zM64.125 80.125h7.75v7.75h-7.75zM56.125 80.125h7.75v7.75h-7.75zM96.125 72.125h7.75v7.75h-7.75zM88.125 72.125h7.75v7.75h-7.75zM80.125 72.125h7.75v7.75h-7.75zM72.125 72.125h7.75v7.75h-7.75zM64.125 72.125h7.75v7.75h-7.75zM56.125 72.125h7.75v7.75h-7.75zM96.125 64.125h7.75v7.75h-7.75zM88.125 64.125h7.75v7.75h-7.75zM80.125 64.125h7.75v7.75h-7.75zM72.125 64.125h7.75v7.75h-7.75zM64.125 64.125h7.75v7.75h-7.75zM56.125 64.125h7.75v7.75h-7.75zM96.125 56.125h7.75v7.75h-7.75zM88.125 56.125h7.75v7.75h-7.75zM80.125 56.125h7.75v7.75h-7.75zM72.125 56.125h7.75v7.75h-7.75zM64.125 56.125h7.75v7.75h-7.75zM56.125 56.125h7.75v7.75h-7.75zM96.125 48.125h7.75v7.75h-7.75zM88.125 48.125h7.75v7.75h-7.75zM80.125 48.125h7.75v7.75h-7.75zM72.125 48.125h7.75v7.75h-7.75zM64.125 48.125h7.75v7.75h-7.75zM56.125 48.125h7.75v7.75h-7.75z"/></g><g><path d="M352.125 40.125h7.75v7.75h-7.75zM344.125 40.125h7.75v7.75h-7.75zM352.125 32.125h7.75v7.75h-7.75zM344.125 32.125h7.75v7.75h-7.75zM352.125 24.125h7.75v7.75h-7.75zM344.125 24.125h7.75v7.75h-7.75zM352.125 16.125h7.75v7.75h-7.75zM344.125 16.125h7.75v7.75h-7.75zM352.125 8.125h7.75v7.75h-7.75zM344.125 8.125h7.75v7.75h-7.75zM352.125.125h7.75v7.75h-7.75zM344.125.125h7.75v7.75h-7.75z"/></g><g><path d="M336.125 40.125h7.75v7.75h-7.75zM328.125 40.125h7.75v7.75h-7.75zM320.125 40.125h7.75v7.75h-7.75zM312.125 40.125h7.75v7.75h-7.75zM304.125 40.125h7.75v7.75h-7.75zM296.125 40.125h7.75v7.75h-7.75zM336.125 32.125h7.75v7.75h-7.75zM328.125 32.125h7.75v7.75h-7.75zM320.125 32.125h7.75v7.75h-7.75zM312.125 32.125h7.75v7.75h-7.75zM304.125 32.125h7.75v7.75h-7.75zM296.125 32.125h7.75v7.75h-7.75zM336.125 24.125h7.75v7.75h-7.75zM328.125 24.125h7.75v7.75h-7.75zM320.125 24.125h7.75v7.75h-7.75zM312.125 24.125h7.75v7.75h-7.75zM304.125 24.125h7.75v7.75h-7.75zM296.125 24.125h7.75v7.75h-7.75zM336.125 16.125h7.75v7.75h-7.75zM328.125 16.125h7.75v7.75h-7.75zM320.125 16.125h7.75v7.75h-7.75zM312.125 16.125h7.75v7.75h-7.75zM304.125 16.125h7.75v7.75h-7.75zM296.125 16.125h7.75v7.75h-7.75zM336.125 8.125h7.75v7.75h-7.75zM328.125 8.125h7.75v7.75h-7.75zM320.125 8.125h7.75v7.75h-7.75zM312.125 8.125h7.75v7.75h-7.75zM304.125 8.125h7.75v7.75h-7.75zM296.125 8.125h7.75v7.75h-7.75zM336.125.125h7.75v7.75h-7.75zM328.125.125h7.75v7.75h-7.75zM320.125.125h7.75v7.75h-7.75zM312.125.125h7.75v7.75h-7.75zM304.125.125h7.75v7.75h-7.75zM296.125.125h7.75v7.75h-7.75z"/></g><g><path d="M288.125 40.125h7.75v7.75h-7.75zM280.125 40.125h7.75v7.75h-7.75zM272.125 40.125h7.75v7.75h-7.75zM264.125 40.125h7.75v7.75h-7.75zM256.125 40.125h7.75v7.75h-7.75zM248.125 40.125h7.75v7.75h-7.75zM288.125 32.125h7.75v7.75h-7.75zM280.125 32.125h7.75v7.75h-7.75zM272.125 32.125h7.75v7.75h-7.75zM264.125 32.125h7.75v7.75h-7.75zM256.125 32.125h7.75v7.75h-7.75zM248.125 32.125h7.75v7.75h-7.75zM288.125 24.125h7.75v7.75h-7.75zM280.125 24.125h7.75v7.75h-7.75zM272.125 24.125h7.75v7.75h-7.75zM264.125 24.125h7.75v7.75h-7.75zM256.125 24.125h7.75v7.75h-7.75zM248.125 24.125h7.75v7.75h-7.75zM288.125 16.125h7.75v7.75h-7.75zM280.125 16.125h7.75v7.75h-7.75zM272.125 16.125h7.75v7.75h-7.75zM264.125 16.125h7.75v7.75h-7.75zM256.125 16.125h7.75v7.75h-7.75zM248.125 16.125h7.75v7.75h-7.75zM288.125 8.125h7.75v7.75h-7.75zM280.125 8.125h7.75v7.75h-7.75zM272.125 8.125h7.75v7.75h-7.75zM264.125 8.125h7.75v7.75h-7.75zM256.125 8.125h7.75v7.75h-7.75zM248.125 8.125h7.75v7.75h-7.75zM288.125.125h7.75v7.75h-7.75zM280.125.125h7.75v7.75h-7.75zM272.125.125h7.75v7.75h-7.75zM264.125.125h7.75v7.75h-7.75zM256.125.125h7.75v7.75h-7.75zM248.125.125h7.75v7.75h-7.75z"/></g><g><path d="M240.125 40.125h7.75v7.75h-7.75zM232.125 40.125h7.75v7.75h-7.75zM224.125 40.125h7.75v7.75h-7.75zM216.125 40.125h7.75v7.75h-7.75zM208.125 40.125h7.75v7.75h-7.75zM200.125 40.125h7.75v7.75h-7.75zM240.125 32.125h7.75v7.75h-7.75zM232.125 32.125h7.75v7.75h-7.75zM224.125 32.125h7.75v7.75h-7.75zM216.125 32.125h7.75v7.75h-7.75zM208.125 32.125h7.75v7.75h-7.75zM200.125 32.125h7.75v7.75h-7.75zM240.125 24.125h7.75v7.75h-7.75zM232.125 24.125h7.75v7.75h-7.75zM224.125 24.125h7.75v7.75h-7.75zM216.125 24.125h7.75v7.75h-7.75zM208.125 24.125h7.75v7.75h-7.75zM200.125 24.125h7.75v7.75h-7.75zM240.125 16.125h7.75v7.75h-7.75zM232.125 16.125h7.75v7.75h-7.75zM224.125 16.125h7.75v7.75h-7.75zM216.125 16.125h7.75v7.75h-7.75zM208.125 16.125h7.75v7.75h-7.75zM200.125 16.125h7.75v7.75h-7.75zM240.125 8.125h7.75v7.75h-7.75zM232.125 8.125h7.75v7.75h-7.75zM224.125 8.125h7.75v7.75h-7.75zM216.125 8.125h7.75v7.75h-7.75zM208.125 8.125h7.75v7.75h-7.75zM200.125 8.125h7.75v7.75h-7.75zM240.125.125h7.75v7.75h-7.75zM232.125.125h7.75v7.75h-7.75zM224.125.125h7.75v7.75h-7.75zM216.125.125h7.75v7.75h-7.75zM208.125.125h7.75v7.75h-7.75zM200.125.125h7.75v7.75h-7.75z"/></g><g><path d="M192.125 40.125h7.75v7.75h-7.75zM184.125 40.125h7.75v7.75h-7.75zM176.125 40.125h7.75v7.75h-7.75zM168.125 40.125h7.75v7.75h-7.75zM160.125 40.125h7.75v7.75h-7.75zM152.125 40.125h7.75v7.75h-7.75zM192.125 32.125h7.75v7.75h-7.75zM184.125 32.125h7.75v7.75h-7.75zM176.125 32.125h7.75v7.75h-7.75zM168.125 32.125h7.75v7.75h-7.75zM160.125 32.125h7.75v7.75h-7.75zM152.125 32.125h7.75v7.75h-7.75zM192.125 24.125h7.75v7.75h-7.75zM184.125 24.125h7.75v7.75h-7.75zM176.125 24.125h7.75v7.75h-7.75zM168.125 24.125h7.75v7.75h-7.75zM160.125 24.125h7.75v7.75h-7.75zM152.125 24.125h7.75v7.75h-7.75zM192.125 16.125h7.75v7.75h-7.75zM184.125 16.125h7.75v7.75h-7.75zM176.125 16.125h7.75v7.75h-7.75zM168.125 16.125h7.75v7.75h-7.75zM160.125 16.125h7.75v7.75h-7.75zM152.125 16.125h7.75v7.75h-7.75zM192.125 8.125h7.75v7.75h-7.75zM184.125 8.125h7.75v7.75h-7.75zM176.125 8.125h7.75v7.75h-7.75zM168.125 8.125h7.75v7.75h-7.75zM160.125 8.125h7.75v7.75h-7.75zM152.125 8.125h7.75v7.75h-7.75zM192.125.125h7.75v7.75h-7.75zM184.125.125h7.75v7.75h-7.75zM176.125.125h7.75v7.75h-7.75zM168.125.125h7.75v7.75h-7.75zM160.125.125h7.75v7.75h-7.75zM152.125.125h7.75v7.75h-7.75z"/></g><g><path d="M144.125 40.125h7.75v7.75h-7.75zM136.125 40.125h7.75v7.75h-7.75zM128.125 40.125h7.75v7.75h-7.75zM120.125 40.125h7.75v7.75h-7.75zM112.125 40.125h7.75v7.75h-7.75zM104.125 40.125h7.75v7.75h-7.75zM144.125 32.125h7.75v7.75h-7.75zM136.125 32.125h7.75v7.75h-7.75zM128.125 32.125h7.75v7.75h-7.75zM120.125 32.125h7.75v7.75h-7.75zM112.125 32.125h7.75v7.75h-7.75zM104.125 32.125h7.75v7.75h-7.75zM144.125 24.125h7.75v7.75h-7.75zM136.125 24.125h7.75v7.75h-7.75zM128.125 24.125h7.75v7.75h-7.75zM120.125 24.125h7.75v7.75h-7.75zM112.125 24.125h7.75v7.75h-7.75zM104.125 24.125h7.75v7.75h-7.75zM144.125 16.125h7.75v7.75h-7.75zM136.125 16.125h7.75v7.75h-7.75zM128.125 16.125h7.75v7.75h-7.75zM120.125 16.125h7.75v7.75h-7.75zM112.125 16.125h7.75v7.75h-7.75zM104.125 16.125h7.75v7.75h-7.75zM144.125 8.125h7.75v7.75h-7.75zM136.125 8.125h7.75v7.75h-7.75zM128.125 8.125h7.75v7.75h-7.75zM120.125 8.125h7.75v7.75h-7.75zM112.125 8.125h7.75v7.75h-7.75zM104.125 8.125h7.75v7.75h-7.75zM144.125.125h7.75v7.75h-7.75zM136.125.125h7.75v7.75h-7.75zM128.125.125h7.75v7.75h-7.75zM120.125.125h7.75v7.75h-7.75zM112.125.125h7.75v7.75h-7.75zM104.125.125h7.75v7.75h-7.75z"/></g><g><path d="M96.125 40.125h7.75v7.75h-7.75zM88.125 40.125h7.75v7.75h-7.75zM80.125 40.125h7.75v7.75h-7.75zM72.125 40.125h7.75v7.75h-7.75zM64.125 40.125h7.75v7.75h-7.75zM56.125 40.125h7.75v7.75h-7.75zM96.125 32.125h7.75v7.75h-7.75zM88.125 32.125h7.75v7.75h-7.75zM80.125 32.125h7.75v7.75h-7.75zM72.125 32.125h7.75v7.75h-7.75zM64.125 32.125h7.75v7.75h-7.75zM56.125 32.125h7.75v7.75h-7.75zM96.125 24.125h7.75v7.75h-7.75zM88.125 24.125h7.75v7.75h-7.75zM80.125 24.125h7.75v7.75h-7.75zM72.125 24.125h7.75v7.75h-7.75zM64.125 24.125h7.75v7.75h-7.75zM56.125 24.125h7.75v7.75h-7.75zM96.125 16.125h7.75v7.75h-7.75zM88.125 16.125h7.75v7.75h-7.75zM80.125 16.125h7.75v7.75h-7.75zM72.125 16.125h7.75v7.75h-7.75zM64.125 16.125h7.75v7.75h-7.75zM56.125 16.125h7.75v7.75h-7.75zM96.125 8.125h7.75v7.75h-7.75zM88.125 8.125h7.75v7.75h-7.75zM80.125 8.125h7.75v7.75h-7.75zM72.125 8.125h7.75v7.75h-7.75zM64.125 8.125h7.75v7.75h-7.75zM56.125 8.125h7.75v7.75h-7.75zM96.125.125h7.75v7.75h-7.75zM88.125.125h7.75v7.75h-7.75zM80.125.125h7.75v7.75h-7.75zM72.125.125h7.75v7.75h-7.75zM64.125.125h7.75v7.75h-7.75zM56.125.125h7.75v7.75h-7.75z"/></g></g><path fill-opacity=".4" fill="#F92B2B" d="M48 160h8v32h-8z"/><path fill-opacity=".4" fill="#00A4B6" d="M48 88h8v16h-8z"/><path fill-opacity=".4" fill="#FEEA24" d="M48 104h8v56h-8z"/><path d="M9.016 136.192c-1.776 0-2.864-.688-3.6-1.744l.608-.608c.688.976 1.616 1.52 2.992 1.52 1.536 0 2.672-1.12 2.672-2.576 0-1.616-1.12-2.608-2.656-2.608-.976 0-1.808.32-2.592 1.04l-.688-.288v-5.6h6.16v.832H6.664v4.176c.528-.512 1.44-.992 2.544-.992 1.792 0 3.408 1.184 3.408 3.408 0 2.128-1.632 3.44-3.6 3.44zm9.376 0c-2.88 0-3.92-2.656-3.92-5.52 0-2.736 1.136-5.504 4.08-5.504 1.392 0 2.24.56 2.88 1.36l-.544.672c-.512-.704-1.168-1.2-2.336-1.2-2.304 0-3.152 2.416-3.152 4.688 0 .16 0 .336.016.496.448-.736 1.68-1.776 3.12-1.776 1.92 0 3.44 1.104 3.44 3.376 0 1.744-1.312 3.408-3.584 3.408zm-.032-.832c1.824 0 2.688-1.408 2.688-2.56 0-1.744-1.136-2.576-2.672-2.576-1.168 0-2.304.752-2.912 1.824.128 1.456.896 3.312 2.896 3.312zm9.344.832c-1.088 0-2.064-.56-2.688-1.44v4.192h-.832v-10.672h.832v1.216a3.32 3.32 0 0 1 2.688-1.408c2.064 0 3.456 1.568 3.456 4.048 0 2.464-1.392 4.064-3.456 4.064zm-.144-.752c1.728 0 2.704-1.44 2.704-3.312 0-1.872-.976-3.296-2.704-3.296-1.072 0-2.096.64-2.544 1.376v3.824c.448.736 1.472 1.408 2.544 1.408zm11.168.56h-.992l-2.56-3.408L32.6 136h-.992l3.056-3.968-2.88-3.76h.992l2.4 3.184 2.384-3.184h.992l-2.88 3.76L38.728 136z" fill="#666"/><path d="M72.908 31.8h-3.393v-8.439H59.452V31.8h-3.393V12.457h3.393v7.917h10.063v-7.917h3.393V31.8zm10.498.348c-4.205 0-7.337-2.929-7.337-7.366 0-4.06 2.958-7.337 7.105-7.337 4.205 0 6.902 3.219 6.902 7.627v.725H79.259c.232 2.117 1.827 3.857 4.466 3.857 1.363 0 2.987-.551 3.973-1.537l1.392 2.001c-1.392 1.334-3.451 2.03-5.684 2.03zm3.712-8.497c-.058-1.653-1.189-3.712-3.944-3.712-2.61 0-3.799 2.001-3.944 3.712h7.888zm17.574 8.149h-3.045v-1.508c-1.044 1.189-2.668 1.856-4.524 1.856-2.291 0-4.872-1.537-4.872-4.64 0-3.219 2.581-4.553 4.872-4.553 1.885 0 3.509.609 4.524 1.798v-2.088c0-1.624-1.334-2.61-3.277-2.61-1.566 0-2.929.58-4.147 1.769l-1.247-2.117c1.624-1.537 3.654-2.262 5.887-2.262 3.103 0 5.829 1.305 5.829 5.075v9.28zm-6.38-1.74c1.334 0 2.639-.493 3.335-1.45v-2.117c-.696-.957-2.001-1.45-3.335-1.45-1.711 0-2.987.986-2.987 2.523 0 1.508 1.276 2.494 2.987 2.494zm23.229 1.74h-3.045v-1.914c-1.073 1.392-2.697 2.262-4.495 2.262-3.596 0-6.235-2.726-6.235-7.337 0-4.524 2.61-7.366 6.235-7.366 1.74 0 3.364.812 4.495 2.291v-7.279h3.045V31.8zm-6.67-2.349c1.45 0 2.929-.812 3.625-1.856v-5.568c-.696-1.044-2.175-1.885-3.625-1.885-2.407 0-3.944 1.943-3.944 4.669 0 2.697 1.537 4.64 3.944 4.64zm12.122-13.369a1.9 1.9 0 0 1-1.885-1.885 1.9 1.9 0 0 1 1.885-1.885c1.044 0 1.885.841 1.885 1.885a1.881 1.881 0 0 1-1.885 1.885zM128.53 31.8h-3.045V17.793h3.045V31.8zm16.443 0h-3.045v-8.758c0-2.175-1.102-2.9-2.813-2.9-1.566 0-2.9.928-3.596 1.885V31.8h-3.045V17.793h3.045v1.914c.928-1.102 2.726-2.262 4.93-2.262 3.016 0 4.524 1.624 4.524 4.495v9.86zm9.628 5.684c-2.378 0-4.147-.522-5.858-2.088l1.421-2.204c1.131 1.305 2.581 1.798 4.437 1.798 2.001 0 4.147-.928 4.147-3.799v-1.682c-1.073 1.392-2.668 2.32-4.495 2.32-3.567 0-6.206-2.581-6.206-7.192 0-4.524 2.61-7.192 6.206-7.192 1.769 0 3.364.812 4.495 2.291v-1.943h3.045v13.282c0 5.046-3.741 6.409-7.192 6.409zm.551-8.352c1.421 0 2.929-.841 3.596-1.885v-5.22c-.667-1.044-2.175-1.885-3.596-1.885-2.407 0-3.944 1.798-3.944 4.495s1.537 4.495 3.944 4.495zm23.548 6.989l-1.885 1.45c-2.726-3.335-4.379-8.149-4.379-12.818 0-4.669 1.653-9.454 4.379-12.818l1.885 1.421c-1.914 3.596-2.958 6.844-2.958 11.397s1.044 7.801 2.958 11.368zm13.949-4.321h-3.393v-4.379h-9.222v-2.726l7.946-12.238h4.669v11.977h2.581v2.987h-2.581V31.8zm-3.393-7.366v-8.932l-5.887 8.932h5.887zm15.718 7.714c-5.423 0-7.743-5.133-7.743-10.005 0-4.872 2.32-9.976 7.743-9.976s7.743 5.104 7.743 9.976c0 4.872-2.32 10.005-7.743 10.005zm0-3.016c3.161 0 4.292-3.306 4.292-6.989s-1.131-6.96-4.292-6.96c-3.161 0-4.292 3.277-4.292 6.96s1.131 6.989 4.292 6.989zm18.444 3.016c-1.769 0-3.364-.783-4.495-2.291v7.279h-3.045V17.793h3.045v1.914a5.59 5.59 0 0 1 4.495-2.262c3.625 0 6.206 2.726 6.206 7.337s-2.581 7.366-6.206 7.366zm-.899-2.697c2.407 0 3.944-1.943 3.944-4.669 0-2.697-1.537-4.64-3.944-4.64-1.421 0-2.929.841-3.596 1.885v5.539c.667 1.015 2.175 1.885 3.596 1.885zm21.373 2.349h-3.422l-3.625-5.162-3.654 5.162h-3.393l5.133-7.192-4.843-6.815h3.422l3.335 4.756 3.306-4.756h3.422l-4.843 6.815 5.162 7.192zm2.407.58h-2.262l6.873-20.503h2.262l-6.873 20.503zm20.3-.58h-3.393v-4.379h-9.222v-2.726l7.946-12.238h4.669v11.977h2.581v2.987h-2.581V31.8zm-3.393-7.366v-8.932l-5.887 8.932h5.887zm15.428 7.714c-3.973 0-7.424-1.827-7.424-5.307 0-2.465 2.001-4.234 4.35-5.017-2.175-.696-4.031-2.117-4.031-4.582 0-3.567 3.654-5.075 7.105-5.075 3.393 0 7.105 1.508 7.105 5.075 0 2.465-1.885 3.886-4.06 4.582 2.349.783 4.35 2.552 4.35 5.017 0 3.451-3.451 5.307-7.395 5.307zm0-11.658c1.189-.203 3.654-.899 3.654-2.726 0-1.624-1.595-2.581-3.654-2.581-2.117 0-3.683.957-3.683 2.581 0 1.827 2.494 2.523 3.683 2.726zm0 8.642c2.146 0 3.973-1.044 3.973-2.726 0-2.001-2.784-2.9-3.973-3.045-1.218.145-4.002 1.044-4.002 3.045 0 1.682 1.798 2.726 4.002 2.726zm18.125 3.016c-1.769 0-3.364-.783-4.495-2.291v7.279h-3.045V17.793h3.045v1.914a5.59 5.59 0 0 1 4.495-2.262c3.625 0 6.206 2.726 6.206 7.337s-2.581 7.366-6.206 7.366zm-.899-2.697c2.407 0 3.944-1.943 3.944-4.669 0-2.697-1.537-4.64-3.944-4.64-1.421 0-2.929.841-3.596 1.885v5.539c.667 1.015 2.175 1.885 3.596 1.885zm21.373 2.349h-3.422l-3.625-5.162-3.654 5.162h-3.393l5.133-7.192-4.843-6.815h3.422l3.335 4.756 3.306-4.756h3.422l-4.843 6.815 5.162 7.192zm2.523 5.771l-1.885-1.45c1.943-3.567 2.987-6.815 2.987-11.368s-1.044-7.801-2.987-11.397l1.885-1.421c2.755 3.364 4.408 8.149 4.408 12.818 0 4.669-1.653 9.483-4.408 12.818z" fill="#1D1D1B"/><path fill-opacity=".4" fill="#FDA92B" d="M48 32h8v40h-8z"/><path d="M12.032 56h-.912v-2.912H6.064v-.816l4.736-6.944h1.232v6.928H13.6v.832h-1.568V56zm-.912-3.744V46.24l-4.112 6.016h4.112zm7.92 3.936c-2.88 0-3.952-2.992-3.952-5.52 0-2.544 1.072-5.504 3.952-5.504 2.848 0 3.936 2.96 3.936 5.504 0 2.528-1.088 5.52-3.936 5.52zm0-.832c2.224 0 2.96-2.496 2.96-4.688C22 48.464 21.28 46 19.04 46c-2.256 0-2.992 2.464-2.992 4.672 0 2.192.736 4.688 2.992 4.688zm9.664.832c-1.088 0-2.064-.56-2.688-1.44v4.192h-.832V48.272h.832v1.216a3.32 3.32 0 0 1 2.688-1.408c2.064 0 3.456 1.568 3.456 4.048 0 2.464-1.392 4.064-3.456 4.064zm-.144-.752c1.728 0 2.704-1.44 2.704-3.312 0-1.872-.976-3.296-2.704-3.296-1.072 0-2.096.64-2.544 1.376v3.824c.448.736 1.472 1.408 2.544 1.408zm11.168.56h-.992l-2.56-3.408L33.6 56h-.992l3.056-3.968-2.88-3.76h.992l2.4 3.184 2.384-3.184h.992l-2.88 3.76L39.728 56zM8.216 101h-.912v-9.424L5.592 93.4l-.56-.592 2.352-2.48h.832V101zm6.176.192c-2.88 0-3.92-2.656-3.92-5.52 0-2.736 1.136-5.504 4.08-5.504 1.392 0 2.24.56 2.88 1.36l-.544.672c-.512-.704-1.168-1.2-2.336-1.2-2.304 0-3.152 2.416-3.152 4.688 0 .16 0 .336.016.496.448-.736 1.68-1.776 3.12-1.776 1.92 0 3.44 1.104 3.44 3.376 0 1.744-1.312 3.408-3.584 3.408zm-.032-.832c1.824 0 2.688-1.408 2.688-2.56 0-1.744-1.136-2.576-2.672-2.576-1.168 0-2.304.752-2.912 1.824.128 1.456.896 3.312 2.896 3.312zm9.344.832c-1.088 0-2.064-.56-2.688-1.44v4.192h-.832V93.272h.832v1.216a3.32 3.32 0 0 1 2.688-1.408c2.064 0 3.456 1.568 3.456 4.048 0 2.464-1.392 4.064-3.456 4.064zm-.144-.752c1.728 0 2.704-1.44 2.704-3.312 0-1.872-.976-3.296-2.704-3.296-1.072 0-2.096.64-2.544 1.376v3.824c.448.736 1.472 1.408 2.544 1.408zm11.168.56h-.992l-2.56-3.408L28.6 101h-.992l3.056-3.968-2.88-3.76h.992l2.4 3.184 2.384-3.184h.992l-2.88 3.76L34.728 101zM10.016 181.192c-1.744 0-3.024-.816-3.632-1.776l.624-.544c.592.848 1.632 1.488 2.992 1.488 1.648 0 2.688-.864 2.688-2.272 0-1.536-1.264-2.16-2.864-2.16-.432 0-.832 0-.992.016v-.864c.16.016.56.016.992.016 1.408 0 2.704-.608 2.704-2.032 0-1.328-1.184-2.064-2.56-2.064-1.216 0-2.08.48-2.864 1.36l-.576-.576c.752-.912 1.936-1.616 3.488-1.616 1.856 0 3.44 1.008 3.44 2.816 0 1.632-1.376 2.336-2.288 2.496.928.096 2.448.896 2.448 2.656 0 1.76-1.328 3.056-3.6 3.056zM22.512 181h-7.04v-.752c3.632-2.928 6.064-5.008 6.064-7.072 0-1.536-1.264-2.176-2.432-2.176-1.328 0-2.352.576-2.928 1.392l-.624-.576c.752-1.024 2.048-1.648 3.552-1.648 1.568 0 3.36.896 3.36 3.008 0 2.352-2.48 4.496-5.568 6.992h5.616V181zm6.192.192c-1.088 0-2.064-.56-2.688-1.44v4.192h-.832v-10.672h.832v1.216a3.32 3.32 0 0 1 2.688-1.408c2.064 0 3.456 1.568 3.456 4.048 0 2.464-1.392 4.064-3.456 4.064zm-.144-.752c1.728 0 2.704-1.44 2.704-3.312 0-1.872-.976-3.296-2.704-3.296-1.072 0-2.096.64-2.544 1.376v3.824c.448.736 1.472 1.408 2.544 1.408zm11.168.56h-.992l-2.56-3.408L33.6 181h-.992l3.056-3.968-2.88-3.76h.992l2.4 3.184 2.384-3.184h.992l-2.88 3.76L39.728 181z" fill="#666"/><g transform="translate(55 73)"><use fill="#FFF" xlink:href="#a"/><rect stroke="#1D1D1B" x="1.5" y="31.5" width="295" height="55" rx="2"/></g><path d="M62.408 88h-6.08V77.328h.912v9.84h5.168V88zm7.424 0H69v-.912c-.688.752-1.552 1.104-2.624 1.104-1.328 0-2.704-.912-2.704-2.576 0-1.68 1.36-2.56 2.704-2.56 1.072 0 1.952.352 2.624 1.104v-1.568c0-1.152-.928-1.776-2.08-1.776-.96 0-1.712.336-2.416 1.136l-.464-.576c.8-.864 1.696-1.296 2.976-1.296 1.568 0 2.816.752 2.816 2.48V88zm-3.168-.464c.928 0 1.792-.352 2.336-1.056v-1.696c-.544-.704-1.408-1.072-2.336-1.072-1.28 0-2.112.816-2.112 1.92 0 1.088.832 1.904 2.112 1.904zm6.592-1.472c.448.736 1.472 1.376 2.544 1.376 1.728 0 2.704-1.424 2.704-3.296 0-1.872-.976-3.312-2.704-3.312-1.072 0-2.096.672-2.544 1.408v3.824zm0 1.936h-.832V77.328h.832v4.192c.624-.88 1.6-1.44 2.688-1.44 2.064 0 3.456 1.616 3.456 4.064 0 2.48-1.408 4.048-3.456 4.048a3.292 3.292 0 0 1-2.688-1.424V88zm11.728.192c-2.256 0-3.872-1.68-3.872-4.064 0-2.24 1.584-4.048 3.728-4.048 2.352 0 3.648 1.872 3.648 4.096v.224h-6.464c.08 1.68 1.2 3.072 3.024 3.072.976 0 1.872-.368 2.528-1.072l.432.544c-.768.8-1.744 1.248-3.024 1.248zm2.656-4.448c-.016-1.312-.88-2.944-2.816-2.944-1.824 0-2.736 1.6-2.8 2.944h5.616zM91.464 88h-.832V77.328h.832V88zm8.8 2.816l-.496.368a12.72 12.72 0 0 1-2.128-7.072c0-2.576.752-4.992 2.128-7.072l.496.352c-1.008 2.064-1.696 3.936-1.696 6.72 0 2.768.688 4.656 1.696 6.704zM104.136 88h-.912v-9.424l-1.712 1.824-.56-.592 2.352-2.48h.832V88zm6.176.192c-2.88 0-3.92-2.656-3.92-5.52 0-2.736 1.136-5.504 4.08-5.504 1.392 0 2.24.56 2.88 1.36l-.544.672c-.512-.704-1.168-1.2-2.336-1.2-2.304 0-3.152 2.416-3.152 4.688 0 .16 0 .336.016.496.448-.736 1.68-1.776 3.12-1.776 1.92 0 3.44 1.104 3.44 3.376 0 1.744-1.312 3.408-3.584 3.408zm-.032-.832c1.824 0 2.688-1.408 2.688-2.56 0-1.744-1.136-2.576-2.672-2.576-1.168 0-2.304.752-2.912 1.824.128 1.456.896 3.312 2.896 3.312zm9.344.832c-1.088 0-2.064-.56-2.688-1.44v4.192h-.832V80.272h.832v1.216a3.32 3.32 0 0 1 2.688-1.408c2.064 0 3.456 1.568 3.456 4.048 0 2.464-1.392 4.064-3.456 4.064zm-.144-.752c1.728 0 2.704-1.44 2.704-3.312 0-1.872-.976-3.296-2.704-3.296-1.072 0-2.096.64-2.544 1.376v3.824c.448.736 1.472 1.408 2.544 1.408zm11.168.56h-.992l-2.56-3.408L124.52 88h-.992l3.056-3.968-2.88-3.76h.992l2.4 3.184 2.384-3.184h.992l-2.88 3.76L130.648 88zm.992.32h-.72l3.792-11.312h.72L131.64 88.32zm11.728-.32h-7.04v-.752c3.632-2.928 6.064-5.008 6.064-7.072 0-1.536-1.264-2.176-2.432-2.176-1.328 0-2.352.576-2.928 1.392l-.624-.576c.752-1.024 2.048-1.648 3.552-1.648 1.568 0 3.36.896 3.36 3.008 0 2.352-2.48 4.496-5.568 6.992h5.616V88zm7.904 0h-.912v-2.912h-5.056v-.816l4.736-6.944h1.232v6.928h1.568v.832h-1.568V88zm-.912-3.744V78.24l-4.112 6.016h4.112zm7.856 3.936c-1.088 0-2.064-.56-2.688-1.44v4.192h-.832V80.272h.832v1.216a3.32 3.32 0 0 1 2.688-1.408c2.064 0 3.456 1.568 3.456 4.048 0 2.464-1.392 4.064-3.456 4.064zm-.144-.752c1.728 0 2.704-1.44 2.704-3.312 0-1.872-.976-3.296-2.704-3.296-1.072 0-2.096.64-2.544 1.376v3.824c.448.736 1.472 1.408 2.544 1.408zm11.168.56h-.992l-2.56-3.408L163.112 88h-.992l3.056-3.968-2.88-3.76h.992l2.4 3.184 2.384-3.184h.992l-2.88 3.76L169.24 88zm1.04 3.184l-.496-.368c1.024-2.048 1.696-3.936 1.696-6.704 0-2.784-.672-4.656-1.696-6.72l.496-.352a12.735 12.735 0 0 1 0 14.144z" fill="#1D1D1B"/><g fill="#1D1D1B"><path d="M62.408 208h-6.08v-10.672h.912v9.84h5.168V208zm7.424 0H69v-.912c-.688.752-1.552 1.104-2.624 1.104-1.328 0-2.704-.912-2.704-2.576 0-1.68 1.36-2.56 2.704-2.56 1.072 0 1.952.352 2.624 1.104v-1.568c0-1.152-.928-1.776-2.08-1.776-.96 0-1.712.336-2.416 1.136l-.464-.576c.8-.864 1.696-1.296 2.976-1.296 1.568 0 2.816.752 2.816 2.48V208zm-3.168-.464c.928 0 1.792-.352 2.336-1.056v-1.696c-.544-.704-1.408-1.072-2.336-1.072-1.28 0-2.112.816-2.112 1.92 0 1.088.832 1.904 2.112 1.904zm6.592-1.472c.448.736 1.472 1.376 2.544 1.376 1.728 0 2.704-1.424 2.704-3.296 0-1.872-.976-3.312-2.704-3.312-1.072 0-2.096.672-2.544 1.408v3.824zm0 1.936h-.832v-10.672h.832v4.192c.624-.88 1.6-1.44 2.688-1.44 2.064 0 3.456 1.616 3.456 4.064 0 2.48-1.408 4.048-3.456 4.048a3.292 3.292 0 0 1-2.688-1.424V208zm11.728.192c-2.256 0-3.872-1.68-3.872-4.064 0-2.24 1.584-4.048 3.728-4.048 2.352 0 3.648 1.872 3.648 4.096v.224h-6.464c.08 1.68 1.2 3.072 3.024 3.072.976 0 1.872-.368 2.528-1.072l.432.544c-.768.8-1.744 1.248-3.024 1.248zm2.656-4.448c-.016-1.312-.88-2.944-2.816-2.944-1.824 0-2.736 1.6-2.8 2.944h5.616zM91.464 208h-.832v-10.672h.832V208zm8.8 2.816l-.496.368a12.72 12.72 0 0 1-2.128-7.072c0-2.576.752-4.992 2.128-7.072l.496.352c-1.008 2.064-1.696 3.936-1.696 6.72 0 2.768.688 4.656 1.696 6.704zm3.872-2.816h-.912v-9.424l-1.712 1.824-.56-.592 2.352-2.48h.832V208zm6.176.192c-2.88 0-3.92-2.656-3.92-5.52 0-2.736 1.136-5.504 4.08-5.504 1.392 0 2.24.56 2.88 1.36l-.544.672c-.512-.704-1.168-1.2-2.336-1.2-2.304 0-3.152 2.416-3.152 4.688 0 .16 0 .336.016.496.448-.736 1.68-1.776 3.12-1.776 1.92 0 3.44 1.104 3.44 3.376 0 1.744-1.312 3.408-3.584 3.408zm-.032-.832c1.824 0 2.688-1.408 2.688-2.56 0-1.744-1.136-2.576-2.672-2.576-1.168 0-2.304.752-2.912 1.824.128 1.456.896 3.312 2.896 3.312zm9.344.832c-1.088 0-2.064-.56-2.688-1.44v4.192h-.832v-10.672h.832v1.216a3.32 3.32 0 0 1 2.688-1.408c2.064 0 3.456 1.568 3.456 4.048 0 2.464-1.392 4.064-3.456 4.064zm-.144-.752c1.728 0 2.704-1.44 2.704-3.312 0-1.872-.976-3.296-2.704-3.296-1.072 0-2.096.64-2.544 1.376v3.824c.448.736 1.472 1.408 2.544 1.408zm11.168.56h-.992l-2.56-3.408L124.52 208h-.992l3.056-3.968-2.88-3.76h.992l2.4 3.184 2.384-3.184h.992l-2.88 3.76 3.056 3.968zm.992.32h-.72l3.792-11.312h.72l-3.792 11.312zm11.728-.32h-7.04v-.752c3.632-2.928 6.064-5.008 6.064-7.072 0-1.536-1.264-2.176-2.432-2.176-1.328 0-2.352.576-2.928 1.392l-.624-.576c.752-1.024 2.048-1.648 3.552-1.648 1.568 0 3.36.896 3.36 3.008 0 2.352-2.48 4.496-5.568 6.992h5.616V208zm7.904 0h-.912v-2.912h-5.056v-.816l4.736-6.944h1.232v6.928h1.568v.832h-1.568V208zm-.912-3.744v-6.016l-4.112 6.016h4.112zm7.856 3.936c-1.088 0-2.064-.56-2.688-1.44v4.192h-.832v-10.672h.832v1.216a3.32 3.32 0 0 1 2.688-1.408c2.064 0 3.456 1.568 3.456 4.048 0 2.464-1.392 4.064-3.456 4.064zm-.144-.752c1.728 0 2.704-1.44 2.704-3.312 0-1.872-.976-3.296-2.704-3.296-1.072 0-2.096.64-2.544 1.376v3.824c.448.736 1.472 1.408 2.544 1.408zm11.168.56h-.992l-2.56-3.408-2.576 3.408h-.992l3.056-3.968-2.88-3.76h.992l2.4 3.184 2.384-3.184h.992l-2.88 3.76L169.24 208zm1.04 3.184l-.496-.368c1.024-2.048 1.696-3.936 1.696-6.704 0-2.784-.672-4.656-1.696-6.72l.496-.352a12.735 12.735 0 0 1 0 14.144z"/></g></g></svg>