<svg width="104" height="48" xmlns="http://www.w3.org/2000/svg"><g fill="none"><path d="M94.37 44.76c-.03-.26-.02-1.57-.06-2.94h.2s1.12 3.46 3.32 2.83c.38-.1.7-.38.81-.75.72-2.26-3.68-1.85-4.23-3.94-.64-2.46 2.57-3.67 4.67-2.4.12.24.4 2.14.41 2.14 0 0-.27.04-.3 0-.04 0-.49-1.41-1.58-1.94-.23-.1-1.63-.4-1.94.75-.58 2.21 5.43 1.43 4.19 5.04a2.42 2.42 0 0 1-1.4 1.48c-.82.38-2.03.27-2.9.11-.39-.06-.83-.26-1.2-.38m-6.93-7.56c5.25-.5 6.62 7.01 1.06 7.9-5.87.94-7.3-7.3-1.06-7.9m.35.51c-3.7 0-3.19 7.53.26 6.93 3.17-.55 2.86-6.93-.26-6.93m-43-.56c-.03.2 0 1.2 0 1.52 2.62-3.38 4.24.3 2.69.73-1.03.28-.87-.75-1.74-.67-.3.03-.61.28-.83.92a2 2 0 0 0-.12.67c0 1.38-.05 3.02.07 3.5.2.75 1.04 1.08 1.5 1.04v.23h-4.67v-.21c.35.01 1.34-.49 1.33-1.25-.01-2.14.06-3.6-.1-4.15a1.4 1.4 0 0 0-.85-.9c-.1-.04-.6-.17-.2-.3 1.15-.34 1.97-.66 2.92-1.13m-15.54 1.34c1.35.37 2.49 1.3 2.7 2.53.67 3.98-4.18 4.28-7.52 4.01-1.05-.08-2.05.06-2.7.06v-.4c.72-.07 1.35-.24 1.35-1.1v-9.56c0-.72-.64-.99-1.32-.99a1.44 1.44 0 0 1 0-.4c3.97.17 8.57-.74 9.32 2.46.56 2.35-1.57 3.07-1.83 3.4m-4 5.84c.9.37 1.62.4 2.5.23 2.85-.57 3.26-4.8.19-5.48-.72-.16-2.7-.18-2.7-.07v5.32m.02-11.1c-.03 0-.02 5.19-.02 5.19 0 .18 1.98.04 2.45-.16 2.51-1.06 2.16-4.68-.7-4.97a7.5 7.5 0 0 0-1.73-.06m15.42 11.32l.08.26s-.32.16-.53.22c-1.84.53-1.9-1.12-1.9-1.12-.02-.01-.07-.24-.29.01-1.1 1.27-4.78 2.14-4.53-.46.09-.92.7-1.51 1.65-2.04 1.09-.61 2.76-.98 2.9-1.3.11-.29.06-1.38.06-1.69 0-.64-.79-.54-1.06-.48-.87.18-1.38.92-1.38 1.16.03 1.3-1.09 1.83-1.69 1.43-.9-.61-.03-2.02 1.44-2.66a6.7 6.7 0 0 1 2.57-.68c1.5-.08 1.94.59 1.94 1.93 0 0-.02 5.08 0 5.08 0 0-.04.49.74.34m-2.58-3.73c-.26.11-2.35.96-2.76 1.74-.18.34-.25.62-.04 1.05.51 1.05 2.79.18 2.8-.52v-2.27m28.03 3.73c.05.12.08.27.08.27s-.32.15-.53.22c-1.83.52-1.9-1.13-1.9-1.13-.01 0-.07-.24-.29.01-1.1 1.27-4.77 2.14-4.53-.45.1-.93.7-1.52 1.65-2.05 1.09-.61 2.76-.98 2.9-1.3.11-.29.06-1.38.06-1.69 0-.64-.79-.54-1.06-.48-.86.19-1.38.93-1.38 1.16.03 1.3-1.08 1.83-1.69 1.43-.9-.6-.03-2.02 1.44-2.66.82-.36 1.5-.62 2.57-.67 1.51-.09 1.94.58 1.94 1.92 0 0-.02 5.08 0 5.09 0 0-.04.48.74.33m-2.58-3.72c-.26.1-2.35.95-2.76 1.74-.18.33-.25.61-.04 1.04.51 1.05 2.79.18 2.8-.52v-2.26" fill="#231F20"/><path d="M81.62 32.05c.02.83 0 10.47 0 10.47.09.97-.08 1.3 1.05 1.92l.01.14c-.9.14-1.8.35-2.68.62v-1.13c0-.86-.57 1.04-2.79 1.14-4.72.2-4.92-8.92 2.11-7.92.57.08.7.45.63-.2v-2.47s.06-.58-1.32-1.21c-.07-.22.21-.26.33-.28.84-.18 1.89-.71 2.66-1.08m-3.54 5.67c-3.82.53-2.92 7.09.24 6.58.63-.1 1.67-1.16 1.65-1.78-.02-.65.02-3.14-.03-3.71-.07-.73-1.1-1.2-1.86-1.09m-26.27-.55h.03v1.34c.09-.04.71-.55 1.69-.92.39-.15 3.02-.84 3.08 1.5.02.8 0 3.7 0 4.14a1.6 1.6 0 0 0 1.4 1.66v.22h-4.23c.01-.07-.01-.22-.01-.22s1.08-.07 1.08-1.55v-3.91c0-1.43-1.57-1.59-3 .16v3.64c0 .47.08 1.48 1.21 1.66v.23h-4.25v-.23s1.21-.2 1.21-1.66v-3.66c-.14-.86-1.16-1.1-1.15-1.1l-.01-.24c.98-.3 1.93-.61 2.95-1.06" fill="#231F20"/><path d="M70.18 37.18c-.03.19 0 1.2 0 1.51 2.62-3.37 4.24.31 2.69.74-1.03.28-.87-.76-1.74-.67-.3.03-.61.28-.83.92-.04.11-.12.34-.12.66 0 1.4-.05 3.03.07 3.5.19.76 1.04 1.09 1.5 1.05v.23a303 303 0 0 0-4.67 0v-.21c.35 0 1.34-.5 1.33-1.26-.01-2.13.06-3.59-.1-4.15a1.41 1.41 0 0 0-.85-.9c-.1-.03-.6-.16-.2-.29 1.15-.35 1.97-.66 2.92-1.13zm21.75-.12c.1-.1.64-.56.6-1.04a1.06 1.06 0 0 0-.27-.68c-.23-.21-.45-.42-.45-.88 0-.47.33-.82.8-.87.8 0 1.14.52 1.14 1.18 0 1.1-.69 1.98-1.57 2.58l-.25-.3z" fill="#231F20"/><path d="M9.25 34.1c.41 0 .75-.48.75-1.06 0-.58-.34-1.06-.75-1.06-.42 0-.75.48-.75 1.06 0 .58.33 1.05.75 1.05zm7.7 1.07c-1.3-.82-2.15-.5-3.43-1.39a4.02 4.02 0 0 1-1.6-2.04c-.2-.48-.28-.63-.42-.63-.1 0-.21.02-.21.5v.05c0 .59-.4 2.57-2.04 2.57-1.52 0-2.02-1.9-2.02-2.6v-.03c0-.47-.12-.49-.21-.49-.14 0-.23.15-.43.64a3.9 3.9 0 0 1-1.6 2.03c-1.28.9-2.12.57-3.43 1.4-1.3.8-2.02 2.32-1.68 2.52.24.14.52-.27.8-.63.57-.72 1.65-1.3 2.1-.9.55.5-.03 1.27-.49 2.38-.4.96-.35 2.08-.26 3.01.15 1.7-.61 2.24-.16 2.53.46.3 1.22-1.06 1.39-2.72.09-.85.06-1.69.38-1.69.38 0 .38 1.64.26 2.45-.22 1.56-1.05 2.34-.9 3.94.1 1.13.8 1.18.82.04.02-1.86 1.79-2.82 1.65-6.08-.07-1.95-.36-3.41.67-5.51.18-.38.47-1.02.7-1.62.09.22.27.64.38.84 1.18 1.94 1.2 1.95.74 3.7-.62 2.37.56 3.35.35 4.9-.13.91.42.94.66.02.28-1.12-.19-1.78-.16-2.91 0-.59.2-1.7.56-1.63.23.04.05.56 0 1.19-.06.96.24 2.24.66 2.12.41-.12-.06-.58.22-1.77.16-.7.46-1.57.28-2.37-.38-1.61.52-2.8.73-3.18.16-.28.3-.63.4-.93.23.6.53 1.25.72 1.64 1.02 2.1.74 3.56.66 5.51-.13 3.26 1.63 4.22 1.66 6.08.01 1.14.71 1.1.82-.04.14-1.6-.68-2.38-.9-3.94-.13-.81-.13-2.45.25-2.45.33 0 .3.84.38 1.7.17 1.65.94 3 1.4 2.71.45-.3-.32-.84-.16-2.53.08-.93.12-2.05-.27-3-.46-1.12-1.03-1.9-.49-2.38.45-.41 1.53.17 2.1.89.28.36.56.77.8.63.35-.2-.37-1.71-1.67-2.53zM14.24 34c.41.26 1.05-.01 1.41-.6.37-.6.33-1.3-.08-1.56-.41-.26-1.05.01-1.41.6-.37.6-.33 1.3.08 1.56zM4.3 34c.4-.26.45-.96.08-1.55-.37-.6-1-.87-1.41-.61-.41.26-.45.95-.09 1.55.37.6 1 .87 1.42.6zm14.69 14.44H-.43V29.15h19.41v19.28zm8.56-37.03c1.02 0 1.64-.13 2.02-.44.36-.3.58-.86.58-1.48 0-.63-.22-1.14-.6-1.43-.45-.35-.98-.46-2.15-.46h-1.67v3.81h1.82zm-.25-5.06c1.16 0 1.64-.12 2.03-.51.32-.28.47-.7.47-1.2 0-.58-.18-1.04-.51-1.3-.37-.28-.87-.4-1.8-.4h-1.76v3.4h1.57zm-5.61 5.04h.64c.98 0 1.08-.1 1.08-1V3.94c0-.92-.1-1.02-1.08-1.02h-.64V1.67h6.34c2.74 0 4.09.89 4.09 2.7 0 1.34-.58 1.98-2.22 2.46.94.23 1.34.41 1.77.77.58.48.88 1.19.88 2.07 0 .94-.33 1.7-.95 2.17-.76.58-1.79.8-3.89.8h-6.02v-1.26zm17.7-3.6c-.19-1.5-.59-2.05-1.53-2.05-.98 0-1.5.6-1.77 2.05h3.3zm2.11 2.1c-.21 1.2-.51 1.77-1.22 2.3-.67.5-1.5.75-2.49.75-2.41 0-4.02-1.66-4.02-4.13 0-2.48 1.64-4.15 4.09-4.15 1.24 0 2.17.37 2.8 1.15.61.74.82 1.5.9 3.13H36c.07 1.04.2 1.48.52 1.94.36.51.84.74 1.55.74.56 0 1.06-.14 1.38-.4.3-.27.46-.58.66-1.32h1.37zm4.36.68c0 .8.16.97.94.97h.51v1.1H42.4v-1.1h.5c.79 0 .95-.16.95-.97V3.74c0-.8-.16-.97-.96-.97h-.5v-1.1h3.47v8.9zm5.84-7.8c0 .67-.55 1.21-1.2 1.21-.7 0-1.25-.54-1.25-1.25 0-.64.56-1.18 1.22-1.18.68 0 1.23.54 1.23 1.21zm-3.63 8.77h.6c.78 0 .94-.18.94-.97V7c0-.8-.16-.97-.94-.97h-.6v-1.1h3.55v5.63c0 .8.16.97.94.97h.5v1.1h-4.99v-1.1zm11.46-3.75c-.18-1.5-.58-2.05-1.52-2.05-.98 0-1.51.6-1.77 2.05h3.29zm2.12 2.1c-.22 1.2-.52 1.77-1.23 2.3a4 4 0 0 1-2.48.75c-2.42 0-4.02-1.66-4.02-4.13 0-2.48 1.64-4.15 4.09-4.15 1.24 0 2.16.37 2.8 1.15.6.74.82 1.5.89 3.13h-5.53c.06 1.04.2 1.48.51 1.94.37.51.85.74 1.56.74.56 0 1.06-.14 1.37-.4.3-.27.46-.58.66-1.32h1.38zm1.85-3.03c-.2-.6-.46-.82-.9-.82h-.45v-1.1h4.27v1.1h-.27c-.46 0-.64.11-.64.4 0 .17.05.43.14.7l1.23 3.56 1.32-3.71c.07-.18.1-.36.1-.54 0-.28-.23-.42-.73-.42h-.4v-1.1H71v1.1h-.41c-.43 0-.75.32-1 1l-1.98 5.61h-2.1l-2-5.78zm13.5.92c-.18-1.5-.58-2.05-1.52-2.05-.98 0-1.5.6-1.77 2.05H77zm2.12 2.1c-.22 1.2-.51 1.77-1.23 2.3-.66.5-1.48.75-2.48.75-2.42 0-4.02-1.66-4.02-4.13 0-2.48 1.64-4.15 4.09-4.15 1.24 0 2.17.37 2.8 1.15.6.74.82 1.5.89 3.13h-5.53c.07 1.04.2 1.48.51 1.94.37.51.85.74 1.56.74.56 0 1.06-.14 1.37-.4.3-.27.47-.58.67-1.32h1.37zm8.74-7.13c0 .68-.55 1.22-1.2 1.22a1.23 1.23 0 0 1-1.25-1.25 1.22 1.22 0 0 1 2.09-.83c.23.23.36.54.36.86zm-3.63 8.78h.6c.78 0 .94-.18.94-.97V7c0-.8-.16-.97-.94-.97h-.6v-1.1h3.55v5.63c0 .8.16.97.94.97h.5v1.1h-4.98v-1.1zm5.77 0h.52c.78 0 .95-.16.95-.97V7c0-.81-.17-.97-.95-.97H90v-1.1h3.45v1.34c1.03-1.2 1.74-1.6 2.8-1.6.72 0 1.44.27 1.86.68.41.41.56 1 .56 2.17v3.04c0 .8.17.97.94.97h.47v1.1H95.4v-1.1h.33c.78 0 .94-.16.94-.97V7.52c0-.67-.05-.9-.23-1.15a1.27 1.27 0 0 0-1-.43c-.57 0-1.13.3-1.51.8-.37.49-.48.91-.48 1.83v2c0 .8.16.96.94.96h.33v1.1H90v-1.1zM29.23 24.1c-.12 1.28-.34 1.89-.85 2.48-.58.65-1.47 1-2.63 1-2.42 0-4-1.6-4-4.1 0-2.47 1.75-4.17 4.3-4.17 1.88 0 3.24 1 3.24 2.37 0 .84-.53 1.4-1.29 1.4-.7 0-1.2-.45-1.2-1.09 0-.57.3-.9.95-1.02-.63-.46-.96-.59-1.54-.59-1.42 0-2.22 1.09-2.22 3.04 0 1.78.7 2.68 2.04 2.68 1.16 0 1.67-.54 1.92-2h1.28zm.69-7.76h3.36v4.6c1.03-1.18 1.74-1.6 2.78-1.6.71 0 1.44.27 1.86.68.41.41.56 1 .56 2.17v3.04c0 .8.16.97.94.97h.47v1.1h-4.66v-1.1h.33c.77 0 .93-.16.93-.97v-3.04c0-.67-.05-.9-.23-1.15-.2-.26-.56-.43-.98-.43-.58 0-1.14.3-1.52.8-.36.47-.48.95-.48 1.9v1.92c0 .8.17.97.94.97h.33v1.1h-4.63v-1.1h.43c.78 0 .94-.16.94-.97V18.4c0-.8-.16-.97-.94-.97h-.43v-1.1zm14.3 1.08a1.2 1.2 0 0 1-1.2 1.22 1.23 1.23 0 0 1-1.25-1.25 1.22 1.22 0 0 1 2.1-.83c.22.23.35.54.35.86zM40.6 26.2h.6c.77 0 .94-.18.94-.97v-3.57c0-.78-.17-.97-.95-.97h-.6v-1.1h3.55v5.64c0 .79.17.97.94.97h.5v1.1H40.6v-1.1zm9.14-.97c0 .8.16.97.94.97h.51v1.1h-4.91v-1.1h.5c.79 0 .95-.16.95-.97V18.4c0-.8-.16-.97-.96-.97h-.5v-1.1h3.47v8.89zm4.63-1.8c0 1.85.61 2.79 1.8 2.79 1.25 0 1.94-.99 1.94-2.75s-.7-2.74-1.93-2.74c-1.18 0-1.8.93-1.8 2.7zm2.1-7.1h3.63v8.9c0 .8.16.97.94.97h.47v1.1h-3.4v-1.35c-.68 1.19-1.34 1.58-2.6 1.58-2.15 0-3.4-1.5-3.4-4.1 0-2.62 1.25-4.12 3.39-4.12 1.27 0 1.93.4 2.61 1.57V18.4c0-.8-.16-.97-.94-.97h-.7v-1.1zm11 10.97h-5.24v-1.1h.53c.78 0 .95-.18.95-.97v-3.57c0-.8-.17-.97-.95-.97h-.53v-1.1h3.46v1.15c.63-.98 1.21-1.36 2.1-1.36 1.13 0 1.96.74 1.96 1.76 0 .8-.55 1.38-1.32 1.38-.68 0-1.13-.4-1.13-1 0-.56.28-.88 1-1.1a2.8 2.8 0 0 0-.73-.17c-.47 0-1.03.36-1.36.89a3.7 3.7 0 0 0-.51 2v2.09c0 .79.16.97.94.97h.83v1.1zM76 22.44c-.18-1.51-.58-2.05-1.53-2.05-.97 0-1.5.6-1.77 2.05H76zm2.12 2.1c-.22 1.2-.52 1.76-1.23 2.3a4 4 0 0 1-2.48.75c-2.42 0-4.02-1.66-4.02-4.13 0-2.48 1.63-4.16 4.08-4.16 1.25 0 2.17.38 2.8 1.15.61.74.83 1.5.9 3.14h-5.53c.06 1.04.2 1.48.5 1.94.37.51.85.74 1.56.74.57 0 1.06-.15 1.38-.4.3-.27.46-.58.66-1.32h1.37zm.97 1.65h.53c.78 0 .95-.16.95-.97v-3.57c0-.8-.17-.97-.95-.97h-.53v-1.1h3.46v1.35c1.03-1.2 1.74-1.6 2.8-1.6.71 0 1.44.27 1.86.68.4.4.56 1 .56 2.17v3.04c0 .8.16.97.94.97h.47v1.1h-4.67v-1.1h.33c.78 0 .94-.17.94-.97v-3.04c0-.68-.05-.9-.23-1.15a1.27 1.27 0 0 0-1-.43c-.57 0-1.13.3-1.52.8-.36.48-.48.9-.48 1.83v1.99c0 .8.17.97.95.97h.33v1.1H79.1v-1.1z" fill="#82BC00"/></g></svg>
