<svg width="118" height="56" xmlns="http://www.w3.org/2000/svg"><g fill="none" fill-rule="evenodd"><path d="M0 0h120v56H0z"/><g fill-rule="nonzero"><path d="M111.26 51.054c-.027-.299-.02-1.838-.066-3.43.066-.002.238.008.238.008s1.307 4.027 3.873 3.293c.435-.124.806-.438.945-.872.837-2.64-4.295-2.167-4.935-4.605-.754-2.866 2.996-4.281 5.443-2.79.14.273.472 2.49.482 2.493.006.004-.322.042-.358 0-.044 0-.56-1.65-1.84-2.261-.265-.127-1.9-.477-2.255.877-.678 2.576 6.33 1.662 4.88 5.869-.307.89-.863 1.386-1.622 1.736-.966.444-2.376.31-3.4.127-.441-.077-.959-.302-1.385-.445m-8.095-8.824c6.124-.583 7.729 8.185 1.241 9.224-6.845 1.098-8.517-8.531-1.241-9.225m.416.6c-4.31 0-3.721 8.786.296 8.09 3.706-.642 3.337-8.09-.296-8.09m-50.174-.657c-.032.227.003 1.395 0 1.772 3.063-3.94 4.948.364 3.136.857-1.195.325-1.014-.88-2.027-.78-.357.035-.713.327-.967 1.07a2.333 2.333 0 0 0-.139.78c-.003 1.617-.058 3.53.083 4.089.222.873 1.209 1.26 1.754 1.214v.264a414.148 414.148 0 0 0-5.453 0v-.245c.404.012 1.56-.569 1.554-1.46-.015-2.49.068-4.191-.112-4.845-.131-.484-.527-.857-.997-1.048-.112-.045-.706-.197-.24-.341 1.345-.408 2.303-.774 3.408-1.327m-18.13 1.57c1.578.426 2.905 1.517 3.15 2.95.784 4.642-4.877 4.988-8.768 4.68-1.225-.097-2.393.07-3.15.063v-.472c.836-.07 1.575-.273 1.575-1.273V38.531c0-.841-.753-1.148-1.54-1.15a1.685 1.685 0 0 1-.01-.467c4.64.203 10.011-.868 10.886 2.87.646 2.744-1.836 3.586-2.143 3.958m-4.669 6.817c1.065.433 1.891.468 2.918.268 3.33-.656 3.813-5.586.226-6.39-.835-.19-3.144-.209-3.144-.079 0 .001-.006 5.532 0 6.201m.013-12.947c-.028-.003-.014 6.051-.014 6.051 0 .218 2.304.048 2.849-.178 2.933-1.235 2.52-5.46-.805-5.803-.922-.097-2.03-.144-2.03-.07m17.992 13.206c.054.137.1.31.1.31s-.374.185-.621.254c-2.143.615-2.217-1.309-2.217-1.309-.02-.011-.085-.278-.338.015-1.282 1.48-5.573 2.489-5.285-.534.103-1.083.823-1.772 1.925-2.388 1.27-.713 3.22-1.14 3.38-1.525.133-.326.072-1.604.072-1.96 0-.753-.92-.628-1.232-.56-1.016.214-1.615 1.078-1.61 1.353.029 1.512-1.274 2.131-1.975 1.666-1.061-.71-.04-2.358 1.679-3.106.957-.416 1.745-.714 2.993-.784 1.765-.095 2.266.68 2.266 2.243 0 0-.026 5.926-.005 5.936.001-.003-.037.563.868.389M45.6 46.472c-.302.128-2.742 1.115-3.219 2.03-.204.391-.29.723-.044 1.224.596 1.219 3.253.208 3.266-.61.012-.842 0-2.636-.003-2.644m32.706 4.348c.055.137.099.31.099.31s-.373.183-.62.256c-2.142.614-2.216-1.31-2.216-1.31-.019-.012-.084-.28-.338.013-1.283 1.48-5.573 2.489-5.285-.533.102-1.085.823-1.77 1.925-2.39 1.267-.713 3.22-1.137 3.378-1.523.131-.327.073-1.604.073-1.96 0-.753-.919-.628-1.233-.562-1.014.217-1.615 1.08-1.61 1.354.028 1.51-1.27 2.132-1.974 1.665-1.06-.707-.04-2.354 1.68-3.103.957-.418 1.746-.717 2.993-.785 1.766-.096 2.266.68 2.266 2.241 0 0-.026 5.926-.003 5.937-.001 0-.04.562.865.39m-3.012-4.345c-.303.127-2.743 1.116-3.221 2.03-.202.39-.289.72-.042 1.223.597 1.218 3.251.208 3.264-.612.013-.842.003-2.634-.001-2.64" fill="#231F20"/><path d="M96.39 36.225c.026.968 0 12.21 0 12.21.1 1.132-.095 1.519 1.224 2.244l.018.163a21.18 21.18 0 0 0-3.134.727c-.007-.624 0-1.322 0-1.322 0-.998-.666 1.209-3.248 1.327-5.517.247-5.749-10.407 2.46-9.239.659.095.804.53.73-.236v-2.872s.075-.676-1.54-1.417c-.075-.258.248-.296.392-.328.98-.205 2.194-.826 3.097-1.257m-4.13 6.617c-4.458.613-3.406 8.27.28 7.672.734-.12 1.946-1.345 1.926-2.071-.021-.764.02-3.665-.037-4.334-.074-.853-1.279-1.39-2.17-1.267m-30.642-.639l.033-.011v1.57c.1-.051.83-.647 1.967-1.076.457-.169 3.523-.974 3.592 1.753.023.936 0 4.311 0 4.827 0 1.767 1.638 1.942 1.638 1.942s0 .123-.003.257h-4.936c.016-.09-.01-.257-.01-.257s1.257-.086 1.257-1.81v-4.563c0-1.672-1.831-1.855-3.491.184v4.247c0 .554.087 1.732 1.412 1.942v.262c-.914.016-4.268 0-4.96 0-.009-.118 0-.262 0-.262s1.41-.233 1.41-1.939c0-1.682.004-4.266.004-4.266-.164-1.013-1.359-1.284-1.352-1.287.008-.006-.005-.2-.007-.28 1.145-.362 2.251-.717 3.446-1.233" fill="#231F20"/><path d="M83.042 42.205c-.034.225.002 1.394-.003 1.77 3.065-3.94 4.948.364 3.139.858-1.198.327-1.014-.88-2.03-.78-.355.035-.712.327-.968 1.07-.046.136-.135.4-.136.779-.003 1.617-.061 3.532.082 4.088.221.874 1.208 1.262 1.754 1.214v.267c-1.359-.018-3.82-.01-5.453 0v-.245c.404.011 1.56-.57 1.555-1.462-.015-2.491.069-4.192-.113-4.845-.133-.482-.527-.858-.997-1.048-.114-.044-.705-.194-.24-.34 1.345-.411 2.304-.773 3.41-1.326m25.371-.136c.13-.117.752-.648.713-1.215-.016-.218-.092-.567-.326-.788-.265-.253-.518-.498-.518-1.024-.014-.556.384-.966.928-1.024.927 0 1.326.614 1.326 1.375 0 1.287-.797 2.31-1.827 3.01l-.296-.334z" fill="#231F20"/><path d="M11.957 38.608c.482 0 .875-.55.875-1.23 0-.676-.393-1.23-.875-1.23-.484 0-.876.552-.876 1.23 0 .681.392 1.23.876 1.23zm8.991 1.26c-1.532-.957-2.511-.578-4.01-1.622-1.152-.8-1.528-1.555-1.863-2.377-.228-.563-.328-.74-.497-.74-.107 0-.24.022-.24.574v.013c0 .019-.003.033-.003.052 0 .69-.46 2.997-2.382 2.997-1.766-.004-2.357-2.21-2.357-3.035v-.025c0-.551-.132-.573-.24-.573-.168 0-.27.174-.497.738-.334.822-.711 1.576-1.861 2.377-1.498 1.044-2.48.665-4.01 1.622-1.526.952-2.356 2.719-1.963 2.947.281.164.614-.314.945-.736.656-.841 1.913-1.52 2.444-1.041.632.57-.034 1.479-.57 2.774-.463 1.111-.412 2.42-.312 3.51.182 1.975-.713 2.61-.188 2.95.537.344 1.43-1.241 1.626-3.174.101-.988.066-1.97.446-1.97.44 0 .44 1.907.304 2.851-.265 1.827-1.227 2.74-1.056 4.607.121 1.314.941 1.368.958.038.026-2.172 2.086-3.285 1.932-7.086-.09-2.275-.42-3.988.775-6.438.214-.443.554-1.186.827-1.885.096.253.3.753.435.977 1.38 2.267 1.389 2.274.858 4.324-.718 2.767.658 3.903.408 5.72-.143 1.057.5 1.088.771.013.327-1.299-.213-2.079-.186-3.392.013-.683.233-1.992.662-1.906.265.053.052.655 0 1.393-.08 1.118.278 2.616.767 2.471.479-.14-.069-.679.251-2.063.19-.814.544-1.826.327-2.77-.435-1.877.61-3.252.857-3.706.18-.331.354-.728.458-1.088.276.704.623 1.462.841 1.912 1.192 2.45.864 4.163.773 6.438-.153 3.8 1.905 4.915 1.934 7.086.016 1.331.836 1.276.957-.038.17-1.867-.791-2.78-1.056-4.607-.137-.944-.137-2.85.303-2.85.382 0 .344.98.447 1.97.196 1.93 1.09 3.515 1.626 3.172.526-.342-.371-.976-.188-2.949.1-1.09.149-2.399-.313-3.51-.535-1.295-1.2-2.205-.57-2.774.53-.479 1.788.2 2.445 1.04.33.423.664.901.944.737.398-.231-.435-1.998-1.959-2.947zm-3.178-1.382c.481.305 1.22-.014 1.646-.708.429-.697.385-1.507-.098-1.81-.48-.305-1.22.012-1.646.707-.429.697-.384 1.509.098 1.811zm-11.603 0c.48-.302.526-1.112.097-1.81-.427-.696-1.165-1.013-1.647-.709-.481.304-.526 1.114-.098 1.81.428.693 1.165 1.014 1.648.71zM23.309 55.33H.662V32.847H23.31V55.33zm9.984-43.197c1.197 0 1.912-.153 2.357-.518.424-.345.675-.996.675-1.725 0-.728-.251-1.324-.695-1.668-.521-.403-1.14-.537-2.51-.537h-1.951v4.448h2.124zm-.29-5.905c1.352 0 1.912-.135 2.376-.595.366-.326.54-.805.54-1.4 0-.672-.212-1.208-.598-1.514-.425-.326-1.004-.461-2.105-.461H31.17v3.97h1.834zm-6.547 5.886h.753c1.14 0 1.256-.115 1.256-1.17V3.429c0-1.074-.116-1.189-1.256-1.189h-.753V.782h7.396c3.207 0 4.771 1.035 4.771 3.145 0 1.571-.676 2.32-2.588 2.875 1.101.269 1.565.48 2.067.902.675.556 1.024 1.38 1.024 2.416 0 1.093-.386 1.975-1.1 2.53-.889.672-2.087.922-4.54.922h-7.03v-1.458zm20.646-4.2c-.213-1.763-.677-2.396-1.778-2.396-1.138 0-1.757.709-2.066 2.396h3.844zm2.472 2.455c-.251 1.4-.6 2.052-1.43 2.684-.772.576-1.737.863-2.896.863-2.82 0-4.693-1.936-4.693-4.812 0-2.896 1.912-4.851 4.77-4.851 1.448 0 2.53.44 3.264 1.342.715.864.965 1.745 1.043 3.662H43.18c.078 1.209.232 1.726.6 2.263.424.594.985.862 1.815.862.656 0 1.236-.172 1.604-.479.347-.306.54-.671.772-1.534h1.603zm5.079.786c0 .94.194 1.131 1.1 1.131h.6v1.284h-5.737v-1.284h.58c.927 0 1.12-.191 1.12-1.131V3.198c0-.939-.193-1.13-1.12-1.13h-.58V.781h4.037v10.373zm6.818-9.108c0 .786-.637 1.418-1.41 1.418-.811 0-1.45-.632-1.45-1.457 0-.746.658-1.379 1.43-1.379.793 0 1.43.633 1.43 1.418zm-4.23 10.24h.695c.908 0 1.101-.211 1.101-1.131V6.995c0-.921-.193-1.132-1.1-1.132h-.696V4.578h4.133v6.578c0 .92.193 1.13 1.1 1.13h.58v1.286h-5.813v-1.286zm13.365-4.373c-.212-1.763-.677-2.396-1.777-2.396-1.14 0-1.757.709-2.066 2.396h3.843zm2.472 2.455c-.252 1.4-.599 2.052-1.43 2.684-.772.576-1.737.863-2.897.863-2.82 0-4.692-1.936-4.692-4.812 0-2.896 1.911-4.851 4.77-4.851 1.449 0 2.53.44 3.264 1.342.715.864.966 1.745 1.043 3.662h-6.451c.077 1.209.231 1.726.599 2.263.424.594.985.862 1.815.862.656 0 1.236-.172 1.603-.479.348-.306.54-.671.772-1.534h1.604zm2.162-3.546c-.231-.691-.54-.96-1.042-.96h-.54V4.578h4.983v1.283h-.31c-.54 0-.753.136-.753.48 0 .193.058.498.174.805l1.43 4.161 1.545-4.334c.077-.21.115-.421.115-.631 0-.327-.27-.48-.85-.48h-.462V4.578h4.461v1.283h-.484c-.502 0-.868.366-1.158 1.152L80.03 13.57h-2.453L75.24 6.823zM91 7.914c-.212-1.763-.676-2.396-1.776-2.396-1.14 0-1.757.709-2.066 2.396H91zm2.473 2.455c-.251 1.4-.599 2.052-1.43 2.684-.771.576-1.737.863-2.896.863-2.82 0-4.693-1.936-4.693-4.812 0-2.896 1.912-4.851 4.77-4.851 1.45 0 2.53.44 3.264 1.342.716.864.967 1.745 1.043 3.662h-6.45c.077 1.209.232 1.726.598 2.263.425.594.985.862 1.815.862.658 0 1.236-.172 1.604-.479.347-.306.54-.671.772-1.534h1.603zm10.197-8.322c0 .786-.637 1.418-1.409 1.418a1.434 1.434 0 0 1-1.449-1.457c0-.746.657-1.379 1.43-1.379a1.42 1.42 0 0 1 1.428 1.418zm-4.23 10.24h.697c.906 0 1.1-.211 1.1-1.131V6.995c0-.921-.193-1.132-1.1-1.132h-.696V4.578h4.133v6.578c0 .92.193 1.13 1.1 1.13h.58v1.286h-5.813v-1.286zm6.721-.001h.618c.909 0 1.102-.191 1.102-1.13V6.995c0-.94-.193-1.132-1.102-1.132h-.618V4.578h4.036v1.573c1.198-1.4 2.029-1.86 3.264-1.86.832 0 1.682.307 2.165.787.482.478.656 1.17.656 2.53v3.548c0 .939.193 1.13 1.101 1.13h.541v1.286h-5.447v-1.286h.386c.908 0 1.101-.191 1.101-1.13V7.609c0-.786-.058-1.056-.27-1.343-.251-.307-.676-.499-1.16-.499-.676 0-1.332.346-1.776.94-.425.557-.56 1.054-.56 2.129v2.32c0 .94.194 1.13 1.1 1.13h.386v1.286h-5.523v-1.286zM35.263 26.933c-.135 1.496-.387 2.205-.986 2.896-.676.766-1.719 1.169-3.071 1.169-2.82 0-4.655-1.877-4.655-4.775 0-2.895 2.028-4.869 5.002-4.869 2.202 0 3.786 1.17 3.786 2.761 0 .978-.618 1.63-1.506 1.63-.811 0-1.391-.518-1.391-1.266 0-.67.348-1.054 1.1-1.187-.733-.537-1.12-.692-1.796-.692-1.66 0-2.588 1.266-2.588 3.547 0 2.071.811 3.127 2.376 3.127 1.353 0 1.951-.634 2.24-2.34l1.489-.001zm.81-9.049h3.921v5.368c1.198-1.38 2.028-1.86 3.246-1.86.83 0 1.679.308 2.162.788.483.477.656 1.167.656 2.53v3.546c0 .94.193 1.133 1.101 1.133h.541v1.283h-5.427V29.39h.386c.888 0 1.081-.193 1.081-1.133V24.71c0-.786-.057-1.054-.27-1.34-.232-.308-.658-.5-1.14-.5-.676 0-1.333.344-1.777.94-.425.536-.56 1.093-.56 2.204v2.244c0 .94.193 1.132 1.101 1.132h.386v1.284h-5.408V29.39h.503c.908 0 1.1-.192 1.1-1.132V20.3c0-.94-.192-1.131-1.1-1.131h-.503l.001-1.285zm16.687 1.264c0 .787-.636 1.42-1.41 1.42a1.433 1.433 0 0 1-1.448-1.457c0-.75.657-1.382 1.43-1.382a1.422 1.422 0 0 1 1.429 1.42zm-4.23 10.24h.695c.909 0 1.102-.211 1.102-1.132v-4.16c0-.92-.193-1.132-1.102-1.132h-.695V21.68h4.134v6.576c0 .92.193 1.132 1.1 1.132h.58v1.284H48.53v-1.283zm10.661-1.132c0 .94.193 1.133 1.101 1.133h.6v1.283h-5.736V29.39h.58c.926 0 1.12-.193 1.12-1.133V20.3c0-.94-.194-1.132-1.12-1.132h-.58v-1.285h4.036v10.373zm5.408-2.109c0 2.168.715 3.26 2.106 3.26 1.448 0 2.26-1.15 2.26-3.203 0-2.05-.812-3.202-2.26-3.202-1.372 0-2.106 1.094-2.106 3.145zm2.453-8.263h4.23v10.372c0 .94.193 1.133 1.1 1.133h.541v1.283h-3.958V29.1c-.793 1.38-1.566 1.842-3.034 1.842-2.51 0-3.959-1.745-3.959-4.794 0-3.048 1.45-4.794 3.94-4.794 1.487 0 2.26.461 3.052 1.822V20.3c0-.94-.194-1.132-1.102-1.132h-.811v-1.284zm12.825 12.788h-6.103V29.39h.618c.907 0 1.1-.212 1.1-1.133v-4.16c0-.94-.193-1.132-1.1-1.132h-.618V21.68h4.036v1.341c.734-1.15 1.41-1.59 2.453-1.59 1.314 0 2.279.862 2.279 2.051 0 .94-.638 1.61-1.545 1.61-.792 0-1.313-.46-1.313-1.17 0-.65.328-1.015 1.158-1.284-.347-.115-.656-.191-.849-.191-.54 0-1.197.421-1.584 1.035-.386.575-.598 1.437-.598 2.339v2.435c0 .92.192 1.133 1.101 1.133h.966l-.001 1.283zm9.965-5.657c-.212-1.763-.675-2.396-1.777-2.396-1.14 0-1.757.71-2.066 2.396h3.843zm2.471 2.455c-.25 1.4-.598 2.052-1.428 2.685-.773.575-1.738.862-2.897.862-2.82 0-4.693-1.936-4.693-4.813 0-2.894 1.912-4.851 4.77-4.851 1.449 0 2.53.442 3.265 1.343.714.863.964 1.745 1.043 3.662H85.92c.078 1.21.231 1.726.599 2.263.424.594.985.863 1.815.863.656 0 1.236-.173 1.604-.48.346-.306.54-.67.771-1.534h1.603zm1.141 1.919h.617c.909 0 1.101-.193 1.101-1.133v-4.16c0-.94-.192-1.132-1.1-1.132h-.618V21.68h4.036v1.571c1.198-1.4 2.029-1.86 3.264-1.86.831 0 1.682.306 2.164.785.482.48.656 1.17.656 2.532v3.547c0 .94.193 1.132 1.101 1.132h.541v1.284H99.77v-1.284h.386c.908 0 1.1-.192 1.1-1.132v-3.547c0-.787-.058-1.054-.27-1.342-.25-.307-.675-.498-1.157-.498-.677 0-1.333.344-1.777.94-.425.556-.561 1.053-.561 2.127v2.32c0 .94.194 1.133 1.1 1.133h.387v1.284h-5.523v-1.283h-.001z" fill="#82BC00"/></g></g></svg>
