<svg width="28" height="28" viewBox="0 0 28 28" xmlns="http://www.w3.org/2000/svg"><path d="M14 7.323c.5887 0 1.077-.6892 1.077-1.522S14.5886 4.279 14 4.279c-.603 0-1.077.6892-1.077 1.522S13.397 7.3087 14 7.3087v.0144zm11.0564 1.5365c-1.8667-1.1774-3.0872-.718-4.9251-1.996a5.7723 5.7723 0 0 1-2.2975-2.9291c-.2871-.6893-.402-.9047-.603-.9047-.1436 0-.3016.0288-.3016.718v.0718c0 .8472-.5743 3.6902-2.9292 3.6902-2.1826 0-2.9005-2.7282-2.9005-3.7333v-.043c0-.675-.1723-.7037-.3016-.7037-.201 0-.3302.2154-.6174.919a5.6 5.6 0 0 1-2.2974 2.9149C6.045 8.1559 4.839 7.682 2.9579 8.8738 1.0913 10.0226.0574 12.2051.5456 12.4923c.3447.201.7467-.3877 1.1488-.9046.8184-1.0339 2.3692-1.8667 3.0153-1.2923.7898.718-.043 1.8236-.7035 3.4174-.5744 1.3785-.5026 2.9867-.3734 4.322.2154 2.4411-.8759 3.2165-.2297 3.6329.6605.4308 1.7518-1.522 1.9959-3.9056.1292-1.2206.0861-2.4267.5456-2.4267.5457 0 .5457 2.3549.3733 3.518-.3158 2.24-1.5076 3.36-1.2923 5.6574.1436 1.6225 1.1488 1.6943 1.1775.0574.0287-2.6708 2.5702-4.0492 2.3692-8.7303-.1005-2.8-.517-4.8964.962-7.9117.2585-.5457.675-1.4647 1.0052-2.3262.1292.3159.3877.919.5456 1.2062 1.6944 2.7856 1.7231 2.8 1.0626 5.3128-.8903 3.403.804 4.8102.5026 7.0359-.1867 1.3066.603 1.3497.9476.0287.4021-1.6082-.2728-2.556-.2297-4.1785 0-.8472.2872-2.441.8041-2.3405.3303.0575.0718.8041 0 1.7087-.0861 1.3785.3446 3.2164.9477 3.0441.5887-.1723-.0862-.8328.3159-2.5415.2297-1.0051.6605-2.2544.402-3.403-.5456-2.3119.7467-4.0206 1.0483-4.5662.2297-.402.4307-.9046.5743-1.3354.3303.8615.761 1.7949 1.0339 2.3549 1.4646 3.0153 1.0625 5.1117.9477 7.9117-.1867 4.681 2.3405 6.0595 2.3835 8.7303.0144 1.637 1.0195 1.5795 1.1775-.0574.201-2.2975-.9764-3.4175-1.2923-5.6575-.1867-1.163-.1867-3.518.359-3.518.4738 0 .4307 1.2062.5456 2.4411.244 2.3692 1.3497 4.3077 2.0102 3.8913.6462-.4308-.4594-1.2062-.2297-3.6328.1149-1.3354.1723-2.9436-.3877-4.3077-.6605-1.6082-1.479-2.7282-.7036-3.4175.6462-.5887 2.197.2441 3.0154 1.278.402.517.8041 1.1056 1.1487.9046.5026-.2872-.5313-2.4554-2.398-3.6328h-.0143zm-3.8913-1.68c.5887.3733 1.5077-.0144 2.0246-.8616.5313-.8615.4739-1.8666-.1148-2.24-.5887-.3733-1.5077.0144-2.0246.8616-.5313.8615-.4739 1.8667.1148 2.24zm-14.2728 0c.5744-.3733.6462-1.3785.1149-2.2257-.5313-.8615-1.436-1.2492-2.0246-.8759-.5888.3734-.6462 1.3642-.1293 2.2257.5313.8615 1.436 1.2492 2.039.8615v.0144zm21.0933 20.7343H.1006V.2154h27.8707v27.684l.0143.0144z" fill="#82BC00" fill-rule="nonzero"/></svg>
