<svg width="280" height="130" viewBox="0 0 280 130" xmlns="http://www.w3.org/2000/svg"><g fill-rule="nonzero" fill="none"><path d="M264.2462 120.4985c-.0835-.74-.0556-4.4689-.167-8.3684h.5568s3.1179 9.8486 9.2423 8.0553c1.058-.2846 1.9487-1.0816 2.255-2.1348 2.0043-6.4329-10.2446-5.2659-11.7757-11.2149-1.7817-7.0021 7.1545-10.4463 13.0006-6.8314.334.6832 1.1135 6.0914 1.1413 6.0914 0 0-.7516.1138-.8351 0-.1114 0-1.3641-4.0135-4.3985-5.522-.6403-.2847-4.5377-1.1386-5.4007 2.1347-1.6146 6.2906 15.1163 4.0704 11.6644 14.346-.6297 1.9221-2.0554 3.4632-3.8974 4.2126-2.2828 1.0817-5.6512.7686-8.0732.3132-1.0857-.1708-2.3106-.7401-3.3406-1.0817m-19.292-21.5189c14.6152-1.4232 18.429 19.9534 2.9508 22.4867-16.3411 2.6756-20.322-20.7788-2.9508-22.4867m.9743 1.4517c-10.3002 0-8.8804 21.4335.7238 19.7256 8.8248-1.5655 7.9618-19.7256-.7238-19.7256m-119.7053-1.594c-.0835.5693 0 3.4157 0 4.3266 7.2937-9.621 11.8035.8539 7.4886 2.0778-2.8674.797-2.422-2.1348-4.844-1.907-.835.0853-1.698.797-2.3105 2.6187a5.8073 5.8073 0 0 0-.334 1.907c0 3.9281-.1393 8.5962.1948 9.9625.5568 2.1348 2.8952 3.0741 4.1758 2.9603v.6546h-13.0006v-.5977c.9744.0285 3.7304-1.3948 3.7025-3.558-.0278-6.0914.167-10.2471-.2784-11.8126-.3566-1.1835-1.231-2.1302-2.3662-2.5618-.2784-.1139-1.6703-.4839-.5568-.854 3.2014-.9677 5.4842-1.8786 8.1288-3.2164m-43.2609 3.8142c3.7582 1.0532 6.9318 3.7003 7.5164 7.2014 1.8652 11.3288-11.6365 12.1827-20.9345 11.4141-2.923-.2277-5.7069.1708-7.5164.1708v-1.1385c2.0044-.1993 3.7582-.6832 3.7582-3.131V89.9564c0-2.0494-1.7817-2.818-3.6747-2.818a4.19 4.19 0 0 1 0-1.1385c11.0519.4839 23.8576-2.1063 25.9454 7.0022 1.559 6.689-4.3706 8.7385-5.0944 9.6778m-11.1354 16.623c2.5055 1.0532 4.5099 1.1386 6.9596.6547 7.934-1.6225 9.0754-13.6628.529-15.5983-2.0044-.4555-7.5164-.5124-7.5164-.1993v15.143m.0557-31.5953c-.0835 0-.0557 14.773-.0557 14.773 0 .5123 5.512.1138 6.8204-.4555 6.9875-3.0172 6.0131-13.3212-1.9487-14.1467a20.4246 20.4246 0 0 0-4.816-.1708m42.9268 32.2214l.2227.7401s-.8908.4554-1.4754.6262c-5.1223 1.5086-5.2893-3.188-5.2893-3.188-.0557-.0284-.1949-.6831-.8073.0285-3.0622 3.615-13.3068 6.0913-12.6108-1.3094.2505-2.6187 1.9487-4.298 4.5933-5.8066 3.0344-1.7363 7.6834-2.7895 8.0732-3.7004.3062-.8254.167-3.928.167-4.8104 0-1.8217-2.1992-1.537-2.9509-1.3663-2.422.5124-3.8417 2.6187-3.8417 3.3019.0835 3.7003-3.0344 5.2089-4.7047 4.0703-2.5054-1.7363-.0835-5.7497 4.0088-7.5714 2.2344-1.1274 4.6671-1.7855 7.1544-1.9356 4.1758-.2277 5.4007 1.6794 5.4007 5.4936 0 0-.0557 14.4598 0 14.4598 0 0-.1114 1.3947 2.06.9677m-7.1823-10.617c-.7238.313-6.542 2.7325-7.6834 4.9527-.501.9678-.696 1.7648-.1113 2.9887 1.4197 2.9887 7.7669.5124 7.7947-1.4801v-6.4614m78.0312 10.6171c.1392.3416.2227.7686.2227.7686s-.8909.427-1.4755.6262c-5.0944 1.4801-5.2893-3.2165-5.2893-3.2165-.0278 0-.1948-.6831-.8073.0285-3.0622 3.615-13.279 6.0913-12.6108-1.2809.2784-2.6472 1.9487-4.3265 4.5933-5.8351 3.0344-1.7363 7.6835-2.7895 8.0732-3.7004.3062-.8254.167-3.928.167-4.8104 0-1.8217-2.1992-1.537-2.9509-1.3663-2.394.5408-3.8417 2.6472-3.8417 3.3019.0836 3.7003-3.0065 5.2089-4.7047 4.0703-2.5054-1.7078-.0835-5.7497 4.0088-7.5714 2.2827-1.0247 4.1757-1.7648 7.1545-1.9071 4.2036-.2562 5.4006 1.6509 5.4006 5.465 0 0-.0557 14.4599 0 14.4883 0 0-.1113 1.3663 2.06.9393m-7.1823-10.5886c-.7238.2846-6.542 2.704-7.6834 4.9527-.501.9394-.696 1.7364-.1113 2.9603 1.4197 2.9887 7.767.5124 7.7947-1.4801v-6.433M227.0582 84c.0555 2.27 0 28.6343 0 28.6343.2497 2.6528-.222 3.5553 2.914 5.251l.0278.3829c-2.4978.3828-4.9956.9572-7.4379 1.6956v-3.0904c0-2.352-1.5819 2.8442-7.743 3.1177-13.0996.547-13.6546-24.3952 5.8558-21.6603 1.582.2188 1.9428 1.2307 1.7485-.547v-6.7551s.1665-1.5863-3.6634-3.3093c-.1943-.6016.5828-.711.9158-.7657 2.3313-.4923 5.2454-1.9418 7.3824-2.9537m-9.8247 15.5068c-10.6017 1.4495-8.1039 19.3904.6661 17.9956 1.7485-.2735 4.6348-3.1725 4.5793-4.8681-.0555-1.7777.0555-8.5876-.0833-10.1465-.1942-1.9964-3.0528-3.2818-5.162-2.981m-72.9076-1.5042h.0832v3.6648c.2498-.1094 1.9705-1.5042 4.6903-2.5161 1.0824-.4103 8.3815-2.2973 8.548 4.1023.0555 2.188 0 10.1191 0 11.3225-.1048 2.2803 1.5869 4.2569 3.8854 4.5399v.6016h-11.7396c.0278-.1914-.0277-.6016-.0277-.6016s2.9973-.1915 2.9973-4.2391v-10.6934c0-3.911-4.3572-4.3485-8.326.4376v9.955c0 1.2853.222 4.0476 3.3582 4.5399v.629H136v-.629s3.3581-.547 3.3581-4.54v-10.0096c-.3885-2.352-3.2193-3.0084-3.1916-3.0084l-.0277-.6564c2.7198-.8205 5.3563-1.6683 8.1872-2.899" fill="#231F20"/><path d="M196.6014 97.9636c-.0832.5273 0 3.3304 0 4.1908 7.2696-9.353 11.7646.8603 7.4638 2.0538-2.8579.777-2.414-2.1093-4.8279-1.8595-.8324.0832-1.6925.777-2.303 2.5533-.1109.3053-.3329.9436-.3329 1.8317 0 3.8856-.1387 8.4094.1943 9.7138.5271 2.1093 2.8856 3.0252 4.162 2.9142V120A840.5051 840.5051 0 0 0 188 120v-.5828c.9711 0 3.718-1.3877 3.6903-3.497-.0278-5.9115.1665-9.9636-.2775-11.5178a3.9128 3.9128 0 0 0-2.3584-2.4978c-.2775-.0833-1.6648-.444-.555-.8049 3.1909-.9713 5.4661-1.8317 8.102-3.1361zm60.3487-.333c.2775-.2776 1.7758-1.5543 1.6648-2.8865a2.9423 2.9423 0 0 0-.7491-1.8872c-.6382-.5828-1.2486-1.1657-1.2486-2.4423 0-1.3045.9156-2.2758 2.2197-2.4146C261.0566 88 262 89.4432 262 91.275c0 3.0528-1.9145 5.4952-4.3562 7.1604l-.6937-.8326v.0277z" fill="#231F20"/><path d="M26.9665 90.2643c1.1421 0 2.0893-1.33 2.0893-2.9372 0-1.6072-.9472-2.9372-2.0893-2.9372-1.17 0-2.0894 1.33-2.0894 2.9372 0 1.6072.9193 2.9095 2.0894 2.9095v.0277zm21.4506 2.965c-3.6216-2.2722-5.9895-1.3855-9.5553-3.8517-2.0726-1.3429-3.6399-3.3306-4.4573-5.6528-.5571-1.33-.78-1.7457-1.17-1.7457-.2786 0-.585.0555-.585 1.3855v.1386c0 1.6348-1.1143 7.1214-5.683 7.1214-4.2344 0-5.6273-5.2649-5.6273-7.2046v-.083c0-1.3024-.3343-1.3579-.585-1.3579-.39 0-.6408.4157-1.198 1.7735-.7997 2.3244-2.3718 4.3085-4.4572 5.625-3.5658 2.4939-5.9059 1.5795-9.5553 3.8794-3.6215 2.2167-5.6273 6.4286-4.6801 6.9828.6686.388 1.4486-.7482 2.2286-1.7457 1.588-1.9951 4.5966-3.6023 5.8502-2.4939 1.5322 1.3855-.0836 3.5192-1.365 6.595-1.1144 2.66-.975 5.7635-.7244 8.3405.418 4.7107-1.6993 6.207-.4457 7.0106 1.2815.8313 3.3987-2.9372 3.8723-7.537.2507-2.3554.1671-4.683 1.0586-4.683 1.0586 0 1.0586 4.5444.7243 6.7889-.6129 4.3227-2.9251 6.484-2.5072 10.9176.2785 3.1312 2.2286 3.2697 2.2843.1108.0557-5.154 4.9866-7.814 4.5966-16.8474-.195-5.4034-1.003-9.449 1.8665-15.268.5014-1.053 1.3093-2.8265 1.95-4.489.2507.6096.7522 1.7734 1.0586 2.3276 3.2872 5.3757 3.343 5.4034 2.0615 10.2526-1.7272 6.5671 1.56 9.2827.975 13.5777-.3621 2.5216 1.17 2.6047 1.8386.0554.78-3.1035-.5293-4.9323-.4457-8.0635 0-1.6349.5572-4.7106 1.56-4.5167.6408.1109.1394 1.5518 0 3.2975-.167 2.6601.6687 6.207 1.8387 5.8744 1.1422-.3325-.1672-1.6071.6129-4.9046.4457-1.9397 1.2814-4.3504.78-6.5672-1.0586-4.4612 1.4486-7.7587 2.0336-8.8117.4457-.7758.8358-1.7457 1.1143-2.577.6408 1.6626 1.4765 3.4638 2.0058 4.5444 2.8415 5.819 2.0615 9.8647 1.8386 15.268-.3621 9.0334 4.5409 11.6935 4.6244 16.8475.0279 3.159 1.978 3.0481 2.2844-.1108.39-4.4335-1.8943-6.5949-2.5072-10.9176-.3622-2.2445-.3622-6.7889.6964-6.7889.9193 0 .8358 2.3276 1.0586 4.7107.4736 4.572 2.6187 8.3129 3.9001 7.5093 1.2536-.8313-.8914-2.3276-.4457-7.0106.2229-2.577.3343-5.6804-.7522-8.3129-1.2814-3.1034-2.8693-5.2648-1.365-6.5949 1.2536-1.136 4.2623.4711 5.8502 2.4662.78.9975 1.56 2.1336 2.2286 1.7457.975-.5542-1.0307-4.7383-4.6523-7.0105h-.0278zm-7.5495-3.242c1.1422.7204 2.925-.0278 3.928-1.6627 1.0307-1.6625.9193-3.6022-.223-4.3227-1.1421-.7204-2.925.0277-3.9279 1.6626-1.0307 1.6626-.9193 3.6023.2229 4.3227zm-27.6908 0c1.1143-.7205 1.2536-2.6602.2229-4.295-1.0308-1.6627-2.7858-2.4108-3.928-1.6904-1.1422.7205-1.2536 2.6325-.2507 4.295 1.0307 1.6626 2.7858 2.4108 3.9558 1.6626v.0277zM54.1001 130H0V76.548h54.0722v53.4243l.0279.0277zM77.9465 27.391c2.8415 0 4.5687-.3602 5.6273-1.2192 1.0029-.8312 1.6157-2.383 1.6157-4.101 0-1.7457-.6128-3.1589-1.6714-3.9625-1.2536-.9698-2.7301-1.2746-5.9895-1.2746h-4.6523V27.391h5.0702zM77.25 13.37c3.2315 0 4.5687-.3325 5.6552-1.4132.8914-.7759 1.3093-1.9397 1.3093-3.3252 0-1.6071-.5014-2.8818-1.4207-3.6022-1.0308-.776-2.4237-1.1084-5.0145-1.1084h-4.903v9.4213H77.25v.0277zM61.6217 27.3357h1.783c2.73 0 3.0086-.2771 3.0086-2.771V6.6919c0-2.5492-.2786-2.8263-3.0087-2.8263h-1.7829V.4018h17.662c7.633 0 11.3938 2.4662 11.3938 7.4817 0 3.713-1.6157 5.4865-6.1844 6.8165 2.6186.6374 3.733 1.1361 4.9308 2.1337 1.6158 1.33 2.4515 3.2974 2.4515 5.7359 0 2.6047-.9193 4.7106-2.6465 6.013-2.1172 1.6071-4.9865 2.2168-10.8367 2.2168H61.6217v-3.4915.0278zm49.3086-9.9755c-.5293-4.1565-1.6437-5.6805-4.2623-5.6805-2.73 0-4.1787 1.6626-4.9309 5.6805h9.1932zm5.878 5.819c-.585 3.3252-1.4208 4.9046-3.3987 6.3732-1.8665 1.3855-4.1787 2.0783-6.9366 2.0783-6.7138 0-11.1989-4.5999-11.1989-11.4441 0-6.872 4.5687-11.4996 11.3939-11.4996 3.4544 0 6.0452 1.0253 7.8002 3.1867 1.6993 2.0505 2.2844 4.1564 2.5072 8.673h-15.489c.195 2.8819.5572 4.1011 1.4486 5.3758 1.003 1.4132 2.3401 2.0505 4.318 2.0505 1.56 0 2.953-.388 3.8444-1.1084.8357-.7482 1.2815-1.6072 1.8386-3.6577h3.8166l.0557-.0277zm12.146 1.8843c0 2.2167.4458 2.6878 2.6187 2.6878h1.4207v3.048h-13.6782v-3.048h1.3929c2.2008 0 2.6465-.4434 2.6465-2.6878V6.1378c0-2.2168-.4457-2.6879-2.6744-2.6879h-1.3929V.402h9.6667v24.6616zm16.269-21.6136c0 1.8566-1.5321 3.3529-3.3429 3.3529-1.95 0-3.4822-1.4963-3.4822-3.4637 0-1.7734 1.56-3.2698 3.3986-3.2698 1.8944 0 3.4266 1.4964 3.4266 3.3529v.0277zM135.111 27.7513h1.6715c2.173 0 2.6187-.4988 2.6187-2.6878V15.171c0-2.2168-.4458-2.6878-2.6187-2.6878h-1.6715V9.4352h9.8896v15.6006c0 2.2167.4457 2.6878 2.6186 2.6878h1.393v3.048h-13.9012v-3.048.0277zm31.9252-10.3911c-.5014-4.1565-1.6157-5.6805-4.2344-5.6805-2.73 0-4.2065 1.6626-4.9308 5.6805h9.1652zm5.9059 5.819c-.6129 3.3252-1.4486 4.9046-3.4265 6.3732-2.0074 1.436-4.4378 2.1671-6.9088 2.0783-6.7416 0-11.1989-4.5999-11.1989-11.4441 0-6.872 4.5687-11.4996 11.394-11.4996 3.4543 0 6.0172 1.0253 7.8001 3.1867 1.6715 2.0505 2.2844 4.1564 2.4794 8.673h-15.4054c.1671 2.8819.5571 4.1011 1.4207 5.3758 1.0308 1.4132 2.368 2.0505 4.3458 2.0505 1.56 0 2.953-.388 3.8166-1.1084.8357-.7482 1.2814-1.6072 1.8386-3.6577h3.8444v-.0277zm5.1537-8.396c-.5571-1.6626-1.2815-2.2722-2.5072-2.2722h-1.2536V9.463h11.8953v3.048h-.7521c-1.2815 0-1.783.3048-1.783 1.1084 0 .471.1393 1.1915.39 1.9396l3.4266 9.8647 3.6772-10.2803c.195-.4988.2786-.9976.2786-1.4963 0-.7759-.6407-1.1638-2.0336-1.1638h-1.1143V9.4352h10.6696v3.048h-1.1422c-1.198 0-2.0894.8868-2.7858 2.771l-5.5159 15.5452h-5.8501l-5.5716-16.0162h-.0279zm37.6082 2.5493c-.5014-4.1565-1.6157-5.6805-4.2344-5.6805-2.73 0-4.1787 1.6626-4.9308 5.6805h9.1652zm5.9059 5.819c-.6129 3.3252-1.4208 4.9046-3.4265 6.3732-1.8387 1.3855-4.123 2.0782-6.9088 2.0782-6.7416 0-11.1989-4.5998-11.1989-11.444 0-6.872 4.5687-11.4996 11.394-11.4996 3.4543 0 6.045 1.0253 7.8001 3.1866 1.6715 2.0506 2.2844 4.1565 2.4794 8.6732h-15.4055c.195 2.8818.5572 4.101 1.4208 5.3757 1.0307 1.4131 2.368 2.0505 4.3458 2.0505 1.56 0 2.953-.388 3.8166-1.1084.8357-.7482 1.3093-1.6072 1.8665-3.6577h3.8165v-.0277zm24.3478-19.757c0 1.8843-1.5322 3.3806-3.343 3.3806a3.4361 3.4361 0 0 1-2.479-.9978 3.3989 3.3989 0 0 1-1.0032-2.466c.028-1.3598.8727-2.5705 2.1436-3.0725 1.2708-.502 2.7204-.1976 3.6787.7727.6408.6373 1.003 1.4963 1.003 2.383zm-10.1124 24.329h1.6715c2.1729 0 2.6186-.4987 2.6186-2.6877V15.171c0-2.2168-.4457-2.6878-2.6186-2.6878h-1.6715V9.4352h9.8896v15.6006c0 2.2167.4457 2.6878 2.6186 2.6878h1.3929v3.048H235.873v-3.048h-.0278zm16.074 0h1.4486c2.173 0 2.6465-.4433 2.6465-2.6877V15.171c0-2.2445-.4736-2.6878-2.6465-2.6878h-1.4486V9.4352h9.611v3.7131c2.8694-3.3252 4.8473-4.4335 7.8002-4.4335 2.0058 0 4.0116.7481 5.1816 1.8842 1.1422 1.1361 1.56 2.771 1.56 6.013v8.4238c0 2.2167.4736 2.6878 2.6187 2.6878H280v3.048h-13.0375v-3.048h.9193c2.173 0 2.6186-.4434 2.6186-2.6878V16.612c0-1.8565-.1392-2.4939-.6407-3.1866-.7017-.793-1.7245-1.2304-2.7858-1.1915-1.5879 0-3.148.8313-4.2065 2.2168-1.0308 1.3577-1.3372 2.5215-1.3372 5.0708v5.542c0 2.2167.4457 2.66 2.6186 2.66h.9194v3.0482h-13.149v-3.0481zM82.6266 62.5548c-.3343 3.5468-.9472 5.237-2.368 6.872-1.6157 1.801-4.095 2.771-7.3266 2.771-6.7416 0-11.1431-4.4336-11.1431-11.361 0-6.8443 4.8751-11.555 11.9789-11.555 5.2373 0 9.026 2.771 9.026 6.5672 0 2.3276-1.4765 3.8794-3.5937 3.8794-1.95 0-3.343-1.247-3.343-3.0204 0-1.5794.8358-2.4939 2.6465-2.8264-1.755-1.2746-2.6743-1.6348-4.29-1.6348-3.956 0-6.1845 3.0203-6.1845 8.4237 0 4.9323 1.95 7.4262 5.683 7.4262 3.2315 0 4.6522-1.4963 5.3487-5.542h3.5658zm1.9222-21.5028h9.3603v12.7465c2.8693-3.2697 4.8472-4.4336 7.7445-4.4336 1.9779 0 4.0115.7482 5.1815 1.8843 1.1422 1.1361 1.56 2.771 1.56 6.013v8.4237c0 2.2168.4458 2.6879 2.6187 2.6879h1.3094v3.048H99.3414v-3.048h.9193c2.145 0 2.5908-.4434 2.5908-2.6879v-8.4237c0-1.8565-.1393-2.4939-.6408-3.1866-.5571-.7205-1.56-1.1915-2.73-1.1915-1.6158 0-3.1759.8313-4.2345 2.2167-1.0028 1.3024-1.3371 2.6325-1.3371 5.2649v5.3202c0 2.2168.4735 2.6879 2.6186 2.6879h.9193v3.048H84.5488v-3.048h1.1979c2.173 0 2.6186-.4434 2.6186-2.6879V46.7601c0-2.2167-.4457-2.6878-2.6186-2.6878h-1.1979v-3.048.0276zm39.8368 2.9927a3.3158 3.3158 0 0 1-.9592 2.3871 3.3519 3.3519 0 0 1-2.3837.9935 3.4361 3.4361 0 0 1-2.4791-.9978 3.3989 3.3989 0 0 1-1.0032-2.466c.0169-1.3722.866-2.5982 2.1492-3.1026 1.2831-.5044 2.7455-.1872 3.701.8028.6129.6373.975 1.4963.975 2.383zm-10.0845 24.329h1.6714c2.1451 0 2.6187-.4987 2.6187-2.6878v-9.8923c0-2.1614-.4736-2.6878-2.6465-2.6878h-1.6715v-3.0481h9.8896v15.6282c0 2.1891.4736 2.6879 2.6186 2.6879h1.393v3.048H114.301v-3.048zm25.4621-2.6878c0 2.2168.4457 2.6879 2.6187 2.6879h1.4207v3.048h-13.6782v-3.048h1.3929c2.2007 0 2.6465-.4434 2.6465-2.6879V46.7601c0-2.2167-.4458-2.6878-2.6744-2.6878h-1.3929v-3.048h9.6667v24.6615zm12.8982-4.9877c0 5.1263 1.6994 7.731 5.0145 7.731 3.4822 0 5.4044-2.7433 5.4044-7.6202 0-4.8769-1.95-7.5924-5.3766-7.5924-3.2872 0-5.0144 2.577-5.0144 7.4816h-.0279zm5.8502-19.6739h10.1124v24.6616c0 2.2168.4457 2.6879 2.6187 2.6879h1.3093v3.048h-9.4717V67.681c-1.8943 3.2975-3.733 4.3782-7.243 4.3782-5.9895 0-9.4718-4.1565-9.4718-11.361 0-7.26 3.4823-11.4164 9.4439-11.4164 3.538 0 5.3766 1.1084 7.2709 4.3504v-6.872c0-2.2167-.4457-2.6878-2.6187-2.6878h-1.95v-3.048zm30.6437 30.3975h-14.5975v-3.048h1.4764c2.173 0 2.6465-.4988 2.6465-2.6879v-9.8923c0-2.2168-.4736-2.6878-2.6465-2.6878h-1.4764v-3.0481h9.6388v3.1866c1.755-2.7155 3.3708-3.7685 5.8502-3.7685 3.148 0 5.4601 2.0505 5.4601 4.8769 0 2.2168-1.5322 3.824-3.6772 3.824-1.8944 0-3.148-1.1085-3.148-2.771 0-1.5518.78-2.4385 2.7858-3.0481a7.8352 7.8352 0 0 0-2.0336-.471c-1.3093 0-2.8694.9975-3.7887 2.466a10.21 10.21 0 0 0-1.4207 5.542v5.7913c0 2.1891.4457 2.6879 2.6186 2.6879h2.3122v3.048zm23.7628-13.4669c-.5014-4.1841-1.6157-5.6804-4.2622-5.6804-2.7023 0-4.1787 1.6625-4.9309 5.6804h9.1931zm5.9059 5.819c-.6129 3.3252-1.4486 4.877-3.4265 6.3733-2.0074 1.436-4.4378 2.167-6.9088 2.0782-6.7416 0-11.1989-4.5998-11.1989-11.444 0-6.872 4.5409-11.5273 11.366-11.5273 3.4823 0 6.0452 1.053 7.8003 3.1866 1.6993 2.0505 2.3122 4.1565 2.5072 8.7009h-15.4054c.1671 2.8818.5571 4.101 1.3929 5.3756 1.0307 1.4132 2.3679 2.0506 4.3458 2.0506 1.5879 0 2.953-.4157 3.8444-1.1084.8357-.7482 1.2814-1.6072 1.8386-3.6577h3.8165l.0279-.0277zm2.7022 4.5722h1.4765c2.1729 0 2.6465-.4434 2.6465-2.6879v-9.8923c0-2.2168-.4736-2.6879-2.6465-2.6879h-1.4765V50.03h9.6389v3.7408c2.8693-3.3252 4.8472-4.4336 7.8002-4.4336 1.9779 0 4.0115.7482 5.1816 1.8843 1.1143 1.1084 1.56 2.771 1.56 6.013v8.4237c0 2.2168.4457 2.6879 2.6186 2.6879h1.3094v3.048h-13.0097v-3.048h.9193c2.173 0 2.6187-.471 2.6187-2.6879v-8.4237c0-1.8843-.1393-2.4939-.6408-3.1866-.7017-.793-1.7244-1.2304-2.7858-1.1915-1.5879 0-3.1479.8313-4.2344 2.2167-1.0028 1.3301-1.3371 2.494-1.3371 5.071v5.5141c0 2.2168.4735 2.6879 2.6465 2.6879h.9193v3.048H221.554v-3.048h-.0279z" fill="#82BC00"/></g></svg>
